{
.appVersion = "3223";
.formatVersion = 3;
axes = (
{
name = Weight;
tag = wght;
}
);
classes = (
{
automatic = 1;
code = "A Aacute Abreve Acircumflex Adieresis Adotbelow Agrave Amacron Aogonek Aring Aringacute Atilde AE AEacute B C Cacute Ccaron Ccedilla Ccedillaacute Ccircumflex Cdotaccent D Dcaron Dcroat Ddotbelow Dmacronbelow Eth E Eacute Ebreve Ecaron Ecedillabreve Ecircumflex Edieresis Edotaccent Edotbelow Egrave Emacron Emacronacute Emacrongrave Eogonek Etilde Schwa F G Gbreve Gcaron Gcircumflex Gcommaaccent Gdotaccent Gmacron H Hbar Hbrevebelow Hcircumflex Hdotbelow I IJ Iacute Ibreve Icircumflex Idieresis Idieresisacute Idotaccent Idotbelow Igrave Imacron Iogonek Itilde J Jacute Jcircumflex K Kcommaaccent L Lacute Lcaron Lcommaaccent Ldot Ldotbelow Lmacronbelow Lslash M Mdotbelow N Nacute Ncaron Ncommaaccent Ndotaccent Ndotbelow Nhookleft Nmacronbelow Ntilde Eng O Oacute Obreve Ocircumflex Odieresis Odotbelow Ograve Ohungarumlaut Omacron Omacronacute Omacrongrave Oogonek Oslash Oslashacute Otilde Otildeacute Otildedieresis OE P Thorn Q R Racute Rcaron Rcommaaccent Rdotbelow Rmacronbelow S Sacute Sacutedotaccent Scaron Scarondotaccent Scedilla Scircumflex Scommaaccent Sdotaccent Sdotbelow Sdotbelowdotaccent Germandbls T Tbar Tcaron Tcedilla Tcommaaccent Tdotbelow Tmacronbelow U Uacute Ubreve Ucircumflex Udieresis Udotbelow Ugrave Uhungarumlaut Umacron Umacrondieresis Uogonek Uring Utilde Utildeacute V W Wacute Wcircumflex Wdieresis Wgrave X Y Yacute Ycircumflex Ydieresis Ydotaccent Ygrave Ymacron Ytilde Z Zacute Zcaron Zdotaccent Zdotbelow Delta Omega";
name = Uppercase;
}
);
customParameters = (
{
name = blueScale;
value = 0.037;
},
{
name = fsType;
value = (
);
},
{
name = "Use Typo Metrics";
value = 1;
},
{
name = "gasp Table";
value = {
"21" = 7;
"65535" = 15;
"9" = 10;
};
},
{
name = panose;
value = (
2,
11,
3,
4,
4,
4,
2,
0,
2,
3
);
},
{
name = unicodeRanges;
value = (
0,
1
);
},
{
name = codePageRanges;
value = (
"1252"
);
},
{

glyphs = (
{
glyphname = A;
kernLeft = A;
kernRight = A;
lastChange = "2023-10-27 15:22:10 +0000";
layers = (
{
anchors = (
{
name = bottom;
pos = (310,0);
},
{
name = ogonek;
pos = (557,0);
},
{
name = top;
pos = (310,660);
}
);
layerId = "F5467FAD-1970-4982-B3D3-939C01050498";
shapes = (
{
closed = 1;
nodes = (
(63,0,l),
(162,246,l),
(123,207,l),
(498,207,l),
(458,246,l),
(557,0,l),
(602,0,l),
(334,660,l),
(287,660,l),
(19,0,l)
);
},
{
closed = 1;
nodes = (
(320,636,l),
(301,636,l),
(480,192,l),
(488,235,l),
(133,235,l),
(141,192,l)
);
}
);
width = 639;
},
{
anchors = (
{
name = bottom;
pos = (383,0);
},
{
name = ogonek;
pos = (576,0);
},
{
name = top;
pos = (384,660);
}
);
layerId = "6DD95C5A-998B-41AB-BDFB-84A73C209871";
shapes = (
{
closed = 1;
nodes = (
(190,0,l),
(275,207,l),
(217,167,l),
(550,167,l),
(491,207,l),
(576,0,l),
(729,0,l),
(461,660,l),
(306,660,l),
(38,0,l)
);
},
{
closed = 1;
nodes = (
(400,509,l),
(367,509,l),
(481,232,l),
(507,272,l),
(259,272,l),
(286,232,l)
);
}
);
width = 767;
},
{
anchors = (
{
name = bottom;
pos = (299,0);
},
{
name = ogonek;
pos = (554,0);
},
{
name = top;
pos = (299,660);
}
);
layerId = "1FDC7037-1F88-4969-8535-0F79C1EF19DB";
shapes = (
{
closed = 1;
nodes = (
(42,0,l),
(144,253,l),
(108,213,l),
(489,213,l),
(453,253,l),
(554,0,l),
(581,0,l),
(313,660,l),
(284,660,l),
(16,0,l)
);
},
{
closed = 1;
nodes = (
(306,655,l),
(290,655,l),
(480,186,l),
(485,229,l),
(113,229,l),
(117,186,l)
);
}
);
width = 620;
},
{
anchors = (
{
name = bottom;
pos = (401,0);
},
{
name = ogonek;
pos = (581,0);
},
{
name = top;
pos = (402,660);
}
);
layerId = "3ED9E848-BE83-4CAC-8EFF-D71BD2B4F667";
shapes = (
{
closed = 1;
nodes = (
(222,0,l),
(303,197,l),
(240,157,l),
(563,157,l),
(500,197,l),
(581,0,l),
(760,0,l),
(492,660,l),
(310,660,l),
(42,0,l)
);
},
{
closed = 1;
nodes = (
(420,478,l),
(383,478,l),
(481,241,l),
(512,281,l),
(290,281,l),
(322,241,l)
);
}
);
width = 798;
}
);
note = A;
unicode = 65;
},
{
glyphname = AE;
kernLeft = A;
kernRight = E;
lastChange = "2023-10-27 15:22:10 +0000";
layers = (
{
anchors = (
{
name = top;
pos = (666,660);
}
);
layerId = "F5467FAD-1970-4982-B3D3-939C01050498";
shapes = (
{
closed = 1;
nodes = (
(110,0,l),
(248,243,l),
(468,243,l),
(468,0,l),
(965,0,l),
(965,28,l),
(507,28,l),
(507,319,l),
(944,319,l),
(944,349,l),
(507,349,l),
(507,631,l),
(954,631,l),
(954,660,l),
(436,660,l),
(60,0,l)
);
},
{
closed = 1;
nodes = (
(468,633,l),
(468,269,l),
(262,269,l)
);
}
);
width = 1009;
},
{
anchors = (
{
name = top;
pos = (636,660);
}
);
layerId = "6DD95C5A-998B-41AB-BDFB-84A73C209871";
shapes = (
{
closed = 1;
nodes = (
(171,0,l),
(264,165,l),
(459,165,l),
(459,0,l),
(1005,0,l),
(1005,117,l),
(604,117,l),
(604,279,l),
(986,279,l),
(986,396,l),
(604,396,l),
(604,543,l),
(996,543,l),
(996,660,l),
(383,660,l),
(8,0,l)
);
},
{
closed = 1;
nodes = (
(459,510,l),
(459,270,l),
(323,270,l)
);
}
);
width = 1009;
},
{
anchors = (
{
name = top;
pos = (670,660);
}
);
layerId = "1FDC7037-1F88-4969-8535-0F79C1EF19DB";
shapes = (
{
closed = 1;
nodes = (
(101,0,l),
(245,256,l),
(469,256,l),
(469,0,l),
(958,0,l),
(958,14,l),
(492,14,l),
(492,325,l),
(937,325,l),
(937,341,l),
(492,341,l),
(492,645,l),
(948,645,l),
(948,660,l),
(444,660,l),
(69,0,l)
);
},
{
closed = 1;
nodes = (
(469,653,l),
(469,269,l),
(252,269,l)
);
}
);
width = 1009;
},
{
anchors = (
{
name = top;
pos = (628,660);
}
);
layerId = "3ED9E848-BE83-4CAC-8EFF-D71BD2B4F667";
shapes = (
{
closed = 1;
nodes = (
(186,0,l),
(268,146,l),
(457,146,l),
(457,0,l),
(1016,0,l),
(1016,139,l),
(628,139,l),
(628,270,l),
(997,270,l),
(997,407,l),
(628,407,l),
(628,521,l),
(1006,521,l),
(1006,660,l),
(370,660,l),
(-6,0,l)
);
},
{
closed = 1;
nodes = (
(457,480,l),
(457,270,l),
(339,270,l)
);
}
);
width = 1009;
}
);
note = AE;
unicode = 198;
},
{
glyphname = B;
kernLeft = B;
kernRight = B;
lastChange = "2023-10-27 15:22:10 +0000";
layers = (
{
layerId = "F5467FAD-1970-4982-B3D3-939C01050498";
shapes = (
{
closed = 1;
nodes = (
(276,0,ls),
(422,0,o),
(521,62,o),
(521,196,cs),
(521,323,o),
(438,385,o),
(292,389,c),
(356,405,o),
(400,443,o),
(400,521,cs),
(400,627,o),
(320,660,o),
(217,660,cs),
(53,660,l),
(53,0,l)
);
},
{
closed = 1;
nodes = (
(93,369,l),
(272,369,ls),
(389,369,o),
(479,316,o),
(479,196,cs),
(479,80,o),
(392,29,o),
(267,29,cs),
(93,29,l)
);
},
{
closed = 1;
nodes = (
(93,631,l),
(217,631,ls),
(307,631,o),
(360,583,o),
(360,511,cs),
(360,440,o),
(309,389,o),
(213,389,cs),
(93,389,l)
);
}
);
width = 565;
},
{
layerId = "6DD95C5A-998B-41AB-BDFB-84A73C209871";
shapes = (
{
closed = 1;
nodes = (
(297,0,ls),
(448,0,o),
(566,73,o),
(566,212,cs),
(566,320,o),
(503,372,o),
(420,395,c),
(446,422,o),
(460,457,o),
(460,498,cs),
(460,620,o),
(352,660,o),
(245,660,cs),
(47,660,l),
(47,0,l)
);
},
{
closed = 1;
nodes = (
(191,332,l),
(278,332,ls),
(372,332,o),
(421,297,o),
(421,212,cs),
(421,136,o),
(365,108,o),
(280,108,cs),
(191,108,l)
);
},
{
closed = 1;
nodes = (
(191,552,l),
(245,552,ls),
(293,552,o),
(325,532,o),
(325,479,cs),
(325,436,o),
(293,413,o),
(242,413,cs),
(191,413,l)
);
}
);
width = 594;
},
{
layerId = "1FDC7037-1F88-4969-8535-0F79C1EF19DB";
shapes = (
{
closed = 1;
nodes = (
(273,0,ls),
(418,0,o),
(513,60,o),
(513,193,cs),
(513,323,o),
(427,387,o),
(272,388,c),
(341,402,o),
(390,440,o),
(390,525,cs),
(390,628,o),
(315,660,o),
(212,660,cs),
(54,660,l),
(54,0,l)
);
},
{
closed = 1;
nodes = (
(77,374,l),
(271,374,ls),
(391,374,o),
(488,319,o),
(488,193,cs),
(488,72,o),
(397,17,o),
(265,17,cs),
(77,17,l)
);
},
{
closed = 1;
nodes = (
(77,643,l),
(212,643,ls),
(309,643,o),
(366,591,o),
(366,516,cs),
(366,441,o),
(312,385,o),
(208,385,cs),
(77,385,l)
);
}
);
width = 560;
},
{
layerId = "3ED9E848-BE83-4CAC-8EFF-D71BD2B4F667";
shapes = (
{
closed = 1;
nodes = (
(302,0,ls),
(455,0,o),
(577,75,o),
(577,216,cs),
(577,320,o),
(519,369,o),
(451,396,c),
(468,426,o),
(475,461,o),
(475,492,cs),
(475,618,o),
(359,660,o),
(252,660,cs),
(46,660,l),
(46,0,l)
);
},
{
closed = 1;
nodes = (
(216,323,l),
(279,323,ls),
(368,323,o),
(406,293,o),
(406,216,cs),
(406,149,o),
(358,128,o),
(284,128,cs),
(216,128,l)
);
},
{
closed = 1;
nodes = (
(216,532,l),
(252,532,ls),
(290,532,o),
(317,520,o),
(317,472,cs),
(317,435,o),
(290,419,o),
(250,419,cs),
(216,419,l)
);
}
);
width = 601;
}
);
note = B;
unicode = 66;
},
{
glyphname = C;
kernLeft = C;
kernRight = C;
lastChange = "2023-10-27 15:22:10 +0000";
layers = (
{
anchors = (
{
name = bottom;
pos = (361,0);
},
{
name = top;
pos = (361,660);
}
);
layerId = "F5467FAD-1970-4982-B3D3-939C01050498";
shapes = (
{
closed = 1;
nodes = (
(469,-5,o),
(554,34,o),
(611,101,c),
(571,120,l),
(521,60,o),
(441,25,o),
(361,25,cs),
(198,25,o),
(83,155,o),
(83,328,cs),
(83,503,o),
(199,636,o),
(361,636,cs),
(443,636,o),
(524,598,o),
(575,535,c),
(614,554,l),
(556,624,o),
(470,665,o),
(361,665,cs),
(162,665,o),
(32,515,o),
(32,328,cs),
(32,143,o),
(163,-5,o),
(361,-5,cs)
);
}
);
width = 653;
},
{
anchors = (
{
name = bottom;
pos = (390,0);
},
{
name = top;
pos = (390,660);
}
);
layerId = "6DD95C5A-998B-41AB-BDFB-84A73C209871";
shapes = (
{
closed = 1;
nodes = (
(522,-5,o),
(631,58,o),
(682,142,c),
(554,205,l),
(514,134,o),
(459,104,o),
(390,104,cs),
(282,104,o),
(202,194,o),
(202,328,cs),
(202,464,o),
(283,556,o),
(390,556,cs),
(461,556,o),
(517,524,o),
(556,450,c),
(684,514,l),
(632,601,o),
(523,665,o),
(390,665,cs),
(183,665,o),
(47,507,o),
(47,328,cs),
(47,151,o),
(185,-5,o),
(390,-5,cs)
);
}
);
width = 703;
},
{
anchors = (
{
name = bottom;
pos = (356,0);
},
{
name = top;
pos = (356,660);
}
);
layerId = "1FDC7037-1F88-4969-8535-0F79C1EF19DB";
shapes = (
{
closed = 1;
nodes = (
(460,-5,o),
(541,30,o),
(600,94,c),
(574,107,l),
(521,49,o),
(438,12,o),
(356,12,cs),
(185,12,o),
(64,148,o),
(64,328,cs),
(64,509,o),
(186,648,o),
(356,648,cs),
(440,648,o),
(525,609,o),
(578,548,c),
(603,561,l),
(544,628,o),
(461,665,o),
(356,665,cs),
(158,665,o),
(29,516,o),
(29,328,cs),
(29,142,o),
(159,-5,o),
(356,-5,cs)
);
}
);
width = 646;
},
{
anchors = (
{
name = bottom;
pos = (398,0);
},
{
name = top;
pos = (398,660);
}
);
layerId = "3ED9E848-BE83-4CAC-8EFF-D71BD2B4F667";
shapes = (
{
closed = 1;
nodes = (
(536,-5,o),
(650,63,o),
(699,153,c),
(549,225,l),
(512,152,o),
(464,124,o),
(398,124,cs),
(303,124,o),
(231,204,o),
(231,328,cs),
(231,455,o),
(304,537,o),
(398,537,cs),
(466,537,o),
(515,506,o),
(552,429,c),
(701,504,l),
(651,595,o),
(537,665,o),
(398,665,cs),
(188,665,o),
(51,505,o),
(51,328,cs),
(51,153,o),
(190,-5,o),
(398,-5,cs)
);
}
);
width = 715;
}
);
note = C;
unicode = 67;
},
{
glyphname = D;
kernLeft = B;
kernRight = D;
lastChange = "2023-10-27 15:22:10 +0000";
layers = (
{
anchors = (
{
name = bottom;
pos = (295,0);
},
{
name = top;
pos = (295,660);
}
);
layerId = "F5467FAD-1970-4982-B3D3-939C01050498";
shapes = (
{
closed = 1;
nodes = (
(222,0,ls),
(419,0,o),
(567,98,o),
(567,331,cs),
(567,568,o),
(399,660,o),
(205,660,cs),
(53,660,l),
(53,0,l)
);
},
{
closed = 1;
nodes = (
(92,620,l),
(205,621,ls),
(378,622,o),
(521,552,o),
(521,331,cs),
(521,118,o),
(401,39,o),
(222,39,cs),
(92,39,l)
);
}
);
width = 600;
},
{
anchors = (
{
name = bottom;
pos = (323,0);
},
{
name = top;
pos = (323,660);
}
);
layerId = "6DD95C5A-998B-41AB-BDFB-84A73C209871";
shapes = (
{
closed = 1;
nodes = (
(259,0,ls),
(468,0,o),
(618,103,o),
(618,331,cs),
(618,565,o),
(447,660,o),
(245,660,cs),
(47,660,l),
(47,0,l)
);
},
{
closed = 1;
nodes = (
(192,552,l),
(245,552,ls),
(378,552,o),
(468,498,o),
(468,331,cs),
(468,166,o),
(399,108,o),
(259,108,cs),
(191,108,l)
);
}
);
width = 651;
},
{
anchors = (
{
name = bottom;
pos = (290,0);
},
{
name = top;
pos = (290,660);
}
);
layerId = "1FDC7037-1F88-4969-8535-0F79C1EF19DB";
shapes = (
{
closed = 1;
nodes = (
(216,0,ls),
(411,0,o),
(558,97,o),
(558,331,cs),
(558,568,o),
(391,660,o),
(198,660,cs),
(54,660,l),
(54,0,l)
);
},
{
closed = 1;
nodes = (
(76,632,l),
(198,633,ls),
(378,634,o),
(530,560,o),
(530,331,cs),
(530,110,o),
(401,27,o),
(216,27,cs),
(76,27,l)
);
}
);
width = 591;
},
{
anchors = (
{
name = bottom;
pos = (330,0);
},
{
name = top;
pos = (330,660);
}
);
layerId = "3ED9E848-BE83-4CAC-8EFF-D71BD2B4F667";
shapes = (
{
closed = 1;
nodes = (
(269,0,ls),
(480,0,o),
(630,104,o),
(630,331,cs),
(630,564,o),
(459,660,o),
(256,660,cs),
(46,660,l),
(46,0,l)
);
},
{
closed = 1;
nodes = (
(217,535,l),
(256,535,ls),
(379,535,o),
(455,485,o),
(455,331,cs),
(455,178,o),
(399,125,o),
(269,125,cs),
(217,125,l)
);
}
);
width = 663;
}
);
note = D;
unicode = 68;
},
{
glyphname = Eth;
kernLeft = Eth;
kernRight = D;
lastChange = "2023-10-27 15:22:10 +0000";
layers = (
{
layerId = "F5467FAD-1970-4982-B3D3-939C01050498";
shapes = (
{
closed = 1;
nodes = (
(325,0,ls),
(522,0,o),
(670,98,o),
(670,331,cs),
(670,568,o),
(503,660,o),
(308,660,cs),
(157,660,l),
(157,306,l),
(45,306,l),
(45,274,l),
(157,274,l),
(157,0,l)
);
},
{
closed = 1;
nodes = (
(196,274,l),
(412,274,l),
(412,306,l),
(196,306,l),
(196,620,l),
(308,621,ls),
(482,621,o),
(625,552,o),
(625,331,cs),
(625,118,o),
(505,39,o),
(325,39,cs),
(196,39,l)
);
}
);
width = 733;
},
{
layerId = "6DD95C5A-998B-41AB-BDFB-84A73C209871";
shapes = (
{
closed = 1;
nodes = (
(388,0,ls),
(596,0,o),
(746,103,o),
(746,331,cs),
(746,565,o),
(575,660,o),
(373,660,cs),
(175,660,l),
(175,345,l),
(56,345,l),
(56,236,l),
(175,236,l),
(175,0,l)
);
},
{
closed = 1;
nodes = (
(321,236,l),
(488,236,l),
(488,345,l),
(321,345,l),
(321,552,l),
(373,552,ls),
(506,552,o),
(596,498,o),
(596,331,cs),
(596,166,o),
(527,108,o),
(388,108,cs),
(320,108,l)
);
}
);
width = 760;
},
{
layerId = "1FDC7037-1F88-4969-8535-0F79C1EF19DB";
shapes = (
{
closed = 1;
nodes = (
(315,0,ls),
(511,0,o),
(658,97,o),
(658,331,cs),
(658,568,o),
(491,660,o),
(298,660,cs),
(154,660,l),
(154,300,l),
(43,300,l),
(43,281,l),
(154,281,l),
(154,0,l)
);
},
{
closed = 1;
nodes = (
(176,281,l),
(400,281,l),
(400,300,l),
(176,300,l),
(176,632,l),
(298,633,ls),
(478,633,o),
(630,560,o),
(630,331,cs),
(630,110,o),
(501,27,o),
(315,27,cs),
(176,27,l)
);
}
);
width = 729;
},
{
layerId = "3ED9E848-BE83-4CAC-8EFF-D71BD2B4F667";
shapes = (
{
closed = 1;
nodes = (
(403,0,ls),
(614,0,o),
(765,104,o),
(765,331,cs),
(765,564,o),
(593,660,o),
(389,660,cs),
(180,660,l),
(180,355,l),
(58,355,l),
(58,226,l),
(180,226,l),
(180,0,l)
);
},
{
closed = 1;
nodes = (
(351,226,l),
(507,226,l),
(507,355,l),
(351,355,l),
(351,535,l),
(389,535,ls),
(513,535,o),
(588,485,o),
(588,331,cs),
(588,178,o),
(533,125,o),
(403,125,cs),
(351,125,l)
);
}
);
width = 767;
}
);
note = Eth;
unicode = 208;
},
{
glyphname = E;
kernLeft = B;
kernRight = E;
lastChange = "2023-10-27 15:22:10 +0000";
layers = (
{
anchors = (
{
name = bottom;
pos = (314,0);
},
{
name = ogonek;
pos = (539,0);
},
{
name = top;
pos = (314,660);
}
);
layerId = "F5467FAD-1970-4982-B3D3-939C01050498";
shapes = (
{
closed = 1;
nodes = (
(553,0,l),
(553,28,l),
(95,28,l),
(95,319,l),
(532,319,l),
(532,349,l),
(95,349,l),
(95,631,l),
(542,631,l),
(542,660,l),
(56,660,l),
(56,0,l)
);
}
);
width = 597;
},
{
anchors = (
{
name = bottom;
pos = (333,0);
},
{
name = ogonek;
pos = (483,0);
},
{
name = top;
pos = (333,660);
}
);
layerId = "6DD95C5A-998B-41AB-BDFB-84A73C209871";
shapes = (
{
closed = 1;
nodes = (
(593,0,l),
(593,117,l),
(192,117,l),
(192,279,l),
(574,279,l),
(574,396,l),
(192,396,l),
(192,543,l),
(584,543,l),
(584,660,l),
(47,660,l),
(47,0,l)
);
}
);
width = 631;
},
{
anchors = (
{
name = bottom;
pos = (311,0);
},
{
name = ogonek;
pos = (549,0);
},
{
name = top;
pos = (311,660);
}
);
layerId = "1FDC7037-1F88-4969-8535-0F79C1EF19DB";
shapes = (
{
closed = 1;
nodes = (
(546,0,l),
(546,14,l),
(80,14,l),
(80,325,l),
(525,325,l),
(525,341,l),
(80,341,l),
(80,645,l),
(536,645,l),
(536,660,l),
(57,660,l),
(57,0,l)
);
}
);
width = 591;
},
{
anchors = (
{
name = bottom;
pos = (338,0);
},
{
name = ogonek;
pos = (469,0);
},
{
name = top;
pos = (338,660);
}
);
layerId = "3ED9E848-BE83-4CAC-8EFF-D71BD2B4F667";
shapes = (
{
closed = 1;
nodes = (
(604,0,l),
(604,139,l),
(216,139,l),
(216,270,l),
(585,270,l),
(585,407,l),
(216,407,l),
(216,521,l),
(594,521,l),
(594,660,l),
(45,660,l),
(45,0,l)
);
}
);
width = 639;
}
);
note = E;
unicode = 69;
},
{
glyphname = Schwa;
kernLeft = C;
kernRight = O;
lastChange = "2023-10-27 15:22:10 +0000";
layers = (
{
layerId = "F5467FAD-1970-4982-B3D3-939C01050498";
shapes = (
{
closed = 1;
nodes = (
(628,327,l),
(31,327,l),
(29,309,o),
(28,291,o),
(28,274,cs),
(28,106,o),
(141,-5,o),
(324,-5,cs),
(505,-5,o),
(658,113,o),
(658,322,cs),
(658,554,o),
(498,664,o),
(316,664,cs),
(185,664,o),
(75,621,o),
(30,547,c),
(60,528,l),
(109,594,o),
(170,635,o),
(316,635,cs),
(476,635,o),
(622,538,o),
(620,315,cs),
(618,139,o),
(506,25,o),
(324,25,cs),
(161,25,o),
(58,132,o),
(73,290,c),
(628,290,l)
);
}
);
width = 687;
},
{
layerId = "6DD95C5A-998B-41AB-BDFB-84A73C209871";
shapes = (
{
closed = 1;
nodes = (
(595,380,l),
(66,374,l),
(58,339,o),
(55,307,o),
(55,276,cs),
(55,104,o),
(179,-5,o),
(379,-5,cs),
(577,-5,o),
(716,121,o),
(716,323,cs),
(716,549,o),
(572,665,o),
(367,665,cs),
(223,665,o),
(92,604,o),
(47,486,c),
(158,422,l),
(188,499,o),
(246,555,o),
(348,555,cs),
(503,555,o),
(571,474,o),
(571,323,cs),
(571,163,o),
(468,104,o),
(374,104,cs),
(270,104,o),
(207,142,o),
(218,246,c),
(587,246,l)
);
}
);
width = 763;
},
{
layerId = "1FDC7037-1F88-4969-8535-0F79C1EF19DB";
shapes = (
{
closed = 1;
nodes = (
(635,319,l),
(26,320,l),
(25,305,o),
(25,289,o),
(25,274,cs),
(25,106,o),
(135,-5,o),
(317,-5,cs),
(495,-5,o),
(650,112,o),
(650,322,cs),
(650,555,o),
(487,664,o),
(308,664,cs),
(180,664,o),
(74,624,o),
(28,556,c),
(45,545,l),
(98,609,o),
(158,647,o),
(312,647,cs),
(473,647,o),
(632,549,o),
(628,314,cs),
(626,135,o),
(514,12,o),
(318,12,cs),
(145,12,o),
(35,130,o),
(50,298,c),
(636,298,l)
);
}
);
width = 675;
},
{
layerId = "3ED9E848-BE83-4CAC-8EFF-D71BD2B4F667";
shapes = (
{
closed = 1;
nodes = (
(587,393,l),
(75,386,l),
(67,347,o),
(62,311,o),
(62,276,cs),
(62,104,o),
(190,-5,o),
(393,-5,cs),
(596,-5,o),
(731,123,o),
(731,323,cs),
(731,548,o),
(591,665,o),
(380,665,cs),
(233,665,o),
(97,601,o),
(52,471,c),
(184,395,l),
(207,475,o),
(266,536,o),
(356,536,cs),
(510,536,o),
(558,458,o),
(559,325,cs),
(560,169,o),
(459,124,o),
(388,124,cs),
(297,124,o),
(244,145,o),
(255,235,c),
(577,235,l)
);
}
);
width = 783;
}
);
metricLeft = O;
metricRight = O;
unicode = 399;
},
{
glyphname = F;
kernLeft = B;
kernRight = F;
lastChange = "2023-10-27 15:22:10 +0000";
layers = (
{
layerId = "F5467FAD-1970-4982-B3D3-939C01050498";
shapes = (
{
closed = 1;
nodes = (
(95,0,l),
(95,319,l),
(532,319,l),
(532,349,l),
(95,349,l),
(95,631,l),
(542,631,l),
(542,660,l),
(56,660,l),
(56,0,l)
);
}
);
width = 575;
},
{
layerId = "6DD95C5A-998B-41AB-BDFB-84A73C209871";
shapes = (
{
closed = 1;
nodes = (
(202,0,l),
(202,279,l),
(584,279,l),
(584,396,l),
(202,396,l),
(202,543,l),
(593,543,l),
(593,660,l),
(57,660,l),
(57,0,l)
);
}
);
width = 631;
},
{
layerId = "1FDC7037-1F88-4969-8535-0F79C1EF19DB";
shapes = (
{
closed = 1;
nodes = (
(78,0,l),
(78,325,l),
(523,325,l),
(523,341,l),
(78,341,l),
(78,645,l),
(534,645,l),
(534,660,l),
(56,660,l),
(56,0,l)
);
}
);
width = 567;
},
{
layerId = "3ED9E848-BE83-4CAC-8EFF-D71BD2B4F667";
shapes = (
{
closed = 1;
nodes = (
(228,0,l),
(228,270,l),
(597,270,l),
(597,407,l),
(228,407,l),
(228,521,l),
(605,521,l),
(605,660,l),
(57,660,l),
(57,0,l)
);
}
);
width = 644;
}
);
note = F;
unicode = 70;
},
{
glyphname = G;
kernLeft = C;
kernRight = G;
lastChange = "2023-10-27 15:22:10 +0000";
layers = (
{
anchors = (
{
name = bottom;
pos = (362,0);
},
{
name = top;
pos = (362,660);
}
);
layerId = "F5467FAD-1970-4982-B3D3-939C01050498";
shapes = (
{
closed = 1;
nodes = (
(518,-5,o),
(604,91,o),
(623,234,c),
(623,0,l),
(653,0,l),
(653,349,l),
(384,349,l),
(384,320,l),
(613,320,l),
(613,279,ls),
(613,179,o),
(545,25,o),
(361,25,cs),
(200,25,o),
(81,157,o),
(81,328,cs),
(81,504,o),
(201,636,o),
(362,636,cs),
(445,636,o),
(522,598,o),
(573,535,c),
(612,554,l),
(554,624,o),
(471,665,o),
(362,665,cs),
(163,665,o),
(30,515,o),
(30,328,cs),
(30,141,o),
(165,-5,o),
(361,-5,cs)
);
}
);
width = 695;
},
{
anchors = (
{
name = bottom;
pos = (391,0);
},
{
name = top;
pos = (392,660);
}
);
layerId = "6DD95C5A-998B-41AB-BDFB-84A73C209871";
shapes = (
{
closed = 1;
nodes = (
(502,-5,o),
(568,72,o),
(568,154,c),
(568,0,l),
(703,0,l),
(703,388,l),
(358,388,l),
(358,279,l),
(559,279,l),
(559,276,ls),
(559,187,o),
(515,104,o),
(392,104,cs),
(271,104,o),
(201,193,o),
(201,328,cs),
(201,464,o),
(285,556,o),
(392,556,cs),
(463,556,o),
(516,524,o),
(555,450,c),
(683,514,l),
(631,601,o),
(526,665,o),
(392,665,cs),
(186,665,o),
(47,507,o),
(47,328,cs),
(47,151,o),
(167,-5,o),
(388,-5,cs)
);
}
);
width = 760;
},
{
anchors = (
{
name = bottom;
pos = (357,0);
},
{
name = top;
pos = (357,660);
}
);
layerId = "1FDC7037-1F88-4969-8535-0F79C1EF19DB";
shapes = (
{
closed = 1;
nodes = (
(521,-5,o),
(610,95,o),
(632,246,c),
(632,0,l),
(644,0,l),
(644,342,l),
(388,342,l),
(388,326,l),
(621,326,l),
(621,279,ls),
(621,178,o),
(550,12,o),
(356,12,cs),
(189,12,o),
(62,151,o),
(62,328,cs),
(62,510,o),
(188,648,o),
(357,648,cs),
(442,648,o),
(523,609,o),
(576,548,c),
(601,561,l),
(542,628,o),
(462,665,o),
(357,665,cs),
(159,665,o),
(27,516,o),
(27,328,cs),
(27,139,o),
(165,-5,o),
(357,-5,cs)
);
}
);
width = 685;
},
{
anchors = (
{
name = bottom;
pos = (399,0);
},
{
name = top;
pos = (400,660);
}
);
layerId = "3ED9E848-BE83-4CAC-8EFF-D71BD2B4F667";
shapes = (
{
closed = 1;
nodes = (
(498,-5,o),
(558,67,o),
(554,134,c),
(554,0,l),
(716,0,l),
(716,397,l),
(352,397,l),
(352,269,l),
(546,269,l),
(546,275,ls),
(546,189,o),
(507,124,o),
(400,124,cs),
(288,124,o),
(230,203,o),
(230,328,cs),
(230,455,o),
(306,537,o),
(400,537,cs),
(468,537,o),
(514,506,o),
(551,429,c),
(700,504,l),
(650,595,o),
(539,665,o),
(400,665,cs),
(191,665,o),
(51,505,o),
(51,328,cs),
(51,154,o),
(167,-5,o),
(394,-5,cs)
);
}
);
width = 776;
}
);
note = G;
unicode = 71;
},
{
glyphname = H;
kernLeft = B;
kernRight = H;
lastChange = "2023-10-27 15:22:10 +0000";
layers = (
{
anchors = (
{
name = bottom;
pos = (331,0);
},
{
name = top;
pos = (331,660);
}
);
layerId = "F5467FAD-1970-4982-B3D3-939C01050498";
shapes = (
{
closed = 1;
nodes = (
(92,0,l),
(92,328,l),
(569,328,l),
(569,0,l),
(608,0,l),
(608,660,l),
(569,660,l),
(569,368,l),
(92,368,l),
(92,660,l),
(53,660,l),
(53,0,l)
);
}
);
width = 661;
},
{
anchors = (
{
name = bottom;
pos = (346,0);
},
{
name = top;
pos = (346,660);
}
);
layerId = "6DD95C5A-998B-41AB-BDFB-84A73C209871";
shapes = (
{
closed = 1;
nodes = (
(192,0,l),
(192,287,l),
(499,287,l),
(499,0,l),
(644,0,l),
(644,660,l),
(499,660,l),
(499,405,l),
(192,405,l),
(192,660,l),
(47,660,l),
(47,0,l)
);
}
);
width = 691;
},
{
anchors = (
{
name = bottom;
pos = (328,0);
},
{
name = top;
pos = (328,660);
}
);
layerId = "1FDC7037-1F88-4969-8535-0F79C1EF19DB";
shapes = (
{
closed = 1;
nodes = (
(76,0,l),
(76,335,l),
(580,335,l),
(580,0,l),
(603,0,l),
(603,660,l),
(580,660,l),
(580,362,l),
(76,362,l),
(76,660,l),
(54,660,l),
(54,0,l)
);
}
);
width = 656;
},
{
anchors = (
{
name = bottom;
pos = (350,0);
},
{
name = top;
pos = (350,660);
}
);
layerId = "3ED9E848-BE83-4CAC-8EFF-D71BD2B4F667";
shapes = (
{
closed = 1;
nodes = (
(217,0,l),
(217,276,l),
(482,276,l),
(482,0,l),
(653,0,l),
(653,660,l),
(482,660,l),
(482,414,l),
(217,414,l),
(217,660,l),
(46,660,l),
(46,0,l)
);
}
);
width = 699;
}
);
note = H;
unicode = 72;
},
{
glyphname = Hbar;
lastChange = "2023-10-27 15:22:10 +0000";
layers = (
{
layerId = "F5467FAD-1970-4982-B3D3-939C01050498";
shapes = (
{
closed = 1;
nodes = (
(716,516,l),
(19,516,l),
(19,476,l),
(716,476,l)
);
},
{
pos = (37,0);
ref = H;
}
);
width = 735;
},
{
layerId = "6DD95C5A-998B-41AB-BDFB-84A73C209871";
shapes = (
{
closed = 1;
nodes = (
(757,574,l),
(19,574,l),
(19,456,l),
(757,456,l)
);
},
{
pos = (42,0);
ref = H;
}
);
width = 776;
},
{
layerId = "1FDC7037-1F88-4969-8535-0F79C1EF19DB";
shapes = (
{
closed = 1;
nodes = (
(709,506,l),
(19,506,l),
(19,479,l),
(709,479,l)
);
},
{
pos = (36,0);
ref = H;
}
);
width = 728;
},
{
layerId = "3ED9E848-BE83-4CAC-8EFF-D71BD2B4F667";
shapes = (
{
closed = 1;
nodes = (
(768,588,l),
(19,588,l),
(19,452,l),
(768,452,l)
);
},
{
pos = (43,0);
ref = H;
}
);
width = 786;
}
);
unicode = 294;
},
{
glyphname = I;
kernLeft = I;
kernRight = I;
lastChange = "2023-10-27 15:22:10 +0000";
layers = (
{
anchors = (
{
name = bottom;
pos = (97,0);
},
{
name = ogonek;
pos = (78,0);
},
{
name = top;
pos = (97,660);
}
);
layerId = "F5467FAD-1970-4982-B3D3-939C01050498";
shapes = (
{
closed = 1;
nodes = (
(118,0,l),
(118,660,l),
(78,660,l),
(78,0,l)
);
}
);
width = 196;
},
{
anchors = (
{
name = bottom;
pos = (139,0);
},
{
name = ogonek;
pos = (66,0);
},
{
name = top;
pos = (139,660);
}
);
layerId = "6DD95C5A-998B-41AB-BDFB-84A73C209871";
shapes = (
{
closed = 1;
nodes = (
(211,0,l),
(211,660,l),
(66,660,l),
(66,0,l)
);
}
);
width = 277;
},
{
anchors = (
{
name = bottom;
pos = (91,0);
},
{
name = ogonek;
pos = (80,0);
},
{
name = top;
pos = (91,660);
}
);
layerId = "1FDC7037-1F88-4969-8535-0F79C1EF19DB";
shapes = (
{
closed = 1;
nodes = (
(103,0,l),
(103,660,l),
(80,660,l),
(80,0,l)
);
}
);
width = 183;
},
{
anchors = (
{
name = bottom;
pos = (149,0);
},
{
name = ogonek;
pos = (63,0);
},
{
name = top;
pos = (149,660);
}
);
layerId = "3ED9E848-BE83-4CAC-8EFF-D71BD2B4F667";
shapes = (
{
closed = 1;
nodes = (
(234,0,l),
(234,660,l),
(63,660,l),
(63,0,l)
);
}
);
width = 297;
}
);
note = I;
unicode = 73;
},
{
glyphname = Iacute;
kernLeft = I;
kernRight = I;
lastChange = "2023-10-27 15:22:10 +0000";
layers = (
{
layerId = "F5467FAD-1970-4982-B3D3-939C01050498";
shapes = (
{
closed = 1;
nodes = (
(118,0,l),
(118,660,l),
(78,660,l),
(78,0,l)
);
},
{
closed = 1;
nodes = (
(176,843,l),
(155,880,l),
(41,773,l),
(58,769,l)
);
}
);
width = 196;
},
{
layerId = "6DD95C5A-998B-41AB-BDFB-84A73C209871";
shapes = (
{
closed = 1;
nodes = (
(211,0,l),
(211,660,l),
(66,660,l),
(66,0,l)
);
},
{
closed = 1;
nodes = (
(273,800,l),
(201,920,l),
(0,733,l),
(111,699,l)
);
}
);
width = 277;
},
{
layerId = "1FDC7037-1F88-4969-8535-0F79C1EF19DB";
shapes = (
{
closed = 1;
nodes = (
(103,0,l),
(103,660,l),
(80,660,l),
(80,0,l)
);
},
{
closed = 1;
nodes = (
(161,850,l),
(147,873,l),
(48,780,l),
(49,780,l)
);
}
);
width = 183;
},
{
layerId = "3ED9E848-BE83-4CAC-8EFF-D71BD2B4F667";
shapes = (
{
closed = 1;
nodes = (
(234,0,l),
(234,660,l),
(63,660,l),
(63,0,l)
);
},
{
closed = 1;
nodes = (
(297,789,l),
(212,931,l),
(-10,722,l),
(124,682,l)
);
}
);
width = 297;
}
);
note = Iacute;
unicode = 205;
},
{
glyphname = J;
kernLeft = J;
kernRight = J;
lastChange = "2023-10-27 15:22:10 +0000";
layers = (
{
anchors = (
{
name = top;
pos = (438,660);
}
);
layerId = "F5467FAD-1970-4982-B3D3-939C01050498";
shapes = (
{
closed = 1;
nodes = (
(355,-11,o),
(460,56,o),
(460,184,c),
(459,660,l),
(419,660,l),
(419,184,ls),
(419,71,o),
(328,14,o),
(236,14,cs),
(148,14,o),
(104,53,o),
(80,93,c),
(47,72,l),
(79,23,o),
(138,-11,o),
(236,-11,cs)
);
}
);
width = 520;
},
{
anchors = (
{
name = top;
pos = (424,660);
}
);
layerId = "6DD95C5A-998B-41AB-BDFB-84A73C209871";
shapes = (
{
closed = 1;
nodes = (
(397,-11,o),
(506,77,o),
(506,242,cs),
(505,660,l),
(360,660,l),
(360,225,ls),
(360,133,o),
(310,94,o),
(253,94,cs),
(174,94,o),
(163,138,o),
(142,196,c),
(23,113,l),
(49,50,o),
(122,-11,o),
(253,-11,cs)
);
}
);
width = 582;
},
{
anchors = (
{
name = top;
pos = (440,660);
}
);
layerId = "1FDC7037-1F88-4969-8535-0F79C1EF19DB";
shapes = (
{
closed = 1;
nodes = (
(348,-11,o),
(453,52,o),
(453,174,c),
(452,660,l),
(428,660,l),
(428,177,ls),
(428,60,o),
(331,1,o),
(233,1,cs),
(144,1,o),
(94,40,o),
(70,77,c),
(51,65,l),
(84,18,o),
(141,-11,o),
(233,-11,cs)
);
}
);
width = 510;
},
{
anchors = (
{
name = top;
pos = (421,660);
}
);
layerId = "3ED9E848-BE83-4CAC-8EFF-D71BD2B4F667";
shapes = (
{
closed = 1;
nodes = (
(407,-11,o),
(518,83,o),
(518,256,c),
(517,660,l),
(346,660,l),
(346,236,ls),
(346,148,o),
(306,114,o),
(256,114,cs),
(181,114,o),
(177,158,o),
(157,222,c),
(17,124,l),
(41,57,o),
(118,-11,o),
(256,-11,cs)
);
}
);
width = 597;
}
);
note = J;
unicode = 74;
},
{
glyphname = K;
kernLeft = B;
kernRight = K;
lastChange = "2023-10-27 15:22:10 +0000";
layers = (
{
anchors = (
{
name = bottom;
pos = (263,0);
},
{
name = top;
pos = (263,660);
}
);
layerId = "F5467FAD-1970-4982-B3D3-939C01050498";
shapes = (
{
closed = 1;
nodes = (
(93,0,l),
(93,244,l),
(222,386,l),
(473,0,l),
(521,0,l),
(250,416,l),
(472,660,l),
(429,660,l),
(93,293,l),
(93,660,l),
(53,660,l),
(53,0,l)
);
}
);
width = 554;
},
{
anchors = (
{
name = bottom;
pos = (329,0);
},
{
name = top;
pos = (329,660);
}
);
layerId = "6DD95C5A-998B-41AB-BDFB-84A73C209871";
shapes = (
{
closed = 1;
nodes = (
(192,0,l),
(192,224,l),
(258,296,l),
(454,0,l),
(617,0,l),
(353,401,l),
(590,660,l),
(423,660,l),
(192,408,l),
(192,660,l),
(47,660,l),
(47,0,l)
);
}
);
width = 640;
},
{
anchors = (
{
name = bottom;
pos = (253,0);
},
{
name = top;
pos = (253,660);
}
);
layerId = "1FDC7037-1F88-4969-8535-0F79C1EF19DB";
shapes = (
{
closed = 1;
nodes = (
(77,0,l),
(77,248,l),
(216,400,l),
(476,0,l),
(505,0,l),
(234,419,l),
(454,660,l),
(430,660,l),
(77,274,l),
(77,660,l),
(54,660,l),
(54,0,l)
);
}
);
width = 539;
},
{
anchors = (
{
name = bottom;
pos = (345,0);
},
{
name = top;
pos = (345,660);
}
);
layerId = "3ED9E848-BE83-4CAC-8EFF-D71BD2B4F667";
shapes = (
{
closed = 1;
nodes = (
(217,0,l),
(217,220,l),
(268,274,l),
(449,0,l),
(640,0,l),
(378,397,l),
(620,660,l),
(422,660,l),
(217,437,l),
(217,660,l),
(46,660,l),
(46,0,l)
);
}
);
width = 661;
}
);
note = K;
unicode = 75;
},
{
glyphname = L;
kernLeft = B;
kernRight = L;
lastChange = "2023-10-27 15:22:10 +0000";
layers = (
{
anchors = (
{
name = bottom;
pos = (281,0);
},
{
name = top;
pos = (154,660);
}
);
layerId = "F5467FAD-1970-4982-B3D3-939C01050498";
shapes = (
{
closed = 1;
nodes = (
(505,0,l),
(505,28,l),
(92,28,l),
(92,660,l),
(53,660,l),
(53,0,l)
);
}
);
width = 544;
},
{
anchors = (
{
name = bottom;
pos = (317,0);
},
{
name = top;
pos = (230,660);
}
);
layerId = "6DD95C5A-998B-41AB-BDFB-84A73C209871";
shapes = (
{
closed = 1;
nodes = (
(552,0,l),
(552,117,l),
(191,117,l),
(191,660,l),
(47,660,l),
(47,0,l)
);
}
);
width = 580;
},
{
anchors = (
{
name = bottom;
pos = (275,0);
},
{
name = top;
pos = (150,660);
}
);
layerId = "1FDC7037-1F88-4969-8535-0F79C1EF19DB";
shapes = (
{
closed = 1;
nodes = (
(497,0,l),
(497,14,l),
(76,14,l),
(76,660,l),
(54,660,l),
(54,0,l)
);
}
);
width = 538;
},
{
anchors = (
{
name = bottom;
pos = (325,0);
},
{
name = top;
pos = (248,660);
}
);
layerId = "3ED9E848-BE83-4CAC-8EFF-D71BD2B4F667";
shapes = (
{
closed = 1;
nodes = (
(563,0,l),
(563,139,l),
(216,139,l),
(216,660,l),
(46,660,l),
(46,0,l)
);
}
);
width = 589;
}
);
note = L;
unicode = 76;
},
{
glyphname = Lslash;
lastChange = "2023-10-27 15:22:10 +0000";
layers = (
{
layerId = "F5467FAD-1970-4982-B3D3-939C01050498";
shapes = (
{
closed = 1;
nodes = (
(613,0,l),
(613,28,l),
(201,28,l),
(201,369,l),
(324,405,l),
(324,438,l),
(201,403,l),
(201,660,l),
(161,660,l),
(161,391,l),
(51,360,l),
(51,326,l),
(161,357,l),
(161,0,l)
);
}
);
width = 657;
},
{
layerId = "6DD95C5A-998B-41AB-BDFB-84A73C209871";
shapes = (
{
closed = 1;
nodes = (
(660,0,l),
(660,117,l),
(300,117,l),
(300,343,l),
(383,367,l),
(381,485,l),
(300,461,l),
(300,660,l),
(156,660,l),
(156,420,l),
(32,385,l),
(33,267,l),
(156,302,l),
(156,0,l)
);
}
);
width = 657;
},
{
layerId = "1FDC7037-1F88-4969-8535-0F79C1EF19DB";
shapes = (
{
closed = 1;
nodes = (
(605,0,l),
(605,14,l),
(185,14,l),
(185,373,l),
(315,410,l),
(315,431,l),
(185,394,l),
(185,660,l),
(162,660,l),
(162,388,l),
(54,356,l),
(54,336,l),
(162,367,l),
(162,0,l)
);
}
);
width = 657;
},
{
layerId = "3ED9E848-BE83-4CAC-8EFF-D71BD2B4F667";
shapes = (
{
closed = 1;
nodes = (
(671,0,l),
(671,139,l),
(324,139,l),
(324,337,l),
(397,357,l),
(395,496,l),
(324,476,l),
(324,660,l),
(155,660,l),
(155,427,l),
(27,390,l),
(28,253,l),
(155,289,l),
(155,0,l)
);
}
);
width = 657;
}
);
note = Lslash;
unicode = 321;
},
{
glyphname = M;
kernLeft = B;
kernRight = H;
lastChange = "2023-10-27 15:22:10 +0000";
layers = (
{
anchors = (
{
name = bottom;
pos = (374,0);
},
{
name = top;
pos = (374,660);
}
);
layerId = "F5467FAD-1970-4982-B3D3-939C01050498";
shapes = (
{
closed = 1;
nodes = (
(92,0,l),
(92,582,l),
(350,0,l),
(399,0,l),
(655,582,l),
(655,0,l),
(695,0,l),
(695,660,l),
(641,660,l),
(374,40,l),
(106,660,l),
(53,660,l),
(53,0,l)
);
}
);
width = 748;
},
{
anchors = (
{
name = bottom;
pos = (440,0);
},
{
name = top;
pos = (440,660);
}
);
layerId = "6DD95C5A-998B-41AB-BDFB-84A73C209871";
shapes = (
{
closed = 1;
nodes = (
(192,0,l),
(192,384,l),
(363,0,l),
(518,0,l),
(688,386,l),
(688,0,l),
(834,0,l),
(834,660,l),
(652,661,l),
(440,171,l),
(229,661,l),
(47,660,l),
(47,0,l)
);
}
);
width = 881;
},
{
anchors = (
{
name = bottom;
pos = (364,0);
},
{
name = top;
pos = (364,660);
}
);
layerId = "1FDC7037-1F88-4969-8535-0F79C1EF19DB";
shapes = (
{
closed = 1;
nodes = (
(76,0,l),
(76,613,l),
(348,0,l),
(380,0,l),
(650,613,l),
(650,0,l),
(672,0,l),
(672,660,l),
(639,660,l),
(364,18,l),
(86,660,l),
(54,660,l),
(54,0,l)
);
}
);
width = 727;
},
{
anchors = (
{
name = bottom;
pos = (456,0);
},
{
name = top;
pos = (456,660);
}
);
layerId = "3ED9E848-BE83-4CAC-8EFF-D71BD2B4F667";
shapes = (
{
closed = 1;
nodes = (
(217,0,l),
(217,335,l),
(366,0,l),
(547,0,l),
(697,338,l),
(697,0,l),
(868,0,l),
(868,660,l),
(654,661,l),
(456,203,l),
(259,661,l),
(46,660,l),
(46,0,l)
);
}
);
width = 914;
}
);
note = M;
unicode = 77;
},
{
glyphname = N;
kernLeft = B;
kernRight = H;
lastChange = "2023-10-27 15:22:10 +0000";
layers = (
{
anchors = (
{
name = bottom;
pos = (283,0);
},
{
name = top;
pos = (283,660);
}
);
layerId = "F5467FAD-1970-4982-B3D3-939C01050498";
shapes = (
{
closed = 1;
nodes = (
(93,0,l),
(93,589,l),
(470,0,l),
(512,0,l),
(512,660,l),
(472,660,l),
(472,66,l),
(94,660,l),
(53,660,l),
(53,0,l)
);
}
);
width = 565;
},
{
anchors = (
{
name = bottom;
pos = (321,0);
},
{
name = top;
pos = (321,660);
}
);
layerId = "6DD95C5A-998B-41AB-BDFB-84A73C209871";
shapes = (
{
closed = 1;
nodes = (
(192,0,l),
(192,411,l),
(450,0,l),
(593,0,l),
(593,660,l),
(448,660,l),
(448,256,l),
(192,660,l),
(47,660,l),
(47,0,l)
);
}
);
width = 640;
},
{
anchors = (
{
name = bottom;
pos = (277,0);
},
{
name = top;
pos = (277,660);
}
);
layerId = "1FDC7037-1F88-4969-8535-0F79C1EF19DB";
shapes = (
{
closed = 1;
nodes = (
(77,0,l),
(77,618,l),
(472,0,l),
(499,0,l),
(499,660,l),
(475,660,l),
(475,35,l),
(78,660,l),
(54,660,l),
(54,0,l)
);
}
);
width = 553;
},
{
anchors = (
{
name = bottom;
pos = (330,0);
},
{
name = top;
pos = (330,660);
}
);
layerId = "3ED9E848-BE83-4CAC-8EFF-D71BD2B4F667";
shapes = (
{
closed = 1;
nodes = (
(217,0,l),
(217,368,l),
(445,0,l),
(613,0,l),
(613,660,l),
(442,660,l),
(442,304,l),
(217,660,l),
(46,660,l),
(46,0,l)
);
}
);
width = 659;
}
);
note = N;
unicode = 78;
},
{
glyphname = Nhookleft;
lastChange = "2023-10-27 15:22:10 +0000";
layers = (
{
layerId = "F5467FAD-1970-4982-B3D3-939C01050498";
shapes = (
{
closed = 1;
nodes = (
(53,0,l),
(53,-118,ls),
(53,-150,o),
(39,-157,o),
(24,-157,cs),
(3,-157,o),
(-24,-148,o),
(-48,-127,c),
(-52,-159,l),
(-38,-174,o),
(-8,-191,o),
(24,-191,cs),
(79,-191,o),
(93,-150,o),
(93,-118,cs),
(93,0,l)
);
},
{
ref = N;
}
);
width = 566;
},
{
layerId = "6DD95C5A-998B-41AB-BDFB-84A73C209871";
shapes = (
{
closed = 1;
nodes = (
(47,0,l),
(47,-61,ls),
(47,-93,o),
(34,-100,o),
(19,-100,cs),
(-2,-100,o),
(-28,-91,o),
(-53,-71,c),
(-53,-159,l),
(-29,-174,o),
(4,-191,o),
(55,-191,cs),
(124,-191,o),
(192,-150,o),
(192,-61,cs),
(192,0,l)
);
},
{
ref = N;
}
);
width = 640;
},
{
layerId = "1FDC7037-1F88-4969-8535-0F79C1EF19DB";
shapes = (
{
closed = 1;
nodes = (
(54,0,l),
(54,-127,ls),
(54,-159,o),
(40,-166,o),
(25,-166,cs),
(4,-166,o),
(-23,-157,o),
(-47,-137,c),
(-52,-159,l),
(-39,-174,o),
(-9,-191,o),
(19,-191,cs),
(72,-191,o),
(77,-150,o),
(77,-127,cs),
(77,0,l)
);
},
{
ref = N;
}
);
width = 554;
},
{
layerId = "3ED9E848-BE83-4CAC-8EFF-D71BD2B4F667";
shapes = (
{
closed = 1;
nodes = (
(46,0,l),
(46,-47,ls),
(46,-79,o),
(33,-86,o),
(18,-86,cs),
(-3,-86,o),
(-29,-77,o),
(-54,-57,c),
(-53,-159,l),
(-27,-174,o),
(7,-191,o),
(62,-191,cs),
(135,-191,o),
(217,-150,o),
(217,-47,cs),
(217,0,l)
);
},
{
ref = N;
}
);
width = 659;
}
);
unicode = 413;
},
{
glyphname = Eng;
lastChange = "2023-10-27 15:22:10 +0000";
layers = (
{
layerId = "F5467FAD-1970-4982-B3D3-939C01050498";
shapes = (
{
closed = 1;
nodes = (
(470,0,l),
(470,-118,ls),
(470,-143,o),
(459,-157,o),
(426,-157,cs),
(405,-157,o),
(386,-148,o),
(361,-127,c),
(357,-159,l),
(375,-174,o),
(402,-191,o),
(433,-191,cs),
(488,-191,o),
(512,-159,o),
(512,-118,cs),
(512,0,l)
);
},
{
ref = N;
}
);
width = 565;
},
{
layerId = "6DD95C5A-998B-41AB-BDFB-84A73C209871";
shapes = (
{
closed = 1;
nodes = (
(450,0,l),
(450,-61,ls),
(450,-93,o),
(435,-100,o),
(420,-100,cs),
(399,-100,o),
(372,-91,o),
(348,-71,c),
(348,-159,l),
(372,-174,o),
(405,-191,o),
(455,-191,cs),
(524,-191,o),
(593,-150,o),
(593,-61,cs),
(593,0,l)
);
},
{
ref = N;
}
);
width = 640;
},
{
layerId = "1FDC7037-1F88-4969-8535-0F79C1EF19DB";
shapes = (
{
closed = 1;
nodes = (
(472,0,l),
(472,-127,ls),
(472,-151,o),
(463,-166,o),
(427,-166,cs),
(406,-166,o),
(388,-157,o),
(363,-137,c),
(359,-159,l),
(376,-174,o),
(402,-191,o),
(429,-191,cs),
(483,-191,o),
(499,-161,o),
(499,-127,cs),
(499,0,l)
);
},
{
ref = N;
}
);
width = 553;
},
{
layerId = "3ED9E848-BE83-4CAC-8EFF-D71BD2B4F667";
shapes = (
{
closed = 1;
nodes = (
(445,0,l),
(445,-47,ls),
(445,-81,o),
(429,-86,o),
(418,-86,cs),
(397,-86,o),
(370,-77,o),
(345,-57,c),
(346,-159,l),
(371,-174,o),
(405,-191,o),
(461,-191,cs),
(533,-191,o),
(613,-147,o),
(613,-47,cs),
(613,0,l)
);
},
{
ref = N;
}
);
width = 659;
}
);
unicode = 330;
},
{
glyphname = O;
kernLeft = C;
kernRight = O;
lastChange = "2023-10-27 15:22:10 +0000";
layers = (
{
anchors = (
{
name = bottom;
pos = (390,0);
},
{
name = ogonek;
pos = (358,0);
},
{
name = top;
pos = (357,660);
}
);
layerId = "F5467FAD-1970-4982-B3D3-939C01050498";
shapes = (
{
closed = 1;
nodes = (
(556,-5,o),
(687,142,o),
(687,328,cs),
(687,515,o),
(556,665,o),
(357,665,cs),
(158,665,o),
(28,515,o),
(28,328,cs),
(28,143,o),
(159,-5,o),
(357,-5,cs)
);
},
{
closed = 1;
nodes = (
(184,25,o),
(69,155,o),
(69,328,cs),
(69,503,o),
(185,636,o),
(357,636,cs),
(531,636,o),
(646,503,o),
(646,328,cs),
(646,155,o),
(531,25,o),
(357,25,cs)
);
}
);
width = 715;
},
{
anchors = (
{
name = bottom;
pos = (390,0);
},
{
name = ogonek;
pos = (358,0);
},
{
name = top;
pos = (390,660);
}
);
layerId = "6DD95C5A-998B-41AB-BDFB-84A73C209871";
shapes = (
{
closed = 1;
nodes = (
(598,-5,o),
(734,151,o),
(734,328,cs),
(734,507,o),
(598,665,o),
(390,665,cs),
(183,665,o),
(47,507,o),
(47,328,cs),
(47,151,o),
(184,-5,o),
(390,-5,cs)
);
},
{
closed = 1;
nodes = (
(273,104,o),
(192,194,o),
(192,328,cs),
(192,464,o),
(273,556,o),
(390,556,cs),
(508,556,o),
(588,464,o),
(588,328,cs),
(588,194,o),
(508,104,o),
(390,104,cs)
);
}
);
width = 781;
},
{
anchors = (
{
name = bottom;
pos = (390,0);
},
{
name = ogonek;
pos = (358,0);
},
{
name = top;
pos = (352,660);
}
);
layerId = "1FDC7037-1F88-4969-8535-0F79C1EF19DB";
shapes = (
{
closed = 1;
nodes = (
(550,-5,o),
(679,141,o),
(679,328,cs),
(679,516,o),
(550,665,o),
(352,665,cs),
(155,665,o),
(25,516,o),
(25,328,cs),
(25,142,o),
(156,-5,o),
(352,-5,cs)
);
},
{
closed = 1;
nodes = (
(170,12,o),
(49,148,o),
(49,328,cs),
(49,509,o),
(171,648,o),
(352,648,cs),
(535,648,o),
(655,509,o),
(655,328,cs),
(655,148,o),
(535,12,o),
(352,12,cs)
);
}
);
width = 704;
},
{
anchors = (
{
name = bottom;
pos = (390,0);
},
{
name = ogonek;
pos = (358,0);
},
{
name = top;
pos = (399,660);
}
);
layerId = "3ED9E848-BE83-4CAC-8EFF-D71BD2B4F667";
shapes = (
{
closed = 1;
nodes = (
(608,-5,o),
(745,153,o),
(745,328,cs),
(745,505,o),
(608,665,o),
(399,665,cs),
(189,665,o),
(52,505,o),
(52,328,cs),
(52,153,o),
(190,-5,o),
(399,-5,cs)
);
},
{
closed = 1;
nodes = (
(294,124,o),
(223,204,o),
(223,328,cs),
(223,455,o),
(295,537,o),
(399,537,cs),
(503,537,o),
(574,455,o),
(574,328,cs),
(574,204,o),
(503,124,o),
(399,124,cs)
);
}
);
width = 797;
}
);
note = O;
unicode = 79;
},
{
glyphname = Oslash;
kernLeft = C;
kernRight = O;
lastChange = "2023-10-27 15:22:10 +0000";
layers = (
{
layerId = "F5467FAD-1970-4982-B3D3-939C01050498";
shapes = (
{
closed = 1;
nodes = (
(222,-70,l),
(255,-70,l),
(494,740,l),
(461,740,l)
);
},
{
ref = O;
}
);
width = 715;
},
{
layerId = "6DD95C5A-998B-41AB-BDFB-84A73C209871";
shapes = (
{
closed = 1;
nodes = (
(217,-60,l),
(330,-60,l),
(565,731,l),
(452,731,l)
);
},
{
ref = O;
}
);
width = 781;
},
{
layerId = "1FDC7037-1F88-4969-8535-0F79C1EF19DB";
shapes = (
{
closed = 1;
nodes = (
(223,-72,l),
(242,-72,l),
(483,742,l),
(463,742,l)
);
},
{
ref = O;
}
);
width = 704;
},
{
layerId = "3ED9E848-BE83-4CAC-8EFF-D71BD2B4F667";
shapes = (
{
closed = 1;
nodes = (
(216,-58,l),
(349,-58,l),
(582,729,l),
(450,729,l)
);
},
{
ref = O;
}
);
width = 797;
}
);
note = Oslash;
unicode = 216;
},
{
glyphname = OE;
kernLeft = C;
kernRight = E;
lastChange = "2023-10-27 15:22:10 +0000";
layers = (
{
layerId = "F5467FAD-1970-4982-B3D3-939C01050498";
shapes = (
{
closed = 1;
nodes = (
(422,-5,o),
(495,23,o),
(550,69,c),
(550,0,l),
(1047,0,l),
(1047,28,l),
(589,28,l),
(589,319,l),
(1026,319,l),
(1026,349,l),
(589,349,l),
(589,631,l),
(1036,631,l),
(1036,660,l),
(550,660,l),
(550,589,l),
(495,637,o),
(422,665,o),
(336,665,cs),
(137,665,o),
(8,515,o),
(8,328,cs),
(8,143,o),
(138,-5,o),
(336,-5,cs)
);
},
{
closed = 1;
nodes = (
(162,25,o),
(47,155,o),
(47,328,cs),
(47,503,o),
(163,636,o),
(336,636,cs),
(442,636,o),
(512,606,o),
(550,530,c),
(550,132,l),
(512,56,o),
(442,25,o),
(336,25,cs)
);
}
);
width = 1091;
},
{
layerId = "6DD95C5A-998B-41AB-BDFB-84A73C209871";
shapes = (
{
closed = 1;
nodes = (
(429,-5,o),
(491,12,o),
(541,41,c),
(541,0,l),
(1087,0,l),
(1087,117,l),
(687,117,l),
(687,279,l),
(1068,279,l),
(1068,396,l),
(687,396,l),
(687,543,l),
(1078,543,l),
(1078,660,l),
(541,660,l),
(541,620,l),
(491,648,o),
(429,665,o),
(362,665,cs),
(155,665,o),
(19,507,o),
(19,328,cs),
(19,151,o),
(157,-5,o),
(362,-5,cs)
);
},
{
closed = 1;
nodes = (
(244,104,o),
(164,194,o),
(164,328,cs),
(164,464,o),
(245,556,o),
(362,556,cs),
(446,556,o),
(511,509,o),
(541,433,c),
(541,224,l),
(511,150,o),
(446,104,o),
(362,104,cs)
);
}
);
width = 1091;
},
{
layerId = "1FDC7037-1F88-4969-8535-0F79C1EF19DB";
shapes = (
{
closed = 1;
nodes = (
(421,-5,o),
(495,25,o),
(551,74,c),
(551,0,l),
(1040,0,l),
(1040,14,l),
(574,14,l),
(574,325,l),
(1019,325,l),
(1019,341,l),
(574,341,l),
(574,645,l),
(1030,645,l),
(1030,660,l),
(551,660,l),
(551,586,l),
(495,635,o),
(421,665,o),
(332,665,cs),
(134,665,o),
(6,516,o),
(6,328,cs),
(6,142,o),
(135,-5,o),
(332,-5,cs)
);
},
{
closed = 1;
nodes = (
(149,12,o),
(28,148,o),
(28,328,cs),
(28,509,o),
(150,648,o),
(332,648,cs),
(441,648,o),
(512,621,o),
(551,545,c),
(551,117,l),
(512,41,o),
(441,12,o),
(332,12,cs)
);
}
);
width = 1091;
},
{
layerId = "3ED9E848-BE83-4CAC-8EFF-D71BD2B4F667";
shapes = (
{
closed = 1;
nodes = (
(431,-5,o),
(490,10,o),
(539,33,c),
(539,0,l),
(1098,0,l),
(1098,139,l),
(710,139,l),
(710,270,l),
(1079,270,l),
(1079,407,l),
(710,407,l),
(710,521,l),
(1088,521,l),
(1088,660,l),
(539,660,l),
(539,626,l),
(490,650,o),
(431,665,o),
(369,665,cs),
(159,665,o),
(22,505,o),
(22,328,cs),
(22,153,o),
(161,-5,o),
(369,-5,cs)
);
},
{
closed = 1;
nodes = (
(264,124,o),
(193,204,o),
(193,328,cs),
(193,455,o),
(265,537,o),
(369,537,cs),
(447,537,o),
(511,486,o),
(539,409,c),
(539,247,l),
(511,173,o),
(447,124,o),
(369,124,cs)
);
}
);
width = 1091;
}
);
note = OE;
unicode = 338;
},
{
glyphname = P;
kernLeft = B;
kernRight = P;
lastChange = "2023-10-27 15:22:10 +0000";
layers = (
{
layerId = "F5467FAD-1970-4982-B3D3-939C01050498";
shapes = (
{
closed = 1;
nodes = (
(87,0,l),
(87,321,l),
(218,321,ls),
(322,321,o),
(414,361,o),
(414,490,cs),
(414,618,o),
(316,660,o),
(223,660,cs),
(47,660,l),
(47,0,l)
);
},
{
closed = 1;
nodes = (
(87,631,l),
(221,631,ls),
(308,631,o),
(374,586,o),
(374,490,cs),
(374,396,o),
(311,347,o),
(218,347,cs),
(87,347,l)
);
}
);
width = 452;
},
{
layerId = "6DD95C5A-998B-41AB-BDFB-84A73C209871";
shapes = (
{
closed = 1;
nodes = (
(192,0,l),
(192,280,l),
(280,280,ls),
(389,280,o),
(508,329,o),
(508,471,cs),
(508,610,o),
(384,660,o),
(286,660,cs),
(47,660,l),
(47,0,l)
);
},
{
closed = 1;
nodes = (
(192,552,l),
(283,552,ls),
(334,552,o),
(372,531,o),
(372,471,cs),
(372,409,o),
(334,386,o),
(280,386,cs),
(192,386,l)
);
}
);
width = 546;
},
{
layerId = "1FDC7037-1F88-4969-8535-0F79C1EF19DB";
shapes = (
{
closed = 1;
nodes = (
(70,0,l),
(70,327,l),
(207,327,ls),
(311,327,o),
(399,366,o),
(399,493,cs),
(399,619,o),
(305,660,o),
(213,660,cs),
(47,660,l),
(47,0,l)
);
},
{
closed = 1;
nodes = (
(70,643,l),
(210,643,ls),
(305,643,o),
(374,594,o),
(374,493,cs),
(374,394,o),
(307,340,o),
(207,340,cs),
(70,340,l)
);
}
);
width = 437;
},
{
layerId = "3ED9E848-BE83-4CAC-8EFF-D71BD2B4F667";
shapes = (
{
closed = 1;
nodes = (
(219,0,l),
(219,270,l),
(295,270,ls),
(405,270,o),
(532,322,o),
(532,466,cs),
(532,608,o),
(401,660,o),
(301,660,cs),
(47,660,l),
(47,0,l)
);
},
{
closed = 1;
nodes = (
(219,532,l),
(298,532,ls),
(340,532,o),
(372,518,o),
(372,466,cs),
(372,412,o),
(339,395,o),
(295,395,cs),
(219,395,l)
);
}
);
width = 569;
}
);
note = P;
unicode = 80;
},
{
glyphname = Thorn;
lastChange = "2023-10-27 15:22:10 +0000";
layers = (
{
layerId = "F5467FAD-1970-4982-B3D3-939C01050498";
shapes = (
{
closed = 1;
nodes = (
(128,0,l),
(128,208,l),
(273,208,ls),
(375,208,o),
(470,253,o),
(470,382,cs),
(470,509,o),
(371,552,o),
(278,552,cs),
(128,552,l),
(128,660,l),
(88,660,l),
(88,0,l)
);
},
{
closed = 1;
nodes = (
(128,522,l),
(275,522,ls),
(363,522,o),
(429,478,o),
(429,382,cs),
(429,289,o),
(366,239,o),
(273,239,cs),
(128,239,l)
);
}
);
width = 501;
},
{
layerId = "6DD95C5A-998B-41AB-BDFB-84A73C209871";
shapes = (
{
closed = 1;
nodes = (
(175,0,l),
(175,182,l),
(272,182,ls),
(380,182,o),
(499,235,o),
(499,376,cs),
(499,515,o),
(374,566,o),
(277,566,cs),
(175,566,l),
(175,660,l),
(30,660,l),
(30,0,l)
);
},
{
closed = 1;
nodes = (
(175,457,l),
(274,457,ls),
(324,457,o),
(354,437,o),
(354,376,cs),
(354,315,o),
(324,291,o),
(272,291,cs),
(175,291,l)
);
}
);
width = 501;
},
{
layerId = "1FDC7037-1F88-4969-8535-0F79C1EF19DB";
shapes = (
{
closed = 1;
nodes = (
(121,0,l),
(121,212,l),
(273,212,ls),
(374,212,o),
(465,256,o),
(465,383,cs),
(465,508,o),
(370,550,o),
(278,550,cs),
(121,550,l),
(121,660,l),
(97,660,l),
(97,0,l)
);
},
{
closed = 1;
nodes = (
(121,533,l),
(275,533,ls),
(370,533,o),
(441,485,o),
(441,383,cs),
(441,285,o),
(372,230,o),
(273,230,cs),
(121,230,l)
);
}
);
width = 501;
},
{
layerId = "3ED9E848-BE83-4CAC-8EFF-D71BD2B4F667";
shapes = (
{
closed = 1;
nodes = (
(187,0,l),
(187,175,l),
(272,175,ls),
(381,175,o),
(506,230,o),
(506,375,cs),
(506,516,o),
(375,570,o),
(277,570,cs),
(187,570,l),
(187,660,l),
(16,660,l),
(16,0,l)
);
},
{
closed = 1;
nodes = (
(187,441,l),
(274,441,ls),
(315,441,o),
(335,426,o),
(335,375,cs),
(335,322,o),
(314,305,o),
(272,305,cs),
(187,305,l)
);
}
);
width = 501;
}
);
note = Thorn;
unicode = 222;
},
{
glyphname = Q;
kernLeft = C;
kernRight = Q;
lastChange = "2023-10-27 15:22:10 +0000";
layers = (
{
layerId = "F5467FAD-1970-4982-B3D3-939C01050498";
shapes = (
{
closed = 1;
nodes = (
(429,-5,o),
(500,23,o),
(554,69,c),
(627,0,l),
(673,0,l),
(575,90,l),
(633,150,o),
(666,234,o),
(666,328,cs),
(666,515,o),
(536,665,o),
(348,665,cs),
(159,665,o),
(29,515,o),
(29,328,cs),
(29,143,o),
(160,-5,o),
(348,-5,cs)
);
},
{
closed = 1;
nodes = (
(185,25,o),
(69,155,o),
(69,328,cs),
(69,503,o),
(186,636,o),
(348,636,cs),
(511,636,o),
(626,503,o),
(626,328,cs),
(626,242,o),
(598,168,o),
(550,113,c),
(405,247,l),
(362,247,l),
(529,91,l),
(481,50,o),
(419,25,o),
(348,25,cs)
);
}
);
width = 728;
},
{
layerId = "6DD95C5A-998B-41AB-BDFB-84A73C209871";
shapes = (
{
closed = 1;
nodes = (
(447,-5,o),
(505,12,o),
(554,41,c),
(600,0,l),
(782,0,l),
(647,124,l),
(690,181,o),
(715,253,o),
(715,328,cs),
(715,507,o),
(579,665,o),
(381,665,cs),
(183,665,o),
(47,507,o),
(47,328,cs),
(47,151,o),
(184,-5,o),
(381,-5,cs)
);
},
{
closed = 1;
nodes = (
(273,104,o),
(192,194,o),
(192,328,cs),
(192,464,o),
(273,556,o),
(381,556,cs),
(489,556,o),
(570,464,o),
(570,328,cs),
(570,286,o),
(561,248,o),
(547,216,c),
(456,299,l),
(279,299,l),
(466,124,l),
(440,111,o),
(412,104,o),
(381,104,cs)
);
}
);
width = 788;
},
{
layerId = "1FDC7037-1F88-4969-8535-0F79C1EF19DB";
shapes = (
{
closed = 1;
nodes = (
(426,-5,o),
(499,25,o),
(554,74,c),
(632,0,l),
(656,0,l),
(564,84,l),
(623,145,o),
(658,231,o),
(658,328,cs),
(658,516,o),
(529,665,o),
(342,665,cs),
(156,665,o),
(26,516,o),
(26,328,cs),
(26,142,o),
(157,-5,o),
(342,-5,cs)
);
},
{
closed = 1;
nodes = (
(171,12,o),
(49,148,o),
(49,328,cs),
(49,509,o),
(172,648,o),
(342,648,cs),
(515,648,o),
(636,509,o),
(636,328,cs),
(636,236,o),
(604,155,o),
(551,97,c),
(396,239,l),
(375,239,l),
(538,87,l),
(488,40,o),
(420,12,o),
(342,12,cs)
);
}
);
width = 719;
},
{
layerId = "3ED9E848-BE83-4CAC-8EFF-D71BD2B4F667";
shapes = (
{
closed = 1;
nodes = (
(452,-5,o),
(506,9,o),
(554,35,c),
(593,0,l),
(808,0,l),
(665,133,l),
(704,189,o),
(727,257,o),
(727,328,cs),
(727,505,o),
(589,665,o),
(389,665,cs),
(189,665,o),
(52,505,o),
(52,328,cs),
(52,153,o),
(190,-5,o),
(389,-5,cs)
);
},
{
closed = 1;
nodes = (
(294,124,o),
(223,204,o),
(223,328,cs),
(223,455,o),
(295,537,o),
(389,537,cs),
(484,537,o),
(555,455,o),
(555,328,cs),
(555,296,o),
(552,268,o),
(546,241,c),
(470,312,l),
(258,312,l),
(451,132,l),
(430,126,o),
(410,124,o),
(389,124,cs)
);
}
);
width = 803;
}
);
note = Q;
unicode = 81;
},
{
glyphname = R;
kernLeft = B;
kernRight = R;
lastChange = "2023-10-27 15:22:10 +0000";
layers = (
{
anchors = (
{
name = bottom;
pos = (262,0);
},
{
name = top;
pos = (234,660);
}
);
layerId = "F5467FAD-1970-4982-B3D3-939C01050498";
shapes = (
{
closed = 1;
nodes = (
(93,0,l),
(93,367,l),
(220,368,ls),
(226,368,o),
(232,368,o),
(239,369,c),
(481,0,l),
(528,0,l),
(284,372,l),
(357,386,o),
(410,426,o),
(410,521,cs),
(410,627,o),
(330,660,o),
(227,660,cs),
(53,660,l),
(53,0,l)
);
},
{
closed = 1;
nodes = (
(93,631,l),
(227,631,l),
(318,631,o),
(371,585,o),
(371,511,cs),
(371,438,o),
(320,389,o),
(223,389,cs),
(93,389,l)
);
}
);
width = 538;
},
{
anchors = (
{
name = bottom;
pos = (340,0);
},
{
name = top;
pos = (290,660);
}
);
layerId = "6DD95C5A-998B-41AB-BDFB-84A73C209871";
shapes = (
{
closed = 1;
nodes = (
(192,0,l),
(192,298,l),
(273,298,ls),
(276,298,o),
(279,298,o),
(282,298,c),
(471,0,l),
(634,0,l),
(423,333,l),
(473,361,o),
(508,408,o),
(508,479,cs),
(508,610,o),
(389,660,o),
(273,660,cs),
(47,660,l),
(47,0,l)
);
},
{
closed = 1;
nodes = (
(192,552,l),
(273,552,ls),
(332,552,o),
(363,532,o),
(363,479,cs),
(363,426,o),
(332,406,o),
(273,406,cs),
(192,406,l)
);
}
);
width = 643;
},
{
anchors = (
{
name = bottom;
pos = (250,0);
},
{
name = top;
pos = (224,660);
}
);
layerId = "1FDC7037-1F88-4969-8535-0F79C1EF19DB";
shapes = (
{
closed = 1;
nodes = (
(77,0,l),
(77,378,l),
(211,379,ls),
(219,379,o),
(224,379,o),
(231,379,c),
(483,0,l),
(511,0,l),
(261,379,l),
(339,389,o),
(394,429,o),
(394,528,cs),
(394,630,o),
(321,660,o),
(220,660,cs),
(54,660,l),
(54,0,l)
);
},
{
closed = 1;
nodes = (
(77,643,l),
(220,643,l),
(316,643,o),
(372,593,o),
(372,516,cs),
(372,440,o),
(318,386,o),
(216,386,cs),
(77,386,l)
);
}
);
width = 521;
},
{
anchors = (
{
name = bottom;
pos = (359,0);
},
{
name = top;
pos = (305,660);
}
);
layerId = "3ED9E848-BE83-4CAC-8EFF-D71BD2B4F667";
shapes = (
{
closed = 1;
nodes = (
(217,0,l),
(217,281,l),
(287,281,ls),
(289,281,o),
(290,281,o),
(292,281,c),
(468,0,l),
(660,0,l),
(457,323,l),
(502,355,o),
(533,404,o),
(533,469,cs),
(533,606,o),
(404,660,o),
(285,660,cs),
(46,660,l),
(46,0,l)
);
},
{
closed = 1;
nodes = (
(217,532,l),
(285,532,l),
(336,532,o),
(361,519,o),
(361,472,cs),
(361,423,o),
(335,411,o),
(286,411,cs),
(217,411,l)
);
}
);
width = 669;
}
);
note = R;
unicode = 82;
},
{
glyphname = S;
kernLeft = S;
kernRight = S;
lastChange = "2023-10-27 15:22:10 +0000";
layers = (
{
anchors = (
{
name = bottom;
pos = (288,0);
},
{
name = top;
pos = (289,660);
}
);
layerId = "F5467FAD-1970-4982-B3D3-939C01050498";
shapes = (
{
closed = 1;
nodes = (
(449,-7,o),
(518,69,o),
(518,170,cs),
(518,284,o),
(426,313,o),
(286,360,cs),
(150,405,o),
(124,445,o),
(124,513,cs),
(124,587,o),
(172,644,o),
(282,644,cs),
(356,644,o),
(412,614,o),
(431,559,c),
(471,570,l),
(444,635,o),
(371,668,o),
(282,668,cs),
(146,668,o),
(82,600,o),
(82,513,cs),
(82,425,o),
(145,377,o),
(275,335,cs),
(425,286,o),
(474,264,o),
(474,170,cs),
(474,80,o),
(416,19,o),
(287,19,cs),
(159,19,o),
(94,78,o),
(65,162,c),
(28,143,l),
(69,54,o),
(146,-7,o),
(287,-7,cs)
);
}
);
width = 546;
},
{
anchors = (
{
name = bottom;
pos = (303,0);
},
{
name = top;
pos = (304,660);
}
);
layerId = "6DD95C5A-998B-41AB-BDFB-84A73C209871";
shapes = (
{
closed = 1;
nodes = (
(467,-8,o),
(553,75,o),
(553,198,cs),
(553,323,o),
(400,369,o),
(319,399,cs),
(243,427,o),
(208,449,o),
(208,491,cs),
(208,536,o),
(247,565,o),
(298,565,cs),
(359,565,o),
(387,538,o),
(393,479,c),
(526,513,l),
(516,612,o),
(409,669,o),
(298,669,cs),
(168,669,o),
(67,604,o),
(67,491,cs),
(67,387,o),
(144,342,o),
(276,297,cs),
(356,270,o),
(412,250,o),
(412,189,cs),
(412,136,o),
(371,105,o),
(303,105,cs),
(209,105,o),
(162,152,o),
(129,243,c),
(11,184,l),
(45,79,o),
(136,-8,o),
(303,-8,cs)
);
}
);
width = 577;
},
{
anchors = (
{
name = bottom;
pos = (285,0);
},
{
name = top;
pos = (286,660);
}
);
layerId = "1FDC7037-1F88-4969-8535-0F79C1EF19DB";
shapes = (
{
closed = 1;
nodes = (
(446,-7,o),
(512,68,o),
(512,165,cs),
(512,277,o),
(430,305,o),
(280,354,cs),
(135,402,o),
(110,444,o),
(110,517,cs),
(110,596,o),
(159,656,o),
(279,656,cs),
(356,656,o),
(416,626,o),
(437,572,c),
(462,579,l),
(433,638,o),
(364,668,o),
(279,668,cs),
(142,668,o),
(85,599,o),
(85,517,cs),
(85,432,o),
(145,383,o),
(275,340,cs),
(437,289,o),
(485,266,o),
(485,167,cs),
(485,72,o),
(423,5,o),
(284,5,cs),
(152,5,o),
(83,67,o),
(55,149,c),
(31,137,l),
(73,50,o),
(148,-7,o),
(284,-7,cs)
);
}
);
width = 541;
},
{
anchors = (
{
name = bottom;
pos = (306,0);
},
{
name = top;
pos = (307,660);
}
);
layerId = "3ED9E848-BE83-4CAC-8EFF-D71BD2B4F667";
shapes = (
{
closed = 1;
nodes = (
(472,-8,o),
(561,77,o),
(561,205,cs),
(561,332,o),
(393,382,o),
(327,408,cs),
(266,433,o),
(229,450,o),
(229,486,cs),
(229,522,o),
(266,545,o),
(302,545,cs),
(360,545,o),
(380,520,o),
(384,459,c),
(539,499,l),
(534,606,o),
(419,669,o),
(302,669,cs),
(174,669,o),
(63,605,o),
(63,486,cs),
(63,377,o),
(144,334,o),
(276,288,cs),
(339,266,o),
(397,246,o),
(397,193,cs),
(397,149,o),
(359,125,o),
(306,125,cs),
(222,125,o),
(179,170,o),
(145,263,c),
(8,194,l),
(40,86,o),
(133,-8,o),
(306,-8,cs)
);
}
);
width = 585;
}
);
note = S;
unicode = 83;
},
{
glyphname = Germandbls;
lastChange = "2023-10-27 15:22:10 +0000";
layers = (
{
layerId = "F5467FAD-1970-4982-B3D3-939C01050498";
shapes = (
{
closed = 1;
nodes = (
(466,-9,o),
(569,64,o),
(569,190,cs),
(569,335,o),
(474,398,o),
(358,398,cs),
(352,398,o),
(345,397,o),
(338,397,c),
(555,633,l),
(555,660,l),
(47,660,l),
(47,0,l),
(89,0,l),
(89,633,l),
(513,633,l),
(290,388,l),
(315,362,l),
(330,366,o),
(344,367,o),
(361,367,cs),
(457,367,o),
(530,301,o),
(530,190,cs),
(530,77,o),
(445,12,o),
(351,12,cs),
(256,12,o),
(187,56,o),
(174,154,c),
(134,154,l),
(150,42,o),
(236,-9,o),
(351,-9,cs)
);
}
);
width = 616;
},
{
layerId = "6DD95C5A-998B-41AB-BDFB-84A73C209871";
shapes = (
{
closed = 1;
nodes = (
(596,-9,o),
(717,75,o),
(717,207,cs),
(717,308,o),
(653,376,o),
(570,400,cs),
(562,403,o),
(554,404,o),
(547,405,c),
(705,568,l),
(705,660,l),
(47,660,l),
(47,0,l),
(190,0,l),
(190,558,l),
(521,558,l),
(356,381,l),
(417,307,l),
(452,318,o),
(460,321,o),
(480,321,cs),
(533,321,o),
(572,284,o),
(572,207,cs),
(572,129,o),
(525,92,o),
(471,92,cs),
(404,92,o),
(365,123,o),
(368,216,c),
(223,216,l),
(219,67,o),
(331,-9,o),
(471,-9,cs)
);
}
);
width = 764;
},
{
layerId = "1FDC7037-1F88-4969-8535-0F79C1EF19DB";
shapes = (
{
closed = 1;
nodes = (
(445,-9,o),
(545,62,o),
(545,188,cs),
(545,339,o),
(446,402,o),
(324,398,cs),
(318,397,o),
(311,396,o),
(304,396,c),
(532,643,l),
(532,660,l),
(47,660,l),
(47,0,l),
(73,0,l),
(73,645,l),
(512,645,l),
(279,389,l),
(299,371,l),
(310,373,o),
(325,374,o),
(342,374,cs),
(445,374,o),
(523,304,o),
(523,188,cs),
(523,69,o),
(432,-1,o),
(332,-1,cs),
(233,-1,o),
(158,45,o),
(142,143,c),
(120,143,l),
(139,39,o),
(221,-9,o),
(332,-9,cs)
);
}
);
width = 592;
},
{
layerId = "3ED9E848-BE83-4CAC-8EFF-D71BD2B4F667";
shapes = (
{
closed = 1;
nodes = (
(628,-9,o),
(753,78,o),
(753,211,cs),
(753,302,o),
(698,371,o),
(621,400,cs),
(614,404,o),
(606,405,o),
(599,407,c),
(742,552,l),
(742,660,l),
(47,660,l),
(47,0,l),
(216,0,l),
(216,540,l),
(522,540,l),
(372,379,l),
(442,294,l),
(482,306,o),
(488,309,o),
(509,309,cs),
(552,309,o),
(583,280,o),
(583,211,cs),
(583,142,o),
(545,112,o),
(500,112,cs),
(439,112,o),
(408,139,o),
(416,231,c),
(245,231,l),
(236,73,o),
(355,-9,o),
(500,-9,cs)
);
}
);
width = 801;
}
);
unicode = 7838;
},
{
glyphname = T;
kernLeft = T;
kernRight = T;
lastChange = "2023-10-27 15:22:10 +0000";
layers = (
{
anchors = (
{
name = bottom;
pos = (314,0);
},
{
name = top;
pos = (315,660);
}
);
layerId = "F5467FAD-1970-4982-B3D3-939C01050498";
shapes = (
{
closed = 1;
nodes = (
(335,0,l),
(335,632,l),
(610,632,l),
(610,660,l),
(19,660,l),
(19,632,l),
(295,632,l),
(295,0,l)
);
}
);
width = 629;
},
{
anchors = (
{
name = bottom;
pos = (339,0);
},
{
name = top;
pos = (339,660);
}
);
layerId = "6DD95C5A-998B-41AB-BDFB-84A73C209871";
shapes = (
{
closed = 1;
nodes = (
(411,0,l),
(411,543,l),
(653,543,l),
(653,660,l),
(24,660,l),
(24,543,l),
(266,543,l),
(266,0,l)
);
}
);
width = 676;
},
{
anchors = (
{
name = bottom;
pos = (310,0);
},
{
name = top;
pos = (311,660);
}
);
layerId = "1FDC7037-1F88-4969-8535-0F79C1EF19DB";
shapes = (
{
closed = 1;
nodes = (
(323,0,l),
(323,646,l),
(604,646,l),
(604,660,l),
(18,660,l),
(18,646,l),
(300,646,l),
(300,0,l)
);
}
);
width = 621;
},
{
anchors = (
{
name = bottom;
pos = (344,0);
},
{
name = top;
pos = (345,660);
}
);
layerId = "3ED9E848-BE83-4CAC-8EFF-D71BD2B4F667";
shapes = (
{
closed = 1;
nodes = (
(430,0,l),
(430,521,l),
(663,521,l),
(663,660,l),
(25,660,l),
(25,521,l),
(258,521,l),
(258,0,l)
);
}
);
width = 687;
}
);
note = T;
unicode = 84;
},
{
glyphname = Tbar;
lastChange = "2023-10-27 15:22:10 +0000";
layers = (
{
layerId = "F5467FAD-1970-4982-B3D3-939C01050498";
shapes = (
{
closed = 1;
nodes = (
(524,410,l),
(105,410,l),
(105,371,l),
(524,371,l)
);
},
{
ref = T;
}
);
width = 629;
},
{
layerId = "6DD95C5A-998B-41AB-BDFB-84A73C209871";
shapes = (
{
closed = 1;
nodes = (
(592,398,l),
(80,398,l),
(80,280,l),
(592,280,l)
);
},
{
pos = (-2,0);
ref = T;
}
);
width = 676;
},
{
layerId = "1FDC7037-1F88-4969-8535-0F79C1EF19DB";
shapes = (
{
closed = 1;
nodes = (
(513,412,l),
(108,412,l),
(108,385,l),
(513,385,l)
);
},
{
ref = T;
}
);
width = 621;
},
{
layerId = "3ED9E848-BE83-4CAC-8EFF-D71BD2B4F667";
shapes = (
{
closed = 1;
nodes = (
(609,395,l),
(74,395,l),
(74,257,l),
(609,257,l)
);
},
{
pos = (-2,0);
ref = T;
}
);
width = 687;
}
);
unicode = 358;
},
{
glyphname = U;
kernLeft = U;
kernRight = U;
lastChange = "2023-10-27 15:22:10 +0000";
layers = (
{
anchors = (
{
name = bottom;
pos = (293,0);
},
{
name = ogonek;
pos = (322,0);
},
{
name = top;
pos = (293,660);
}
);
layerId = "F5467FAD-1970-4982-B3D3-939C01050498";
shapes = (
{
closed = 1;
nodes = (
(434,-11,o),
(530,55,o),
(530,200,c),
(529,660,l),
(489,660,l),
(489,200,ls),
(489,71,o),
(404,14,o),
(293,14,cs),
(183,14,o),
(97,71,o),
(97,200,cs),
(97,660,l),
(58,660,l),
(57,200,ls),
(57,55,o),
(153,-11,o),
(293,-11,cs)
);
}
);
width = 587;
},
{
anchors = (
{
name = bottom;
pos = (293,0);
},
{
name = ogonek;
pos = (322,0);
},
{
name = top;
pos = (293,660);
}
);
layerId = "6DD95C5A-998B-41AB-BDFB-84A73C209871";
shapes = (
{
closed = 1;
nodes = (
(442,-11,o),
(555,65,o),
(555,215,c),
(554,660,l),
(410,660,l),
(410,215,ls),
(410,125,o),
(364,94,o),
(293,94,cs),
(223,94,o),
(176,125,o),
(176,215,cs),
(176,660,l),
(32,660,l),
(31,215,ls),
(31,65,o),
(144,-11,o),
(293,-11,cs)
);
}
);
width = 587;
},
{
anchors = (
{
name = bottom;
pos = (293,0);
},
{
name = ogonek;
pos = (322,0);
},
{
name = top;
pos = (293,660);
}
);
layerId = "1FDC7037-1F88-4969-8535-0F79C1EF19DB";
shapes = (
{
closed = 1;
nodes = (
(433,-11,o),
(526,53,o),
(526,197,c),
(525,660,l),
(502,660,l),
(502,197,ls),
(502,62,o),
(410,1,o),
(293,1,cs),
(176,1,o),
(85,62,o),
(85,197,cs),
(85,660,l),
(61,660,l),
(60,197,ls),
(60,53,o),
(154,-11,o),
(293,-11,cs)
);
}
);
width = 587;
},
{
anchors = (
{
name = bottom;
pos = (293,0);
},
{
name = ogonek;
pos = (322,0);
},
{
name = top;
pos = (293,660);
}
);
layerId = "3ED9E848-BE83-4CAC-8EFF-D71BD2B4F667";
shapes = (
{
closed = 1;
nodes = (
(444,-11,o),
(562,68,o),
(562,219,c),
(561,660,l),
(390,660,l),
(390,219,ls),
(390,139,o),
(355,114,o),
(293,114,cs),
(232,114,o),
(196,139,o),
(196,219,cs),
(196,660,l),
(25,660,l),
(25,219,ls),
(25,68,o),
(142,-11,o),
(293,-11,cs)
);
}
);
width = 587;
}
);
note = U;
unicode = 85;
},
{
glyphname = V;
kernLeft = V;
kernRight = V;
lastChange = "2023-10-27 15:22:10 +0000";
layers = (
{
layerId = "F5467FAD-1970-4982-B3D3-939C01050498";
shapes = (
{
closed = 1;
nodes = (
(303,0,l),
(529,660,l),
(493,660,l),
(274,24,l),
(291,24,l),
(74,660,l),
(38,660,l),
(263,0,l)
);
}
);
width = 567;
},
{
layerId = "6DD95C5A-998B-41AB-BDFB-84A73C209871";
shapes = (
{
closed = 1;
nodes = (
(372,0,l),
(599,660,l),
(455,660,l),
(283,158,l),
(310,158,l),
(139,660,l),
(-6,660,l),
(220,0,l)
);
}
);
width = 593;
},
{
layerId = "1FDC7037-1F88-4969-8535-0F79C1EF19DB";
shapes = (
{
closed = 1;
nodes = (
(291,0,l),
(518,660,l),
(500,660,l),
(273,2,l),
(289,2,l),
(63,660,l),
(44,660,l),
(270,0,l)
);
}
);
width = 563;
},
{
layerId = "3ED9E848-BE83-4CAC-8EFF-D71BD2B4F667";
shapes = (
{
closed = 1;
nodes = (
(389,0,l),
(616,660,l),
(445,660,l),
(285,191,l),
(315,191,l),
(155,660,l),
(-16,660,l),
(209,0,l)
);
}
);
width = 600;
}
);
note = V;
unicode = 86;
},
{
glyphname = W;
kernLeft = W;
kernRight = W;
lastChange = "2023-10-27 15:22:10 +0000";
layers = (
{
anchors = (
{
name = bottom;
pos = (431,0);
},
{
name = top;
pos = (436,660);
}
);
layerId = "F5467FAD-1970-4982-B3D3-939C01050498";
shapes = (
{
closed = 1;
nodes = (
(265,0,l),
(454,660,l),
(418,660,l),
(242,44,l),
(248,44,l),
(74,660,l),
(38,660,l),
(225,0,l)
);
},
{
closed = 1;
nodes = (
(834,660,l),
(798,660,l),
(623,44,l),
(629,44,l),
(454,660,l),
(418,660,l),
(606,0,l),
(646,0,l)
);
}
);
width = 871;
},
{
anchors = (
{
name = bottom;
pos = (419,0);
},
{
name = top;
pos = (419,660);
}
);
layerId = "6DD95C5A-998B-41AB-BDFB-84A73C209871";
shapes = (
{
closed = 1;
nodes = (
(335,0,l),
(491,651,l),
(352,651,l),
(251,187,l),
(270,187,l),
(183,660,l),
(38,660,l),
(185,0,l)
);
},
{
closed = 1;
nodes = (
(805,660,l),
(660,660,l),
(573,187,l),
(592,187,l),
(491,651,l),
(352,651,l),
(508,0,l),
(658,0,l)
);
}
);
width = 843;
},
{
anchors = (
{
name = bottom;
pos = (433,0);
},
{
name = top;
pos = (438,660);
}
);
layerId = "1FDC7037-1F88-4969-8535-0F79C1EF19DB";
shapes = (
{
closed = 1;
nodes = (
(254,0,l),
(448,662,l),
(428,662,l),
(241,22,l),
(244,22,l),
(56,660,l),
(38,660,l),
(232,0,l)
);
},
{
closed = 1;
nodes = (
(838,660,l),
(819,660,l),
(631,22,l),
(635,22,l),
(448,662,l),
(428,662,l),
(622,0,l),
(644,0,l)
);
}
);
width = 876;
},
{
anchors = (
{
name = bottom;
pos = (416,0);
},
{
name = top;
pos = (415,660);
}
);
layerId = "3ED9E848-BE83-4CAC-8EFF-D71BD2B4F667";
shapes = (
{
closed = 1;
nodes = (
(352,0,l),
(501,649,l),
(336,649,l),
(253,222,l),
(275,222,l),
(210,660,l),
(38,660,l),
(174,0,l)
);
},
{
closed = 1;
nodes = (
(799,660,l),
(626,660,l),
(561,222,l),
(583,222,l),
(501,649,l),
(336,649,l),
(484,0,l),
(661,0,l)
);
}
);
width = 836;
}
);
note = W;
unicode = 87;
},
{
glyphname = X;
kernLeft = X;
kernRight = X;
lastChange = "2023-10-27 15:22:10 +0000";
layers = (
{
layerId = "F5467FAD-1970-4982-B3D3-939C01050498";
shapes = (
{
closed = 1;
nodes = (
(332,340,l),
(584,660,l),
(538,660,l),
(311,373,l)
);
},
{
closed = 1;
nodes = (
(296,364,l),
(9,0,l),
(56,0,l),
(317,330,l)
);
},
{
closed = 1;
nodes = (
(99,660,l),
(53,660,l),
(559,0,l),
(605,0,l)
);
}
);
width = 615;
},
{
layerId = "6DD95C5A-998B-41AB-BDFB-84A73C209871";
shapes = (
{
closed = 1;
nodes = (
(460,336,l),
(718,660,l),
(546,660,l),
(376,445,l)
);
},
{
closed = 1;
nodes = (
(298,366,l),
(9,0,l),
(181,0,l),
(381,255,l)
);
},
{
closed = 1;
nodes = (
(223,660,l),
(51,660,l),
(558,0,l),
(729,0,l)
);
}
);
width = 738;
},
{
layerId = "1FDC7037-1F88-4969-8535-0F79C1EF19DB";
shapes = (
{
closed = 1;
nodes = (
(311,341,l),
(562,660,l),
(537,660,l),
(301,362,l)
);
},
{
closed = 1;
nodes = (
(296,364,l),
(9,0,l),
(36,0,l),
(306,342,l)
);
},
{
closed = 1;
nodes = (
(79,660,l),
(53,660,l),
(559,0,l),
(586,0,l)
);
}
);
width = 595;
},
{
layerId = "3ED9E848-BE83-4CAC-8EFF-D71BD2B4F667";
shapes = (
{
closed = 1;
nodes = (
(491,335,l),
(751,660,l),
(548,660,l),
(392,463,l)
);
},
{
closed = 1;
nodes = (
(298,366,l),
(9,0,l),
(212,0,l),
(397,236,l)
);
},
{
closed = 1;
nodes = (
(253,660,l),
(51,660,l),
(558,0,l),
(759,0,l)
);
}
);
width = 769;
}
);
note = X;
unicode = 88;
},
{
glyphname = Y;
kernLeft = Y;
kernRight = Y;
lastChange = "2023-10-27 15:22:10 +0000";
layers = (
{
anchors = (
{
name = bottom;
pos = (271,0);
},
{
name = top;
pos = (271,660);
}
);
layerId = "F5467FAD-1970-4982-B3D3-939C01050498";
shapes = (
{
closed = 1;
nodes = (
(290,0,l),
(290,292,l),
(531,660,l),
(488,660,l),
(270,318,l),
(53,660,l),
(9,660,l),
(250,292,l),
(250,0,l)
);
}
);
width = 540;
},
{
anchors = (
{
name = bottom;
pos = (332,0);
},
{
name = top;
pos = (332,660);
}
);
layerId = "6DD95C5A-998B-41AB-BDFB-84A73C209871";
shapes = (
{
closed = 1;
nodes = (
(404,0,l),
(404,290,l),
(644,660,l),
(495,660,l),
(331,397,l),
(168,660,l),
(19,660,l),
(258,290,l),
(258,0,l)
);
}
);
width = 663;
},
{
anchors = (
{
name = bottom;
pos = (261,0);
},
{
name = top;
pos = (261,660);
}
);
layerId = "1FDC7037-1F88-4969-8535-0F79C1EF19DB";
shapes = (
{
closed = 1;
nodes = (
(272,0,l),
(272,292,l),
(513,660,l),
(487,660,l),
(260,306,l),
(34,660,l),
(8,660,l),
(249,292,l),
(249,0,l)
);
}
);
width = 521;
},
{
anchors = (
{
name = bottom;
pos = (347,0);
},
{
name = top;
pos = (347,660);
}
);
layerId = "3ED9E848-BE83-4CAC-8EFF-D71BD2B4F667";
shapes = (
{
closed = 1;
nodes = (
(432,0,l),
(432,289,l),
(671,660,l),
(497,660,l),
(346,417,l),
(196,660,l),
(22,660,l),
(260,289,l),
(260,0,l)
);
}
);
width = 693;
}
);
note = Y;
unicode = 89;
},
{
glyphname = Z;
kernLeft = Z;
kernRight = Z;
lastChange = "2023-10-27 15:22:10 +0000";
layers = (
{
anchors = (
{
name = bottom;
pos = (268,0);
},
{
name = top;
pos = (268,660);
}
);
layerId = "F5467FAD-1970-4982-B3D3-939C01050498";
shapes = (
{
closed = 1;
nodes = (
(502,0,l),
(502,28,l),
(52,28,l),
(525,632,l),
(525,660,l),
(43,660,l),
(43,632,l),
(483,632,l),
(9,28,l),
(9,0,l)
);
}
);
width = 535;
},
{
anchors = (
{
name = bottom;
pos = (278,0);
},
{
name = top;
pos = (278,660);
}
);
layerId = "6DD95C5A-998B-41AB-BDFB-84A73C209871";
shapes = (
{
closed = 1;
nodes = (
(542,0,l),
(542,118,l),
(190,118,l),
(546,543,l),
(546,660,l),
(30,660,l),
(30,543,l),
(364,543,l),
(9,118,l),
(9,0,l)
);
}
);
width = 555;
},
{
anchors = (
{
name = bottom;
pos = (266,0);
},
{
name = top;
pos = (266,660);
}
);
layerId = "1FDC7037-1F88-4969-8535-0F79C1EF19DB";
shapes = (
{
closed = 1;
nodes = (
(495,0,l),
(495,14,l),
(29,14,l),
(521,646,l),
(521,660,l),
(45,660,l),
(45,646,l),
(502,646,l),
(9,14,l),
(9,0,l)
);
}
);
width = 531;
},
{
anchors = (
{
name = bottom;
pos = (281,0);
},
{
name = top;
pos = (281,660);
}
);
layerId = "3ED9E848-BE83-4CAC-8EFF-D71BD2B4F667";
shapes = (
{
closed = 1;
nodes = (
(553,0,l),
(553,140,l),
(224,140,l),
(551,521,l),
(551,660,l),
(27,660,l),
(27,521,l),
(335,521,l),
(9,140,l),
(9,0,l)
);
}
);
width = 561;
}
);
note = Z;
unicode = 90;
},
{
glyphname = a;
kernLeft = a;
kernRight = a;
lastChange = "2023-10-27 15:22:10 +0000";
layers = (
{
anchors = (
{
name = bottom;
pos = (245,0);
},
{
name = ogonek;
pos = (399,0);
},
{
name = top;
pos = (245,472);
}
);
layerId = "F5467FAD-1970-4982-B3D3-939C01050498";
shapes = (
{
closed = 1;
nodes = (
(305,-13,o),
(372,46,o),
(399,121,c),
(399,0,l),
(440,0,l),
(440,292,ls),
(440,376,o),
(423,482,o),
(250,482,cs),
(161,482,o),
(88,438,o),
(68,387,cs),
(66,381,o),
(64,376,o),
(63,371,c),
(124,370,l),
(124,373,o),
(125,377,o),
(127,381,cs),
(141,421,o),
(186,455,o),
(259,455,cs),
(350,455,o),
(394,407,o),
(394,346,cs),
(394,283,o),
(318,259,o),
(231,250,cs),
(72,232,o),
(28,187,o),
(28,116,cs),
(28,40,o),
(99,-13,o),
(211,-13,cs)
);
},
{
closed = 1;
nodes = (
(103,11,o),
(75,74,o),
(75,122,cs),
(75,183,o),
(120,210,o),
(228,224,cs),
(316,236,o),
(369,256,o),
(399,292,c),
(399,197,ls),
(399,110,o),
(331,11,o),
(211,11,cs)
);
}
);
width = 488;
},
{
anchors = (
{
name = bottom;
pos = (276,0);
},
{
name = ogonek;
pos = (344,0);
},
{
name = top;
pos = (276,472);
}
);
layerId = "6DD95C5A-998B-41AB-BDFB-84A73C209871";
shapes = (
{
closed = 1;
nodes = (
(276,-12,o),
(319,15,o),
(344,54,c),
(344,0,l),
(488,0,l),
(488,284,ls),
(488,357,o),
(471,480,o),
(275,480,cs),
(161,480,o),
(65,416,o),
(65,339,cs),
(65,329,o),
(67,320,o),
(70,310,c),
(209,310,l),
(208,311,o),
(208,314,o),
(208,318,cs),
(208,338,o),
(217,384,o),
(284,384,cs),
(320,384,o),
(344,369,o),
(344,337,cs),
(344,300,o),
(301,286,o),
(239,280,cs),
(84,265,o),
(28,212,o),
(28,135,cs),
(28,53,o),
(85,-12,o),
(207,-12,cs)
);
},
{
closed = 1;
nodes = (
(192,76,o),
(171,109,o),
(171,140,cs),
(171,177,o),
(207,195,o),
(251,201,cs),
(285,205,o),
(318,213,o),
(347,225,c),
(347,216,ls),
(347,113,o),
(293,76,o),
(239,76,cs)
);
}
);
width = 536;
},
{
anchors = (
{
name = bottom;
pos = (240,0);
},
{
name = ogonek;
pos = (407,0);
},
{
name = top;
pos = (240,472);
}
);
layerId = "1FDC7037-1F88-4969-8535-0F79C1EF19DB";
shapes = (
{
closed = 1;
nodes = (
(309,-13,o),
(382,51,o),
(407,131,c),
(407,0,l),
(433,0,l),
(433,293,ls),
(433,379,o),
(416,482,o),
(246,482,cs),
(161,482,o),
(91,442,o),
(68,394,cs),
(66,389,o),
(64,386,o),
(62,380,c),
(109,379,l),
(111,384,o),
(112,388,o),
(114,391,cs),
(131,434,o),
(181,467,o),
(256,467,cs),
(355,467,o),
(402,414,o),
(402,348,cs),
(402,280,o),
(321,255,o),
(230,245,cs),
(70,226,o),
(28,183,o),
(28,113,cs),
(28,38,o),
(101,-13,o),
(212,-13,cs)
);
},
{
closed = 1;
nodes = (
(89,1,o),
(60,68,o),
(60,119,cs),
(60,184,o),
(106,213,o),
(224,228,cs),
(321,240,o),
(377,262,o),
(407,303,c),
(407,194,ls),
(407,110,o),
(337,1,o),
(207,1,cs)
);
}
);
width = 480;
},
{
anchors = (
{
name = bottom;
pos = (284,0);
},
{
name = ogonek;
pos = (331,0);
},
{
name = top;
pos = (284,472);
}
);
layerId = "3ED9E848-BE83-4CAC-8EFF-D71BD2B4F667";
shapes = (
{
closed = 1;
nodes = (
(269,-12,o),
(306,8,o),
(331,38,c),
(331,0,l),
(501,0,l),
(501,282,ls),
(501,353,o),
(482,480,o),
(282,480,cs),
(161,480,o),
(60,410,o),
(65,326,cs),
(66,316,o),
(68,306,o),
(72,295,c),
(230,296,l),
(229,296,o),
(229,299,o),
(228,303,cs),
(224,317,o),
(224,366,o),
(290,366,cs),
(312,366,o),
(332,359,o),
(332,335,cs),
(332,304,o),
(297,292,o),
(240,288,cs),
(87,273,o),
(28,218,o),
(28,140,cs),
(28,56,o),
(81,-12,o),
(207,-12,cs)
);
},
{
closed = 1;
nodes = (
(214,92,o),
(194,118,o),
(194,144,cs),
(194,176,o),
(228,191,o),
(256,195,cs),
(277,197,o),
(306,203,o),
(334,209,c),
(334,221,ls),
(334,114,o),
(284,92,o),
(245,92,cs)
);
}
);
width = 548;
}
);
note = a;
unicode = 97;
},
{
glyphname = ae;
kernLeft = a;
kernRight = ae;
lastChange = "2023-10-27 15:22:10 +0000";
layers = (
{
anchors = (
{
name = top;
pos = (425,472);
}
);
background = {
shapes = (
{
closed = 1;
nodes = (
(329,-13,o),
(393,59,o),
(415,144,c),
(451,37,o),
(548,-13,o),
(654,-13,cs),
(752,-13,o),
(821,18,o),
(867,74,c),
(828,91,l),
(796,45,o),
(751,4,o),
(654,4,cs),
(549,4,o),
(452,84,o),
(450,237,c),
(866,237,l),
(868,250,o),
(869,263,o),
(869,276,cs),
(869,403,o),
(785,484,o),
(648,484,cs),
(556,484,o),
(475,444,o),
(432,370,c),
(416,430,o),
(372,482,o),
(250,482,cs),
(153,482,o),
(74,430,o),
(63,371,c),
(124,370,l),
(135,412,o),
(170,465,o),
(250,465,cs),
(342,465,o),
(384,420,o),
(391,357,cs),
(392,354,o),
(392,351,o),
(392,347,cs),
(392,284,o),
(318,260,o),
(231,250,cs),
(81,232,o),
(28,187,o),
(28,116,cs),
(28,40,o),
(99,-13,o),
(211,-13,cs)
);
},
{
closed = 1;
nodes = (
(103,2,o),
(75,74,o),
(75,122,cs),
(75,183,o),
(120,220,o),
(228,234,cs),
(306,244,o),
(369,265,o),
(399,302,c),
(399,188,ls),
(399,101,o),
(331,2,o),
(211,2,cs)
);
},
{
closed = 1;
nodes = (
(456,376,o),
(531,470,o),
(648,470,cs),
(767,470,o),
(823,389,o),
(823,308,cs),
(823,291,o),
(820,273,o),
(815,257,c),
(450,257,l)
);
}
);
};
layerId = "F5467FAD-1970-4982-B3D3-939C01050498";
shapes = (
{
ref = a;
},
{
alignment = -1;
pos = (372,0);
ref = e;
}
);
width = 906;
},
{
anchors = (
{
name = top;
pos = (440,472);
}
);
background = {
shapes = (
{
closed = 1;
nodes = (
(303,-12,o),
(359,32,o),
(381,94,c),
(424,25,o),
(504,-11,o),
(602,-11,cs),
(707,-11,o),
(804,33,o),
(837,121,c),
(721,175,l),
(704,124,o),
(670,90,o),
(611,90,cs),
(539,90,o),
(503,123,o),
(488,176,c),
(488,203,l),
(823,203,l),
(829,228,o),
(832,252,o),
(832,274,cs),
(832,402,o),
(740,482,o),
(592,482,cs),
(530,482,o),
(475,465,o),
(433,434,c),
(402,461,o),
(352,480,o),
(275,480,cs),
(161,480,o),
(66,416,o),
(66,339,cs),
(66,329,o),
(67,320,o),
(70,310,c),
(209,310,l),
(208,311,o),
(208,314,o),
(208,318,cs),
(208,338,o),
(217,384,o),
(284,384,cs),
(324,384,o),
(342,366,o),
(342,334,cs),
(342,297,o),
(302,286,o),
(239,280,cs),
(84,266,o),
(28,212,o),
(28,135,cs),
(28,53,o),
(85,-12,o),
(207,-12,cs)
);
},
{
closed = 1;
nodes = (
(190,76,o),
(168,109,o),
(168,140,cs),
(168,177,o),
(204,195,o),
(248,201,cs),
(282,205,o),
(315,213,o),
(344,225,c),
(344,216,ls),
(344,114,o),
(290,76,o),
(236,76,cs)
);
},
{
closed = 1;
nodes = (
(488,291,o),
(488,292,o),
(488,294,c),
(505,355,o),
(553,383,o),
(596,383,cs),
(653,383,o),
(688,355,o),
(688,307,cs),
(688,302,o),
(687,296,o),
(687,290,c),
(488,290,l)
);
}
);
};
layerId = "6DD95C5A-998B-41AB-BDFB-84A73C209871";
shapes = (
{
ref = a;
},
{
alignment = -1;
pos = (326,0);
ref = e;
}
);
width = 885;
},
{
anchors = (
{
name = top;
pos = (422,472);
}
);
layerId = "1FDC7037-1F88-4969-8535-0F79C1EF19DB";
shapes = (
{
alignment = -1;
ref = a;
},
{
alignment = -1;
pos = (379,0);
ref = e;
}
);
width = 910;
},
{
anchors = (
{
name = top;
pos = (444,472);
}
);
layerId = "3ED9E848-BE83-4CAC-8EFF-D71BD2B4F667";
shapes = (
{
alignment = -1;
ref = a;
},
{
alignment = -1;
pos = (315,0);
ref = e;
}
);
width = 880;
}
);
metricLeft = a;
metricRight = e;
note = ae;
unicode = 230;
},
{
glyphname = b;
kernLeft = b;
kernRight = b;
lastChange = "2023-10-27 15:22:10 +0000";
layers = (
{
layerId = "F5467FAD-1970-4982-B3D3-939C01050498";
shapes = (
{
closed = 1;
nodes = (
(90,0,l),
(90,111,l),
(74,238,l),
(90,375,l),
(90,660,l),
(47,660,l),
(48,0,l)
);
},
{
closed = 1;
nodes = (
(430,-11,o),
(521,94,o),
(521,238,cs),
(521,380,o),
(430,484,o),
(287,484,cs),
(141,484,o),
(74,349,o),
(74,238,cs),
(74,127,o),
(136,-11,o),
(287,-11,cs)
);
},
{
closed = 1;
nodes = (
(173,17,o),
(78,101,o),
(78,238,cs),
(78,372,o),
(174,456,o),
(288,456,cs),
(404,456,o),
(479,357,o),
(479,238,cs),
(479,116,o),
(402,17,o),
(287,17,cs)
);
}
);
width = 550;
},
{
background = {
shapes = (
{
closed = 1;
nodes = (
(521,-11,o),
(612,94,o),
(612,238,cs),
(612,380,o),
(521,484,o),
(377,484,cs),
(262,484,o),
(196,401,o),
(173,313,c),
(180,375,l),
(180,660,l),
(138,660,l),
(139,0,l),
(180,0,l),
(180,111,l),
(174,160,l),
(197,72,o),
(263,-11,o),
(377,-11,cs)
);
},
{
closed = 1;
nodes = (
(263,17,o),
(168,101,o),
(168,238,cs),
(168,372,o),
(263,456,o),
(377,456,cs),
(493,456,o),
(570,357,o),
(570,238,cs),
(570,116,o),
(492,17,o),
(377,17,cs)
);
}
);
};
layerId = "6DD95C5A-998B-41AB-BDFB-84A73C209871";
shapes = (
{
closed = 1;
nodes = (
(177,0,l),
(177,25,l),
(158,238,l),
(177,462,l),
(177,660,l),
(33,660,l),
(34,0,l)
);
},
{
closed = 1;
nodes = (
(484,-8,o),
(583,105,o),
(583,238,cs),
(583,372,o),
(484,483,o),
(334,483,cs),
(190,483,o),
(152,401,o),
(152,238,cs),
(152,74,o),
(181,-8,o),
(334,-8,cs)
);
},
{
closed = 1;
nodes = (
(223,96,o),
(170,144,o),
(170,238,cs),
(170,330,o),
(223,379,o),
(307,379,cs),
(386,379,o),
(431,322,o),
(431,238,cs),
(431,153,o),
(386,96,o),
(307,96,cs)
);
}
);
width = 602;
},
{
associatedMasterId = "F5467FAD-1970-4982-B3D3-939C01050498";
layerId = "26A69B60-DC4A-41CE-A0B3-B5D760A97FC8";
name = "24 juil. 23  14:17";
shapes = (
{
closed = 1;
nodes = (
(90,375,l),
(90,660,l),
(47,660,l),
(48,0,l),
(90,0,l),
(90,111,l),
(74,230,l)
);
},
{
closed = 1;
nodes = (
(173,17,o),
(77,101,o),
(77,238,cs),
(77,372,o),
(173,456,o),
(287,456,cs),
(403,456,o),
(479,357,o),
(479,238,cs),
(479,116,o),
(402,17,o),
(287,17,cs)
);
},
{
closed = 1;
nodes = (
(79,174,l),
(100,80,o),
(167,-11,o),
(287,-11,cs),
(430,-11,o),
(521,94,o),
(521,238,cs),
(521,380,o),
(430,484,o),
(287,484,cs),
(166,484,o),
(100,392,o),
(79,299,c)
);
}
);
width = 550;
},
{
layerId = "1FDC7037-1F88-4969-8535-0F79C1EF19DB";
shapes = (
{
closed = 1;
nodes = (
(75,0,l),
(75,125,l),
(61,238,l),
(75,361,l),
(75,660,l),
(49,660,l),
(50,0,l)
);
},
{
closed = 1;
nodes = (
(422,-11,o),
(512,92,o),
(512,238,cs),
(512,381,o),
(422,484,o),
(279,484,cs),
(133,484,o),
(61,340,o),
(61,238,cs),
(61,136,o),
(128,-11,o),
(279,-11,cs)
);
},
{
closed = 1;
nodes = (
(164,5,o),
(63,94,o),
(63,238,cs),
(63,378,o),
(166,469,o),
(285,469,cs),
(406,469,o),
(487,363,o),
(487,238,cs),
(487,110,o),
(405,5,o),
(283,5,cs)
);
}
);
width = 541;
},
{
layerId = "3ED9E848-BE83-4CAC-8EFF-D71BD2B4F667";
shapes = (
{
closed = 1;
nodes = (
(199,0,l),
(199,3,l),
(179,238,l),
(199,484,l),
(199,660,l),
(29,660,l),
(30,0,l)
);
},
{
closed = 1;
nodes = (
(497,-8,o),
(598,108,o),
(598,238,cs),
(598,370,o),
(497,483,o),
(345,483,cs),
(202,483,o),
(171,414,o),
(171,238,cs),
(171,60,o),
(192,-8,o),
(345,-8,cs)
);
},
{
closed = 1;
nodes = (
(236,116,o),
(192,155,o),
(192,238,cs),
(192,320,o),
(236,360,o),
(312,360,cs),
(381,360,o),
(419,313,o),
(419,238,cs),
(419,162,o),
(382,116,o),
(312,116,cs)
);
}
);
width = 614;
}
);
note = b;
unicode = 98;
},
{
glyphname = c;
kernLeft = a;
kernRight = c;
lastChange = "2023-10-27 15:22:10 +0000";
layers = (
{
anchors = (
{
name = bottom;
pos = (285,0);
},
{
name = top;
pos = (290,472);
}
);
layerId = "F5467FAD-1970-4982-B3D3-939C01050498";
shapes = (
{
closed = 1;
nodes = (
(389,-13,o),
(462,29,o),
(499,106,c),
(461,121,l),
(433,64,o),
(382,13,o),
(283,13,cs),
(176,13,o),
(78,86,o),
(78,230,cs),
(78,370,o),
(157,457,o),
(290,457,cs),
(370,457,o),
(422,424,o),
(458,365,c),
(494,385,l),
(459,444,o),
(390,484,o),
(290,484,cs),
(138,484,o),
(28,396,o),
(28,230,cs),
(28,68,o),
(146,-13,o),
(283,-13,cs)
);
}
);
width = 527;
},
{
anchors = (
{
name = bottom;
pos = (294,0);
},
{
name = top;
pos = (300,472);
}
);
layerId = "6DD95C5A-998B-41AB-BDFB-84A73C209871";
shapes = (
{
closed = 1;
nodes = (
(420,-11,o),
(505,37,o),
(548,141,c),
(422,191,l),
(404,128,o),
(372,89,o),
(294,89,cs),
(209,89,o),
(164,148,o),
(164,231,cs),
(164,330,o),
(224,383,o),
(300,383,cs),
(363,383,o),
(407,346,o),
(407,286,c),
(533,344,l),
(506,426,o),
(422,482,o),
(300,482,cs),
(145,482,o),
(28,389,o),
(28,231,cs),
(28,74,o),
(156,-11,o),
(294,-11,cs)
);
}
);
width = 565;
},
{
anchors = (
{
name = bottom;
pos = (283,0);
},
{
name = top;
pos = (289,472);
}
);
layerId = "1FDC7037-1F88-4969-8535-0F79C1EF19DB";
shapes = (
{
closed = 1;
nodes = (
(385,-13,o),
(455,28,o),
(491,100,c),
(468,109,l),
(438,54,o),
(384,1,o),
(281,1,cs),
(171,1,o),
(64,75,o),
(64,230,cs),
(64,376,o),
(147,470,o),
(289,470,cs),
(371,470,o),
(425,437,o),
(467,377,c),
(488,391,l),
(452,447,o),
(386,484,o),
(289,484,cs),
(137,484,o),
(28,397,o),
(28,230,cs),
(28,67,o),
(144,-13,o),
(281,-13,cs)
);
}
);
width = 521;
},
{
anchors = (
{
name = bottom;
pos = (297,0);
},
{
name = top;
pos = (303,472);
}
);
layerId = "3ED9E848-BE83-4CAC-8EFF-D71BD2B4F667";
shapes = (
{
closed = 1;
nodes = (
(427,-11,o),
(515,39,o),
(560,150,c),
(412,208,l),
(396,144,o),
(371,108,o),
(297,108,cs),
(218,108,o),
(185,163,o),
(185,231,cs),
(185,321,o),
(240,365,o),
(303,365,cs),
(361,365,o),
(404,327,o),
(395,266,c),
(542,334,l),
(518,422,o),
(430,482,o),
(303,482,cs),
(147,482,o),
(28,388,o),
(28,231,cs),
(28,74,o),
(158,-11,o),
(297,-11,cs)
);
}
);
width = 574;
}
);
note = c;
unicode = 99;
},
{
glyphname = d;
kernLeft = a;
kernRight = d;
lastChange = "2023-10-27 15:22:10 +0000";
layers = (
{
anchors = (
{
name = bottom;
pos = (302,0);
},
{
name = top;
pos = (502,472);
}
);
layerId = "F5467FAD-1970-4982-B3D3-939C01050498";
shapes = (
{
closed = 1;
nodes = (
(503,660,l),
(460,660,l),
(460,375,l),
(475,238,l),
(460,111,l),
(460,0,l),
(503,0,l)
);
},
{
closed = 1;
nodes = (
(414,-11,o),
(476,127,o),
(476,238,cs),
(476,349,o),
(409,484,o),
(263,484,cs),
(120,484,o),
(28,380,o),
(28,238,cs),
(28,94,o),
(120,-11,o),
(263,-11,cs)
);
},
{
closed = 1;
nodes = (
(148,17,o),
(71,116,o),
(71,238,cs),
(71,357,o),
(146,456,o),
(262,456,cs),
(376,456,o),
(472,372,o),
(472,238,cs),
(472,101,o),
(377,17,o),
(263,17,cs)
);
}
);
width = 550;
},
{
anchors = (
{
name = bottom;
pos = (333,0);
},
{
name = top;
pos = (568,472);
}
);
layerId = "6DD95C5A-998B-41AB-BDFB-84A73C209871";
shapes = (
{
closed = 1;
nodes = (
(568,660,l),
(424,660,l),
(424,462,l),
(443,238,l),
(424,25,l),
(424,0,l),
(568,0,l)
);
},
{
closed = 1;
nodes = (
(421,-8,o),
(450,74,o),
(450,238,cs),
(450,401,o),
(412,483,o),
(268,483,cs),
(118,483,o),
(19,372,o),
(19,238,cs),
(19,105,o),
(118,-8,o),
(268,-8,cs)
);
},
{
closed = 1;
nodes = (
(219,96,o),
(173,153,o),
(173,238,cs),
(173,322,o),
(218,379,o),
(296,379,cs),
(384,379,o),
(434,325,o),
(434,238,cs),
(434,144,o),
(380,96,o),
(296,96,cs)
);
}
);
width = 602;
},
{
anchors = (
{
name = bottom;
pos = (333,0);
},
{
name = top;
pos = (680,472);
}
);
associatedMasterId = "6DD95C5A-998B-41AB-BDFB-84A73C209871";
layerId = "1D074922-2F39-4A43-B83C-D4901F087130";
name = "24 juil. 23  14:32";
shapes = (
{
closed = 1;
nodes = (
(341,-8,o),
(389,8,o),
(424,32,c),
(424,17,l),
(424,0,l),
(568,0,l),
(569,660,l),
(424,660,l),
(424,465,l),
(424,440,l),
(389,467,o),
(340,483,o),
(277,483,cs),
(127,483,o),
(28,372,o),
(28,238,cs),
(28,105,o),
(126,-8,o),
(278,-8,cs)
);
},
{
closed = 1;
nodes = (
(219,96,o),
(173,153,o),
(173,238,cs),
(173,322,o),
(218,379,o),
(296,379,cs),
(384,379,o),
(434,325,o),
(434,238,cs),
(434,144,o),
(380,96,o),
(296,96,cs)
);
}
);
width = 602;
},
{
anchors = (
{
name = bottom;
pos = (302,0);
},
{
name = top;
pos = (632,472);
}
);
associatedMasterId = "F5467FAD-1970-4982-B3D3-939C01050498";
layerId = "0FE110F9-B3B8-41FB-9267-A7A4874DD26C";
name = "24 juil. 23  14:32";
shapes = (
{
closed = 1;
nodes = (
(381,-11,o),
(447,76,o),
(469,169,c),
(463,111,l),
(463,0,l),
(505,0,l),
(505,660,l),
(463,660,l),
(463,375,l),
(469,306,l),
(447,397,o),
(381,484,o),
(263,484,cs),
(120,484,o),
(28,380,o),
(28,238,cs),
(28,94,o),
(120,-11,o),
(263,-11,cs)
);
},
{
closed = 1;
nodes = (
(148,17,o),
(71,116,o),
(71,238,cs),
(71,357,o),
(147,455,o),
(263,455,cs),
(377,455,o),
(472,372,o),
(472,238,cs),
(472,101,o),
(377,17,o),
(263,17,cs)
);
}
);
width = 553;
},
{
anchors = (
{
name = bottom;
pos = (297,0);
},
{
name = top;
pos = (492,472);
}
);
layerId = "1FDC7037-1F88-4969-8535-0F79C1EF19DB";
shapes = (
{
closed = 1;
nodes = (
(492,660,l),
(466,660,l),
(466,361,l),
(480,238,l),
(466,125,l),
(466,0,l),
(492,0,l)
);
},
{
closed = 1;
nodes = (
(413,-11,o),
(480,136,o),
(480,238,cs),
(480,340,o),
(409,484,o),
(262,484,cs),
(120,484,o),
(30,381,o),
(30,238,cs),
(30,92,o),
(120,-11,o),
(262,-11,cs)
);
},
{
closed = 1;
nodes = (
(137,5,o),
(55,110,o),
(55,238,cs),
(55,363,o),
(135,469,o),
(256,469,cs),
(375,469,o),
(477,379,o),
(477,238,cs),
(477,94,o),
(377,5,o),
(257,5,cs)
);
}
);
width = 541;
},
{
anchors = (
{
name = bottom;
pos = (340,0);
},
{
name = top;
pos = (585,472);
}
);
layerId = "3ED9E848-BE83-4CAC-8EFF-D71BD2B4F667";
shapes = (
{
closed = 1;
nodes = (
(585,660,l),
(416,660,l),
(416,484,l),
(436,238,l),
(416,3,l),
(416,0,l),
(585,0,l)
);
},
{
closed = 1;
nodes = (
(422,-8,o),
(443,60,o),
(443,238,cs),
(443,414,o),
(413,483,o),
(269,483,cs),
(118,483,o),
(17,370,o),
(17,238,cs),
(17,108,o),
(118,-8,o),
(269,-8,cs)
);
},
{
closed = 1;
nodes = (
(236,116,o),
(198,162,o),
(198,238,cs),
(198,313,o),
(236,360,o),
(305,360,cs),
(386,360,o),
(424,314,o),
(424,238,cs),
(424,155,o),
(381,116,o),
(305,116,cs)
);
}
);
width = 614;
}
);
note = d;
unicode = 100;
},
{
glyphname = dcroat;
lastChange = "2023-10-27 15:22:10 +0000";
layers = (
{
layerId = "F5467FAD-1970-4982-B3D3-939C01050498";
shapes = (
{
closed = 1;
nodes = (
(553,604,l),
(383,604,l),
(383,564,l),
(553,564,l)
);
},
{
ref = d;
}
);
width = 553;
},
{
layerId = "6DD95C5A-998B-41AB-BDFB-84A73C209871";
shapes = (
{
closed = 1;
nodes = (
(620,597,l),
(306,597,l),
(306,507,l),
(620,507,l)
);
},
{
ref = d;
}
);
width = 602;
},
{
layerId = "1FDC7037-1F88-4969-8535-0F79C1EF19DB";
shapes = (
{
closed = 1;
nodes = (
(541,604,l),
(395,604,l),
(395,573,l),
(541,573,l)
);
},
{
ref = d;
}
);
width = 545;
},
{
layerId = "3ED9E848-BE83-4CAC-8EFF-D71BD2B4F667";
shapes = (
{
closed = 1;
nodes = (
(637,595,l),
(288,595,l),
(288,493,l),
(637,493,l)
);
},
{
ref = d;
}
);
width = 614;
}
);
unicode = 273;
},
{
glyphname = eth;
lastChange = "2023-10-27 15:22:10 +0000";
layers = (
{
layerId = "F5467FAD-1970-4982-B3D3-939C01050498";
shapes = (
{
closed = 1;
nodes = (
(439,-32,o),
(521,121,o),
(521,294,cs),
(521,481,o),
(421,625,o),
(253,703,c),
(308,751,l),
(290,769,l),
(227,714,l),
(180,733,o),
(129,746,o),
(74,754,c),
(74,720,l),
(118,712,o),
(159,701,o),
(196,687,c),
(141,639,l),
(159,621,l),
(223,676,l),
(384,605,o),
(467,478,o),
(483,327,c),
(443,399,o),
(369,463,o),
(271,463,cs),
(137,463,o),
(36,367,o),
(36,223,cs),
(36,94,o),
(116,-32,o),
(268,-32,cs)
);
},
{
closed = 1;
nodes = (
(160,-4,o),
(80,98,o),
(80,227,cs),
(80,343,o),
(156,436,o),
(273,436,cs),
(385,436,o),
(481,351,o),
(481,208,cs),
(481,88,o),
(395,-4,o),
(273,-4,cs)
);
}
);
width = 540;
},
{
layerId = "6DD95C5A-998B-41AB-BDFB-84A73C209871";
shapes = (
{
closed = 1;
nodes = (
(454,-4,o),
(534,152,o),
(534,307,cs),
(534,458,o),
(455,583,o),
(325,658,c),
(372,698,l),
(312,768,l),
(235,701,l),
(180,720,o),
(120,733,o),
(54,736,c),
(54,627,l),
(82,623,o),
(108,620,o),
(134,613,c),
(97,581,l),
(157,512,l),
(231,576,l),
(278,551,o),
(316,518,o),
(342,478,c),
(320,485,o),
(297,488,o),
(272,488,cs),
(137,488,o),
(24,390,o),
(24,248,cs),
(24,119,o),
(119,-4,o),
(270,-4,cs)
);
},
{
closed = 1;
nodes = (
(216,102,o),
(169,161,o),
(169,252,cs),
(169,331,o),
(213,384,o),
(274,384,cs),
(321,384,o),
(391,348,o),
(391,237,cs),
(391,184,o),
(365,108,o),
(273,102,cs)
);
}
);
width = 540;
},
{
layerId = "1FDC7037-1F88-4969-8535-0F79C1EF19DB";
shapes = (
{
closed = 1;
nodes = (
(438,-37,o),
(520,116,o),
(520,292,cs),
(520,485,o),
(415,633,o),
(241,710,c),
(298,759,l),
(287,769,l),
(226,716,l),
(180,735,o),
(130,749,o),
(76,757,c),
(76,736,l),
(124,726,o),
(167,714,o),
(207,699,c),
(149,649,l),
(159,639,l),
(221,692,l),
(401,614,o),
(490,472,o),
(505,303,c),
(463,385,o),
(380,459,o),
(271,459,cs),
(137,459,o),
(38,363,o),
(38,219,cs),
(38,91,o),
(116,-37,o),
(268,-37,cs)
);
},
{
closed = 1;
nodes = (
(152,-21,o),
(66,88,o),
(66,223,cs),
(66,345,o),
(146,444,o),
(273,444,cs),
(395,444,o),
(495,351,o),
(495,204,cs),
(495,73,o),
(400,-22,o),
(273,-21,cs)
);
}
);
width = 540;
},
{
layerId = "3ED9E848-BE83-4CAC-8EFF-D71BD2B4F667";
shapes = (
{
closed = 1;
nodes = (
(457,3,o),
(537,159,o),
(537,310,cs),
(537,453,o),
(464,572,o),
(344,648,c),
(387,685,l),
(318,768,l),
(237,697,l),
(180,717,o),
(117,729,o),
(49,732,c),
(49,604,l),
(74,603,o),
(97,599,o),
(119,594,c),
(86,567,l),
(156,485,l),
(233,552,l),
(253,538,o),
(278,527,o),
(307,516,c),
(290,506,o),
(279,495,o),
(272,495,cs),
(137,495,o),
(21,396,o),
(21,255,cs),
(21,124,o),
(120,3,o),
(270,3,cs)
);
},
{
closed = 1;
nodes = (
(229,128,o),
(190,177,o),
(190,257,cs),
(190,327,o),
(227,371,o),
(274,371,cs),
(305,371,o),
(370,348,o),
(370,243,cs),
(370,207,o),
(357,136,o),
(273,128,cs)
);
}
);
width = 540;
}
);
note = eth;
unicode = 240;
},
{
glyphname = e;
kernLeft = a;
kernRight = ae;
lastChange = "2023-10-27 15:22:10 +0000";
layers = (
{
anchors = (
{
name = bottom;
pos = (285,0);
},
{
name = ogonek;
pos = (307,0);
},
{
name = top;
pos = (276,472);
}
);
layerId = "F5467FAD-1970-4982-B3D3-939C01050498";
shapes = (
{
closed = 1;
nodes = (
(74,237,l),
(494,237,l),
(496,250,o),
(497,263,o),
(497,276,cs),
(497,403,o),
(413,484,o),
(276,484,cs),
(141,484,o),
(28,396,o),
(28,241,cs),
(28,68,o),
(147,-13,o),
(283,-13,cs),
(380,-13,o),
(450,18,o),
(495,74,c),
(456,101,l),
(424,55,o),
(379,13,o),
(283,13,cs),
(175,13,o),
(76,88,o),
(78,245,cs),
(80,371,o),
(155,460,o),
(276,460,cs),
(395,460,o),
(452,389,o),
(452,308,cs),
(452,291,o),
(450,279,o),
(446,263,c),
(74,263,l)
);
}
);
width = 535;
},
{
anchors = (
{
name = bottom;
pos = (285,0);
},
{
name = ogonek;
pos = (307,0);
},
{
name = top;
pos = (280,472);
}
);
layerId = "6DD95C5A-998B-41AB-BDFB-84A73C209871";
shapes = (
{
closed = 1;
nodes = (
(152,203,l),
(507,203,l),
(513,228,o),
(516,252,o),
(516,274,cs),
(516,402,o),
(424,482,o),
(276,482,cs),
(130,482,o),
(28,389,o),
(28,240,cs),
(28,74,o),
(134,-11,o),
(286,-11,cs),
(391,-11,o),
(488,33,o),
(521,121,c),
(405,175,l),
(389,124,o),
(355,88,o),
(295,88,cs),
(205,88,o),
(166,141,o),
(166,240,cs),
(166,344,o),
(224,383,o),
(280,383,cs),
(338,383,o),
(372,355,o),
(372,307,cs),
(372,302,o),
(372,296,o),
(371,290,c),
(157,290,l)
);
}
);
width = 559;
},
{
anchors = (
{
name = bottom;
pos = (285,0);
},
{
name = ogonek;
pos = (307,0);
},
{
name = top;
pos = (274,472);
}
);
layerId = "1FDC7037-1F88-4969-8535-0F79C1EF19DB";
shapes = (
{
closed = 1;
nodes = (
(54,242,l),
(492,242,l),
(493,254,o),
(493,265,o),
(493,276,cs),
(493,402,o),
(410,484,o),
(275,484,cs),
(142,484,o),
(28,397,o),
(28,241,cs),
(28,67,o),
(149,-13,o),
(283,-13,cs),
(378,-13,o),
(443,15,o),
(491,66,c),
(465,89,l),
(430,43,o),
(383,1,o),
(281,1,cs),
(171,1,o),
(57,79,o),
(57,246,cs),
(57,374,o),
(143,472,o),
(275,472,cs),
(405,472,o),
(468,394,o),
(468,309,cs),
(468,290,o),
(466,276,o),
(462,258,c),
(53,258,l)
);
}
);
width = 531;
},
{
anchors = (
{
name = bottom;
pos = (285,0);
},
{
name = ogonek;
pos = (307,0);
},
{
name = top;
pos = (281,472);
}
);
layerId = "3ED9E848-BE83-4CAC-8EFF-D71BD2B4F667";
shapes = (
{
closed = 1;
nodes = (
(171,194,l),
(510,194,l),
(517,223,o),
(521,249,o),
(521,274,cs),
(521,402,o),
(427,482,o),
(276,482,cs),
(127,482,o),
(28,388,o),
(28,240,cs),
(28,74,o),
(131,-11,o),
(287,-11,cs),
(394,-11,o),
(498,37,o),
(528,132,c),
(393,193,l),
(380,141,o),
(349,106,o),
(298,106,cs),
(212,106,o),
(188,155,o),
(188,239,cs),
(187,338,o),
(241,364,o),
(281,364,cs),
(323,364,o),
(353,346,o),
(353,307,cs),
(353,305,o),
(353,300,o),
(352,297,c),
(177,297,l)
);
}
);
width = 565;
}
);
note = e;
unicode = 101;
},
{
glyphname = f;
kernLeft = f;
kernRight = f;
lastChange = "2023-10-27 15:22:10 +0000";
layers = (
{
layerId = "F5467FAD-1970-4982-B3D3-939C01050498";
shapes = (
{
closed = 1;
nodes = (
(149,1,l),
(149,439,l),
(326,439,l),
(326,472,l),
(215,472,l),
(116,493,o),
(89,542,o),
(89,586,cs),
(89,651,o),
(142,687,o),
(202,687,cs),
(256,687,o),
(293,655,o),
(312,625,c),
(354,652,l),
(325,678,o),
(266,703,o),
(202,703,cs),
(92,703,o),
(55,636,o),
(55,589,cs),
(55,538,o),
(89,485,o),
(166,472,c),
(8,472,l),
(8,439,l),
(108,439,l),
(108,1,l)
);
}
);
width = 346;
},
{
layerId = "6DD95C5A-998B-41AB-BDFB-84A73C209871";
shapes = (
{
closed = 1;
nodes = (
(232,0,l),
(232,363,l),
(379,363,l),
(379,472,l),
(258,472,ls),
(206,472,o),
(177,507,o),
(177,539,cs),
(177,581,o),
(203,607,o),
(252,607,cs),
(306,607,o),
(326,560,o),
(332,544,c),
(455,596,l),
(439,620,o),
(373,696,o),
(252,696,cs),
(119,696,o),
(45,636,o),
(45,553,cs),
(45,503,o),
(74,480,o),
(88,472,c),
(7,472,l),
(7,363,l),
(90,363,l),
(90,0,l)
);
}
);
width = 374;
},
{
layerId = "1FDC7037-1F88-4969-8535-0F79C1EF19DB";
shapes = (
{
closed = 1;
nodes = (
(136,1,l),
(136,452,l),
(318,452,l),
(318,472,l),
(208,472,l),
(102,497,o),
(74,548,o),
(74,593,cs),
(74,662,o),
(133,699,o),
(194,699,cs),
(247,699,o),
(289,670,o),
(309,638,c),
(338,660,l),
(307,687,o),
(249,704,o),
(194,704,cs),
(89,704,o),
(57,636,o),
(57,595,cs),
(57,543,o),
(91,486,o),
(178,472,c),
(8,472,l),
(8,452,l),
(111,452,l),
(111,1,l)
);
}
);
width = 341;
},
{
layerId = "3ED9E848-BE83-4CAC-8EFF-D71BD2B4F667";
shapes = (
{
closed = 1;
nodes = (
(253,0,l),
(253,344,l),
(392,344,l),
(392,472,l),
(269,472,ls),
(227,472,o),
(199,499,o),
(199,528,cs),
(199,564,o),
(218,587,o),
(264,587,cs),
(319,587,o),
(334,538,o),
(337,524,c),
(479,583,l),
(468,605,o),
(400,694,o),
(264,694,cs),
(125,694,o),
(43,636,o),
(43,543,cs),
(43,494,o),
(61,478,o),
(69,472,c),
(7,472,l),
(7,344,l),
(85,344,l),
(85,0,l)
);
}
);
width = 382;
}
);
note = f;
unicode = 102;
},
{
glyphname = g;
kernLeft = a;
kernRight = a;
lastChange = "2023-10-27 15:22:10 +0000";
layers = (
{
anchors = (
{
name = top;
pos = (290,472);
}
);
layerId = "F5467FAD-1970-4982-B3D3-939C01050498";
shapes = (
{
closed = 1;
nodes = (
(401,-244,o),
(503,-165,o),
(503,-1,c),
(460,-1,l),
(460,-144,o),
(373,-217,o),
(266,-217,cs),
(164,-217,o),
(119,-167,o),
(95,-121,c),
(54,-130,l),
(83,-195,o),
(145,-244,o),
(266,-244,cs)
);
},
{
closed = 1;
nodes = (
(460,472,l),
(460,360,l),
(475,234,l),
(460,109,l),
(460,-1,l),
(503,-1,l),
(502,472,l)
);
},
{
closed = 1;
nodes = (
(120,483,o),
(28,377,o),
(28,234,cs),
(28,91,o),
(120,-12,o),
(263,-12,cs),
(409,-12,o),
(476,123,o),
(476,234,cs),
(476,344,o),
(414,483,o),
(263,483,cs)
);
},
{
closed = 1;
nodes = (
(377,455,o),
(472,371,o),
(472,234,cs),
(472,100,o),
(376,15,o),
(262,15,cs),
(146,15,o),
(71,114,o),
(71,234,cs),
(71,356,o),
(148,455,o),
(263,455,cs)
);
}
);
width = 550;
},
{
anchors = (
{
name = top;
pos = (309,472);
}
);
layerId = "6DD95C5A-998B-41AB-BDFB-84A73C209871";
shapes = (
{
closed = 1;
nodes = (
(457,-245,o),
(569,-150,o),
(569,8,c),
(424,8,l),
(424,-90,o),
(375,-141,o),
(299,-141,cs),
(227,-141,o),
(203,-106,o),
(185,-55,c),
(48,-81,l),
(66,-160,o),
(142,-245,o),
(299,-245,cs)
);
},
{
closed = 1;
nodes = (
(424,472,l),
(424,447,l),
(443,234,l),
(424,41,l),
(424,8,l),
(569,8,l),
(568,472,l)
);
},
{
closed = 1;
nodes = (
(118,480,o),
(19,367,o),
(19,234,cs),
(19,100,o),
(118,-11,o),
(268,-11,cs),
(412,-11,o),
(450,71,o),
(450,234,cs),
(450,398,o),
(421,480,o),
(268,480,cs)
);
},
{
closed = 1;
nodes = (
(378,375,o),
(432,327,o),
(432,234,cs),
(432,141,o),
(378,92,o),
(294,92,cs),
(216,92,o),
(171,150,o),
(171,234,cs),
(171,319,o),
(216,375,o),
(294,375,cs)
);
}
);
width = 602;
},
{
anchors = (
{
name = top;
pos = (290,472);
}
);
associatedMasterId = "F5467FAD-1970-4982-B3D3-939C01050498";
layerId = "1A3D1C02-0D7E-4115-85FD-4E4657FDD924";
name = "24 juil. 23  14:37";
shapes = (
{
closed = 1;
nodes = (
(404,-244,o),
(505,-165,o),
(505,-1,c),
(505,472,l),
(463,472,l),
(463,360,l),
(469,303,l),
(447,395,o),
(380,483,o),
(263,483,cs),
(120,483,o),
(28,377,o),
(28,234,cs),
(28,91,o),
(120,-13,o),
(263,-13,cs),
(380,-13,o),
(447,74,o),
(469,165,c),
(463,96,l),
(463,-1,ls),
(463,-144,o),
(376,-217,o),
(269,-217,cs),
(167,-217,o),
(122,-167,o),
(98,-121,c),
(57,-130,l),
(86,-195,o),
(148,-244,o),
(269,-244,cs)
);
},
{
closed = 1;
nodes = (
(147,15,o),
(71,114,o),
(71,234,cs),
(71,356,o),
(148,455,o),
(263,455,cs),
(377,455,o),
(472,371,o),
(472,234,cs),
(472,99,o),
(377,15,o),
(263,15,cs)
);
}
);
width = 553;
},
{
anchors = (
{
name = top;
pos = (309,472);
}
);
associatedMasterId = "6DD95C5A-998B-41AB-BDFB-84A73C209871";
layerId = "EF031D6A-BAE9-4606-BB20-E753BE158385";
name = "24 juil. 23  14:37";
shapes = (
{
closed = 1;
nodes = (
(457,-245,o),
(569,-150,o),
(569,8,c),
(568,472,l),
(424,472,l),
(424,450,l),
(424,427,l),
(389,459,o),
(341,480,o),
(277,480,cs),
(126,480,o),
(28,367,o),
(28,234,cs),
(28,100,o),
(127,-11,o),
(277,-11,cs),
(341,-11,o),
(389,9,o),
(424,41,c),
(424,25,l),
(424,8,ls),
(424,-90,o),
(375,-141,o),
(299,-141,cs),
(227,-141,o),
(203,-106,o),
(185,-55,c),
(48,-81,l),
(66,-160,o),
(142,-245,o),
(299,-245,cs)
);
},
{
closed = 1;
nodes = (
(218,92,o),
(173,150,o),
(173,234,cs),
(173,319,o),
(218,375,o),
(296,375,cs),
(380,375,o),
(434,327,o),
(434,234,cs),
(434,141,o),
(380,92,o),
(296,92,cs)
);
}
);
width = 616;
},
{
anchors = (
{
name = top;
pos = (288,472);
}
);
layerId = "1FDC7037-1F88-4969-8535-0F79C1EF19DB";
shapes = (
{
closed = 1;
nodes = (
(391,-244,o),
(492,-168,o),
(492,-2,c),
(466,-2,l),
(466,-153,o),
(373,-229,o),
(260,-229,cs),
(154,-229,o),
(106,-176,o),
(81,-131,c),
(55,-138,l),
(86,-201,o),
(145,-244,o),
(260,-244,cs)
);
},
{
closed = 1;
nodes = (
(466,472,l),
(466,346,l),
(480,234,l),
(466,121,l),
(466,-2,l),
(492,-2,l),
(491,472,l)
);
},
{
closed = 1;
nodes = (
(120,483,o),
(30,379,o),
(30,234,cs),
(30,91,o),
(120,-12,o),
(262,-12,cs),
(409,-12,o),
(480,131,o),
(480,234,cs),
(480,336,o),
(413,483,o),
(262,483,cs)
);
},
{
closed = 1;
nodes = (
(377,467,o),
(478,377,o),
(478,234,cs),
(478,93,o),
(376,3,o),
(257,3,cs),
(135,3,o),
(55,108,o),
(55,234,cs),
(55,361,o),
(137,467,o),
(258,467,cs)
);
}
);
width = 541;
},
{
anchors = (
{
name = top;
pos = (314,472);
}
);
layerId = "3ED9E848-BE83-4CAC-8EFF-D71BD2B4F667";
shapes = (
{
closed = 1;
nodes = (
(472,-245,o),
(585,-146,o),
(585,9,c),
(416,9,l),
(416,-76,o),
(375,-122,o),
(307,-122,cs),
(243,-122,o),
(223,-91,o),
(207,-39,c),
(47,-69,l),
(62,-152,o),
(141,-245,o),
(307,-245,cs)
);
},
{
closed = 1;
nodes = (
(416,472,l),
(416,469,l),
(436,234,l),
(416,24,l),
(416,9,l),
(585,9,l),
(584,472,l)
);
},
{
closed = 1;
nodes = (
(118,479,o),
(17,364,o),
(17,234,cs),
(17,102,o),
(118,-11,o),
(269,-11,cs),
(413,-11,o),
(443,58,o),
(443,234,cs),
(443,411,o),
(422,479,o),
(269,479,cs)
);
},
{
closed = 1;
nodes = (
(378,356,o),
(422,317,o),
(422,234,cs),
(422,152,o),
(378,111,o),
(302,111,cs),
(233,111,o),
(195,158,o),
(195,234,cs),
(195,309,o),
(233,356,o),
(302,356,cs)
);
}
);
width = 614;
}
);
note = g;
unicode = 103;
},
{
glyphname = h;
kernLeft = b;
kernRight = a;
lastChange = "2023-10-27 15:22:10 +0000";
layers = (
{
anchors = (
{
name = bottom;
pos = (269,0);
},
{
name = top;
pos = (269,660);
}
);
layerId = "F5467FAD-1970-4982-B3D3-939C01050498";
shapes = (
{
closed = 1;
nodes = (
(89,0,l),
(89,261,l),
(105,396,o),
(206,454,o),
(290,454,cs),
(407,454,o),
(450,375,o),
(450,287,cs),
(450,1,l),
(491,1,l),
(491,287,ls),
(491,386,o),
(455,477,o),
(302,477,cs),
(212,477,o),
(117,410,o),
(89,323,c),
(89,660,l),
(47,660,l),
(47,0,l)
);
}
);
width = 539;
},
{
anchors = (
{
name = bottom;
pos = (292,0);
},
{
name = top;
pos = (292,660);
}
);
layerId = "6DD95C5A-998B-41AB-BDFB-84A73C209871";
shapes = (
{
closed = 1;
nodes = (
(186,0,l),
(186,225,l),
(186,335,o),
(252,376,o),
(311,376,cs),
(371,376,o),
(391,340,o),
(391,277,cs),
(391,0,l),
(538,0,l),
(538,277,ls),
(538,369,o),
(497,478,o),
(322,478,cs),
(261,478,o),
(216,456,o),
(186,422,c),
(186,660,l),
(42,660,l),
(42,0,l)
);
}
);
width = 585;
},
{
anchors = (
{
name = bottom;
pos = (265,0);
},
{
name = top;
pos = (265,660);
}
);
layerId = "1FDC7037-1F88-4969-8535-0F79C1EF19DB";
shapes = (
{
closed = 1;
nodes = (
(74,0,l),
(74,267,l),
(91,405,o),
(198,466,o),
(286,466,cs),
(413,466,o),
(459,381,o),
(459,289,cs),
(459,1,l),
(484,1,l),
(484,289,ls),
(484,389,o),
(448,477,o),
(299,477,cs),
(204,477,o),
(101,404,o),
(74,307,c),
(74,660,l),
(48,660,l),
(48,0,l)
);
}
);
width = 532;
},
{
anchors = (
{
name = bottom;
pos = (298,0);
},
{
name = top;
pos = (298,660);
}
);
layerId = "3ED9E848-BE83-4CAC-8EFF-D71BD2B4F667";
shapes = (
{
closed = 1;
nodes = (
(209,0,l),
(209,217,l),
(206,320,o),
(263,357,o),
(317,357,cs),
(362,357,o),
(376,332,o),
(376,275,cs),
(376,0,l),
(549,0,l),
(549,275,ls),
(549,365,o),
(507,478,o),
(326,478,cs),
(273,478,o),
(241,468,o),
(209,446,c),
(209,660,l),
(41,660,l),
(41,0,l)
);
}
);
width = 596;
}
);
note = h;
unicode = 104;
},
{
glyphname = hbar;
lastChange = "2023-10-27 15:22:10 +0000";
layers = (
{
layerId = "F5467FAD-1970-4982-B3D3-939C01050498";
shapes = (
{
closed = 1;
nodes = (
(178,595,l),
(8,595,l),
(8,555,l),
(178,555,l)
);
},
{
ref = h;
}
);
width = 539;
},
{
layerId = "6DD95C5A-998B-41AB-BDFB-84A73C209871";
shapes = (
{
closed = 1;
nodes = (
(323,611,l),
(8,611,l),
(8,521,l),
(323,521,l)
);
},
{
ref = h;
}
);
width = 585;
},
{
layerId = "1FDC7037-1F88-4969-8535-0F79C1EF19DB";
shapes = (
{
closed = 1;
nodes = (
(156,592,l),
(8,592,l),
(8,561,l),
(156,561,l)
);
},
{
ref = h;
}
);
width = 532;
},
{
layerId = "3ED9E848-BE83-4CAC-8EFF-D71BD2B4F667";
shapes = (
{
closed = 1;
nodes = (
(358,615,l),
(8,615,l),
(8,513,l),
(358,513,l)
);
},
{
ref = h;
}
);
width = 596;
}
);
unicode = 295;
},
{
glyphname = idotless;
kernLeft = i;
kernRight = i;
lastChange = "2023-10-27 15:22:10 +0000";
layers = (
{
anchors = (
{
name = bottom;
pos = (96,0);
},
{
name = ogonek;
pos = (75,0);
},
{
name = top;
pos = (96,472);
}
);
layerId = "F5467FAD-1970-4982-B3D3-939C01050498";
shapes = (
{
closed = 1;
nodes = (
(117,0,l),
(117,472,l),
(75,472,l),
(75,0,l)
);
}
);
width = 192;
},
{
anchors = (
{
name = bottom;
pos = (147,0);
},
{
name = ogonek;
pos = (75,0);
},
{
name = top;
pos = (147,472);
}
);
layerId = "6DD95C5A-998B-41AB-BDFB-84A73C209871";
shapes = (
{
closed = 1;
nodes = (
(219,0,l),
(219,472,l),
(75,472,l),
(75,0,l)
);
}
);
width = 294;
},
{
anchors = (
{
name = bottom;
pos = (88,0);
},
{
name = ogonek;
pos = (75,0);
},
{
name = top;
pos = (88,472);
}
);
layerId = "1FDC7037-1F88-4969-8535-0F79C1EF19DB";
shapes = (
{
closed = 1;
nodes = (
(101,0,l),
(101,472,l),
(75,472,l),
(75,0,l)
);
}
);
width = 176;
},
{
anchors = (
{
name = bottom;
pos = (159,0);
},
{
name = ogonek;
pos = (75,0);
},
{
name = top;
pos = (159,472);
}
);
layerId = "3ED9E848-BE83-4CAC-8EFF-D71BD2B4F667";
shapes = (
{
closed = 1;
nodes = (
(244,0,l),
(244,472,l),
(75,472,l),
(75,0,l)
);
}
);
width = 320;
}
);
note = dotlessi;
unicode = 305;
},
{
glyphname = jdotless;
lastChange = "2023-10-27 15:22:10 +0000";
layers = (
{
anchors = (
{
name = top;
pos = (96,472);
}
);
layerId = "F5467FAD-1970-4982-B3D3-939C01050498";
shapes = (
{
closed = 1;
nodes = (
(94,-245,o),
(117,-127,o),
(117,-66,cs),
(117,472,l),
(75,472,l),
(75,-66,ls),
(75,-176,o),
(32,-219,o),
(-56,-219,cs),
(-105,-219,o),
(-137,-193,o),
(-161,-166,c),
(-197,-191,l),
(-170,-219,o),
(-128,-245,o),
(-56,-245,cs)
);
}
);
width = 192;
},
{
anchors = (
{
name = top;
pos = (147,472);
}
);
layerId = "6DD95C5A-998B-41AB-BDFB-84A73C209871";
shapes = (
{
closed = 1;
nodes = (
(175,-245,o),
(219,-136,o),
(219,-58,cs),
(219,472,l),
(75,472,l),
(75,-58,ls),
(75,-99,o),
(57,-135,o),
(2,-135,cs),
(-43,-135,o),
(-55,-91,o),
(-60,-68,c),
(-165,-147,l),
(-147,-173,o),
(-90,-245,o),
(21,-245,cs)
);
}
);
width = 294;
},
{
anchors = (
{
name = top;
pos = (88,472);
}
);
layerId = "1FDC7037-1F88-4969-8535-0F79C1EF19DB";
shapes = (
{
closed = 1;
nodes = (
(81,-245,o),
(101,-126,o),
(101,-67,cs),
(101,472,l),
(75,472,l),
(75,-67,ls),
(75,-189,o),
(28,-232,o),
(-65,-232,cs),
(-114,-232,o),
(-150,-209,o),
(-177,-182,c),
(-202,-199,l),
(-174,-226,o),
(-135,-245,o),
(-68,-245,cs)
);
}
);
width = 176;
},
{
anchors = (
{
name = top;
pos = (159,472);
}
);
layerId = "3ED9E848-BE83-4CAC-8EFF-D71BD2B4F667";
shapes = (
{
closed = 1;
nodes = (
(195,-245,o),
(244,-138,o),
(244,-57,cs),
(244,472,l),
(75,472,l),
(75,-57,ls),
(75,-80,o),
(62,-114,o),
(16,-114,cs),
(-28,-114,o),
(-35,-65,o),
(-36,-43,c),
(-157,-136,l),
(-141,-161,o),
(-80,-245,o),
(40,-245,cs)
);
}
);
width = 320;
}
);
unicode = 567;
},
{
glyphname = k;
kernLeft = b;
kernRight = k;
lastChange = "2023-10-27 15:22:10 +0000";
layers = (
{
anchors = (
{
name = bottom;
pos = (202,0);
},
{
name = top;
pos = (202,472);
}
);
layerId = "F5467FAD-1970-4982-B3D3-939C01050498";
shapes = (
{
closed = 1;
nodes = (
(89,0,l),
(89,192,l),
(78,158,l),
(205,290,l),
(180,288,l),
(372,0,l),
(422,0,l),
(210,319,l),
(205,290,l),
(380,472,l),
(330,472,l),
(76,208,l),
(89,208,l),
(89,660,l),
(47,660,l),
(47,0,l)
);
}
);
width = 440;
},
{
anchors = (
{
name = bottom;
pos = (281,0);
},
{
name = top;
pos = (281,472);
}
);
layerId = "6DD95C5A-998B-41AB-BDFB-84A73C209871";
shapes = (
{
closed = 1;
nodes = (
(190,0,l),
(190,141,l),
(165,91,l),
(306,240,l),
(207,245,l),
(369,0,l),
(529,0,l),
(303,344,l),
(306,240,l),
(522,472,l),
(362,472,l),
(175,275,l),
(190,275,l),
(190,660,l),
(47,660,l),
(47,0,l)
);
}
);
width = 548;
},
{
anchors = (
{
name = bottom;
pos = (190,0);
},
{
name = top;
pos = (190,472);
}
);
layerId = "1FDC7037-1F88-4969-8535-0F79C1EF19DB";
shapes = (
{
closed = 1;
nodes = (
(73,0,l),
(73,201,l),
(64,170,l),
(189,297,l),
(176,294,l),
(373,0,l),
(405,0,l),
(195,315,l),
(189,297,l),
(357,472,l),
(325,472,l),
(60,198,l),
(73,198,l),
(73,660,l),
(47,660,l),
(47,0,l)
);
}
);
width = 423;
},
{
anchors = (
{
name = bottom;
pos = (301,0);
},
{
name = top;
pos = (301,472);
}
);
layerId = "3ED9E848-BE83-4CAC-8EFF-D71BD2B4F667";
shapes = (
{
closed = 1;
nodes = (
(216,0,l),
(216,129,l),
(187,74,l),
(332,227,l),
(213,235,l),
(368,0,l),
(555,0,l),
(325,351,l),
(332,227,l),
(557,472,l),
(370,472,l),
(200,291,l),
(216,291,l),
(216,660,l),
(47,660,l),
(47,0,l)
);
}
);
width = 574;
}
);
note = k;
unicode = 107;
},
{
glyphname = kgreenlandic;
lastChange = "2023-10-27 15:22:10 +0000";
layers = (
{
layerId = "F5467FAD-1970-4982-B3D3-939C01050498";
shapes = (
{
closed = 1;
nodes = (
(89,0,l),
(89,192,l),
(78,158,l),
(205,290,l),
(180,288,l),
(372,0,l),
(422,0,l),
(210,319,l),
(205,290,l),
(380,472,l),
(330,472,l),
(76,208,l),
(89,208,l),
(89,472,l),
(47,472,l),
(47,0,l)
);
}
);
width = 440;
},
{
layerId = "6DD95C5A-998B-41AB-BDFB-84A73C209871";
shapes = (
{
closed = 1;
nodes = (
(190,0,l),
(190,141,l),
(165,91,l),
(306,240,l),
(207,245,l),
(369,0,l),
(529,0,l),
(303,344,l),
(306,240,l),
(522,472,l),
(362,472,l),
(175,275,l),
(190,275,l),
(190,472,l),
(47,472,l),
(47,0,l)
);
}
);
width = 548;
},
{
layerId = "1FDC7037-1F88-4969-8535-0F79C1EF19DB";
shapes = (
{
closed = 1;
nodes = (
(73,0,l),
(73,201,l),
(64,170,l),
(189,297,l),
(176,294,l),
(373,0,l),
(405,0,l),
(195,315,l),
(189,297,l),
(357,472,l),
(325,472,l),
(60,198,l),
(73,198,l),
(73,472,l),
(47,472,l),
(47,0,l)
);
}
);
width = 423;
},
{
layerId = "3ED9E848-BE83-4CAC-8EFF-D71BD2B4F667";
shapes = (
{
closed = 1;
nodes = (
(216,0,l),
(216,129,l),
(187,74,l),
(332,227,l),
(213,235,l),
(368,0,l),
(555,0,l),
(325,351,l),
(332,227,l),
(557,472,l),
(370,472,l),
(200,291,l),
(216,291,l),
(216,472,l),
(47,472,l),
(47,0,l)
);
}
);
width = 574;
}
);
metricLeft = k;
metricRight = k;
unicode = 312;
},
{
glyphname = l;
kernLeft = b;
kernRight = l;
lastChange = "2023-10-27 15:22:10 +0000";
layers = (
{
anchors = (
{
name = bottom;
pos = (96,0);
},
{
name = top;
pos = (117,472);
}
);
layerId = "F5467FAD-1970-4982-B3D3-939C01050498";
shapes = (
{
closed = 1;
nodes = (
(117,0,l),
(117,660,l),
(75,660,l),
(75,0,l)
);
}
);
width = 192;
},
{
anchors = (
{
name = bottom;
pos = (147,0);
},
{
name = top;
pos = (219,472);
}
);
layerId = "6DD95C5A-998B-41AB-BDFB-84A73C209871";
shapes = (
{
closed = 1;
nodes = (
(219,0,l),
(219,660,l),
(75,660,l),
(75,0,l)
);
}
);
width = 294;
},
{
anchors = (
{
name = bottom;
pos = (88,0);
},
{
name = top;
pos = (101,472);
}
);
layerId = "1FDC7037-1F88-4969-8535-0F79C1EF19DB";
shapes = (
{
closed = 1;
nodes = (
(101,0,l),
(101,660,l),
(75,660,l),
(75,0,l)
);
}
);
width = 176;
},
{
anchors = (
{
name = bottom;
pos = (159,0);
},
{
name = top;
pos = (244,472);
}
);
layerId = "3ED9E848-BE83-4CAC-8EFF-D71BD2B4F667";
shapes = (
{
closed = 1;
nodes = (
(244,0,l),
(244,660,l),
(75,660,l),
(75,0,l)
);
}
);
width = 320;
}
);
note = l;
unicode = 108;
},
{
glyphname = lslash;
lastChange = "2023-10-27 15:22:10 +0000";
layers = (
{
layerId = "F5467FAD-1970-4982-B3D3-939C01050498";
shapes = (
{
closed = 1;
nodes = (
(195,0,l),
(195,359,l),
(366,408,l),
(366,443,l),
(195,394,l),
(195,660,l),
(154,660,l),
(154,382,l),
(79,361,l),
(79,326,l),
(154,348,l),
(154,0,l)
);
}
);
width = 445;
},
{
layerId = "6DD95C5A-998B-41AB-BDFB-84A73C209871";
shapes = (
{
closed = 1;
nodes = (
(314,0,l),
(314,343,l),
(396,367,l),
(395,483,l),
(314,459,l),
(314,660,l),
(171,660,l),
(171,419,l),
(49,384,l),
(50,268,l),
(171,303,l),
(171,0,l)
);
}
);
width = 445;
},
{
layerId = "1FDC7037-1F88-4969-8535-0F79C1EF19DB";
shapes = (
{
closed = 1;
nodes = (
(176,0,l),
(176,362,l),
(361,415,l),
(361,437,l),
(176,384,l),
(176,660,l),
(151,660,l),
(151,376,l),
(84,357,l),
(84,336,l),
(151,355,l),
(151,0,l)
);
}
);
width = 445;
},
{
layerId = "3ED9E848-BE83-4CAC-8EFF-D71BD2B4F667";
shapes = (
{
closed = 1;
nodes = (
(343,0,l),
(343,339,l),
(404,356,l),
(403,492,l),
(343,475,l),
(343,660,l),
(174,660,l),
(174,427,l),
(41,389,l),
(42,254,l),
(174,291,l),
(174,0,l)
);
}
);
width = 445;
}
);
note = lslash;
unicode = 322;
},
{
glyphname = m;
kernLeft = m;
kernRight = a;
lastChange = "2023-10-27 15:22:10 +0000";
layers = (
{
anchors = (
{
name = bottom;
pos = (460,0);
},
{
name = top;
pos = (460,660);
}
);
background = {
shapes = (
{
closed = 1;
nodes = (
(89,0,l),
(89,269,l),
(108,398,o),
(205,454,o),
(285,454,cs),
(403,454,o),
(443,374,o),
(443,287,cs),
(443,0,l),
(485,0,l),
(485,269,l),
(504,398,o),
(603,454,o),
(685,454,cs),
(802,454,o),
(844,375,o),
(844,287,cs),
(844,0,l),
(885,0,l),
(885,287,ls),
(885,386,o),
(849,481,o),
(696,481,cs),
(595,481,o),
(507,408,o),
(484,316,c),
(476,404,o),
(432,481,o),
(297,481,cs),
(207,481,o),
(121,420,o),
(89,338,c),
(89,472,l),
(47,472,l),
(47,0,l)
);
}
);
};
layerId = "F5467FAD-1970-4982-B3D3-939C01050498";
shapes = (
{
closed = 1;
nodes = (
(211,478,o),
(117,430,o),
(89,323,c),
(89,472,l),
(47,472,l),
(47,1,l),
(89,1,l),
(89,220,ls),
(89,398,o),
(210,445,o),
(294,445,cs),
(403,445,o),
(440,375,o),
(440,287,cs),
(440,1,l),
(482,1,l),
(482,287,ls),
(482,386,o),
(455,478,o),
(302,478,cs)
);
},
{
closed = 1;
nodes = (
(605,478,o),
(480,430,o),
(467,266,c),
(482,220,l),
(482,398,o),
(604,445,o),
(688,445,cs),
(806,445,o),
(844,375,o),
(844,287,cs),
(844,1,l),
(885,1,l),
(885,287,ls),
(885,386,o),
(849,478,o),
(696,478,cs)
);
}
);
width = 920;
},
{
anchors = (
{
name = bottom;
pos = (453,0);
},
{
name = top;
pos = (453,660);
}
);
background = {
shapes = (
{
closed = 1;
nodes = (
(186,0,l),
(186,225,l),
(186,335,o),
(252,376,o),
(311,376,cs),
(371,376,o),
(391,340,o),
(391,277,cs),
(391,0,l),
(538,0,l),
(538,270,l),
(553,346,o),
(608,378,o),
(660,378,cs),
(720,378,o),
(741,340,o),
(741,277,cs),
(741,0,l),
(890,0,l),
(890,277,ls),
(890,369,o),
(849,480,o),
(670,480,cs),
(595,480,o),
(541,445,o),
(508,394,c),
(478,442,o),
(422,478,o),
(322,478,cs),
(261,478,o),
(217,456,o),
(186,422,c),
(186,472,l),
(42,472,l),
(42,0,l)
);
}
);
};
layerId = "6DD95C5A-998B-41AB-BDFB-84A73C209871";
shapes = (
{
closed = 1;
nodes = (
(261,478,o),
(201,447,o),
(186,398,c),
(186,472,l),
(42,472,l),
(42,0,l),
(186,0,l),
(186,254,ls),
(186,339,o),
(245,376,o),
(305,376,cs),
(355,376,o),
(382,340,o),
(382,277,cs),
(382,0,l),
(528,0,l),
(528,277,ls),
(528,369,o),
(488,478,o),
(322,478,cs)
);
},
{
closed = 1;
nodes = (
(534,478,o),
(488,372,o),
(474,300,c),
(528,254,l),
(528,339,o),
(587,376,o),
(647,376,cs),
(706,376,o),
(734,340,o),
(734,277,cs),
(734,0,l),
(880,0,l),
(880,277,ls),
(880,369,o),
(839,478,o),
(664,478,cs)
);
}
);
width = 937;
},
{
associatedMasterId = "F5467FAD-1970-4982-B3D3-939C01050498";
layerId = "64CD0211-15FE-4936-BA61-E1070913194B";
name = "23 juil. 23  22:09";
shapes = (
{
closed = 1;
nodes = (
(89,0,l),
(89,269,l),
(108,398,o),
(205,454,o),
(285,454,cs),
(403,454,o),
(443,374,o),
(443,287,cs),
(443,0,l),
(485,0,l),
(485,269,l),
(504,398,o),
(603,454,o),
(685,454,cs),
(802,454,o),
(844,375,o),
(844,287,cs),
(844,0,l),
(885,0,l),
(885,287,ls),
(885,386,o),
(849,481,o),
(696,481,cs),
(595,481,o),
(507,408,o),
(484,316,c),
(476,404,o),
(432,481,o),
(297,481,cs),
(207,481,o),
(120,420,o),
(89,337,c),
(89,472,l),
(47,472,l),
(47,0,l)
);
}
);
width = 920;
},
{
associatedMasterId = "6DD95C5A-998B-41AB-BDFB-84A73C209871";
layerId = "1D003824-EE15-49CD-8401-78CCFECE2030";
name = "23 juil. 23  22:09";
shapes = (
{
closed = 1;
nodes = (
(186,0,l),
(186,225,l),
(186,335,o),
(252,376,o),
(311,376,cs),
(371,376,o),
(391,340,o),
(391,277,cs),
(391,0,l),
(538,0,l),
(538,271,l),
(553,346,o),
(608,378,o),
(659,378,cs),
(720,378,o),
(741,340,o),
(741,277,cs),
(741,0,l),
(890,0,l),
(890,277,ls),
(890,369,o),
(850,480,o),
(670,480,cs),
(595,480,o),
(541,446,o),
(508,394,c),
(478,442,o),
(422,478,o),
(322,478,cs),
(261,478,o),
(216,456,o),
(186,422,c),
(186,472,l),
(42,472,l),
(42,0,l)
);
}
);
width = 937;
},
{
anchors = (
{
name = bottom;
pos = (461,0);
},
{
name = top;
pos = (461,660);
}
);
layerId = "1FDC7037-1F88-4969-8535-0F79C1EF19DB";
shapes = (
{
closed = 1;
nodes = (
(204,478,o),
(95,416,o),
(74,277,c),
(74,472,l),
(48,472,l),
(48,1,l),
(74,1,l),
(74,214,ls),
(74,407,o),
(205,456,o),
(292,456,cs),
(410,456,o),
(450,381,o),
(450,289,cs),
(450,1,l),
(474,1,l),
(474,289,ls),
(474,389,o),
(449,478,o),
(299,478,cs)
);
},
{
closed = 1;
nodes = (
(617,478,o),
(482,423,o),
(469,244,c),
(474,214,l),
(474,407,o),
(607,456,o),
(695,456,cs),
(822,456,o),
(862,381,o),
(862,289,cs),
(862,1,l),
(886,1,l),
(886,289,ls),
(886,389,o),
(851,478,o),
(701,478,cs)
);
}
);
width = 918;
},
{
anchors = (
{
name = bottom;
pos = (451,0);
},
{
name = top;
pos = (451,660);
}
);
layerId = "3ED9E848-BE83-4CAC-8EFF-D71BD2B4F667";
shapes = (
{
closed = 1;
nodes = (
(273,478,o),
(222,451,o),
(209,416,c),
(209,472,l),
(41,472,l),
(41,0,l),
(209,0,l),
(209,262,ls),
(209,325,o),
(254,359,o),
(307,359,cs),
(342,359,o),
(368,332,o),
(368,275,cs),
(368,0,l),
(539,0,l),
(539,275,ls),
(539,365,o),
(496,478,o),
(326,478,cs)
);
},
{
closed = 1;
nodes = (
(516,478,o),
(490,358,o),
(476,308,c),
(539,262,l),
(539,325,o),
(584,359,o),
(637,359,cs),
(682,359,o),
(706,332,o),
(706,275,cs),
(706,0,l),
(879,0,l),
(879,275,ls),
(879,365,o),
(837,478,o),
(656,478,cs)
);
}
);
width = 942;
}
);
note = m;
unicode = 109;
},
{
glyphname = n;
kernLeft = m;
kernRight = a;
lastChange = "2023-10-27 15:22:10 +0000";
layers = (
{
anchors = (
{
name = bottom;
pos = (273,0);
},
{
name = top;
pos = (264,472);
}
);
layerId = "F5467FAD-1970-4982-B3D3-939C01050498";
shapes = (
{
closed = 1;
nodes = (
(211,478,o),
(117,430,o),
(89,323,c),
(89,472,l),
(47,472,l),
(47,0,l),
(89,0,l),
(89,220,ls),
(89,398,o),
(210,445,o),
(294,445,cs),
(412,445,o),
(450,375,o),
(450,287,cs),
(450,0,l),
(491,0,l),
(491,287,ls),
(491,386,o),
(455,478,o),
(302,478,cs)
);
}
);
width = 538;
},
{
anchors = (
{
name = bottom;
pos = (283,0);
},
{
name = top;
pos = (273,472);
}
);
layerId = "6DD95C5A-998B-41AB-BDFB-84A73C209871";
shapes = (
{
closed = 1;
nodes = (
(261,478,o),
(201,447,o),
(186,398,c),
(186,472,l),
(42,472,l),
(42,0,l),
(186,0,l),
(186,254,ls),
(186,339,o),
(245,376,o),
(305,376,cs),
(364,376,o),
(391,340,o),
(391,277,cs),
(391,0,l),
(538,0,l),
(538,277,ls),
(538,369,o),
(497,478,o),
(322,478,cs)
);
}
);
width = 566;
},
{
associatedMasterId = "F5467FAD-1970-4982-B3D3-939C01050498";
layerId = "3C353789-449F-4092-BEE0-4CA981632AB3";
name = "23 juil. 23  22:05";
shapes = (
{
closed = 1;
nodes = (
(211,478,o),
(117,411,o),
(89,323,c),
(89,472,l),
(47,472,l),
(47,1,l),
(89,1,l),
(89,261,l),
(105,396,o),
(206,455,o),
(290,455,cs),
(407,455,o),
(450,375,o),
(450,287,cs),
(450,1,l),
(491,1,l),
(491,287,ls),
(491,386,o),
(455,478,o),
(302,478,cs)
);
}
);
width = 538;
},
{
associatedMasterId = "6DD95C5A-998B-41AB-BDFB-84A73C209871";
layerId = "7BB64EC5-02E9-450E-915E-662FFD7665C3";
name = "23 juil. 23  22:05";
shapes = (
{
closed = 1;
nodes = (
(261,478,o),
(216,456,o),
(186,422,c),
(186,472,l),
(42,472,l),
(42,0,l),
(186,0,l),
(186,225,l),
(186,335,o),
(252,376,o),
(311,376,cs),
(371,376,o),
(391,340,o),
(391,277,cs),
(391,0,l),
(538,0,l),
(538,277,ls),
(538,369,o),
(497,478,o),
(322,478,cs)
);
}
);
width = 566;
},
{
anchors = (
{
name = bottom;
pos = (272,0);
},
{
name = top;
pos = (262,472);
}
);
layerId = "1FDC7037-1F88-4969-8535-0F79C1EF19DB";
shapes = (
{
closed = 1;
nodes = (
(181,478,o),
(93,393,o),
(74,274,c),
(74,472,l),
(48,472,l),
(48,0,l),
(74,0,l),
(74,214,ls),
(74,407,o),
(205,456,o),
(292,456,cs),
(420,456,o),
(459,381,o),
(459,289,cs),
(459,0,l),
(484,0,l),
(484,289,ls),
(484,389,o),
(448,478,o),
(299,478,cs)
);
}
);
width = 535;
},
{
anchors = (
{
name = bottom;
pos = (286,0);
},
{
name = top;
pos = (276,472);
}
);
layerId = "3ED9E848-BE83-4CAC-8EFF-D71BD2B4F667";
shapes = (
{
closed = 1;
nodes = (
(273,478,o),
(222,451,o),
(209,416,c),
(209,472,l),
(41,472,l),
(41,0,l),
(209,0,l),
(209,262,ls),
(209,325,o),
(254,359,o),
(307,359,cs),
(352,359,o),
(377,332,o),
(377,275,cs),
(376,0,l),
(549,0,l),
(549,275,ls),
(549,365,o),
(507,478,o),
(326,478,cs)
);
}
);
width = 572;
}
);
note = n;
unicode = 110;
},
{
glyphname = nhookleft;
lastChange = "2023-10-27 15:22:10 +0000";
layers = (
{
layerId = "F5467FAD-1970-4982-B3D3-939C01050498";
shapes = (
{
closed = 1;
nodes = (
(47,0,l),
(47,-118,ls),
(47,-150,o),
(34,-157,o),
(19,-157,cs),
(-2,-157,o),
(-28,-148,o),
(-53,-127,c),
(-57,-159,l),
(-42,-174,o),
(-12,-191,o),
(19,-191,cs),
(74,-191,o),
(89,-150,o),
(89,-118,cs),
(89,0,l)
);
},
{
ref = n;
}
);
width = 538;
},
{
layerId = "6DD95C5A-998B-41AB-BDFB-84A73C209871";
shapes = (
{
closed = 1;
nodes = (
(42,0,l),
(42,-61,ls),
(42,-93,o),
(29,-100,o),
(14,-100,cs),
(-7,-100,o),
(-33,-91,o),
(-58,-71,c),
(-58,-159,l),
(-34,-174,o),
(-1,-191,o),
(50,-191,cs),
(119,-191,o),
(186,-150,o),
(186,-61,cs),
(186,0,l)
);
},
{
ref = n;
}
);
width = 566;
},
{
layerId = "1FDC7037-1F88-4969-8535-0F79C1EF19DB";
shapes = (
{
closed = 1;
nodes = (
(48,0,l),
(48,-127,ls),
(48,-159,o),
(35,-166,o),
(20,-166,cs),
(-1,-166,o),
(-27,-157,o),
(-52,-137,c),
(-57,-159,l),
(-43,-174,o),
(-14,-191,o),
(14,-191,cs),
(67,-191,o),
(74,-150,o),
(74,-127,cs),
(74,0,l)
);
},
{
ref = n;
}
);
width = 535;
},
{
layerId = "3ED9E848-BE83-4CAC-8EFF-D71BD2B4F667";
shapes = (
{
closed = 1;
nodes = (
(41,0,l),
(41,-47,ls),
(41,-79,o),
(28,-86,o),
(13,-86,cs),
(-8,-86,o),
(-34,-77,o),
(-58,-57,c),
(-58,-159,l),
(-32,-174,o),
(2,-191,o),
(58,-191,cs),
(130,-191,o),
(209,-150,o),
(209,-47,cs),
(209,0,l)
);
},
{
ref = n;
}
);
width = 572;
}
);
unicode = 626;
},
{
glyphname = eng;
lastChange = "2023-10-27 15:22:10 +0000";
layers = (
{
layerId = "F5467FAD-1970-4982-B3D3-939C01050498";
shapes = (
{
closed = 1;
nodes = (
(450,0,l),
(450,-118,ls),
(450,-143,o),
(439,-157,o),
(406,-157,cs),
(386,-157,o),
(366,-148,o),
(341,-127,c),
(338,-159,l),
(356,-174,o),
(382,-191,o),
(413,-191,cs),
(469,-191,o),
(491,-159,o),
(491,-118,cs),
(491,0,l)
);
},
{
ref = n;
}
);
width = 538;
},
{
layerId = "6DD95C5A-998B-41AB-BDFB-84A73C209871";
shapes = (
{
closed = 1;
nodes = (
(391,0,l),
(391,-61,ls),
(391,-93,o),
(376,-100,o),
(361,-100,cs),
(340,-100,o),
(314,-91,o),
(290,-71,c),
(290,-159,l),
(313,-174,o),
(346,-191,o),
(397,-191,cs),
(466,-191,o),
(538,-150,o),
(538,-61,cs),
(538,0,l)
);
},
{
ref = n;
}
);
width = 566;
},
{
layerId = "1FDC7037-1F88-4969-8535-0F79C1EF19DB";
shapes = (
{
closed = 1;
nodes = (
(459,0,l),
(459,-127,ls),
(459,-151,o),
(450,-166,o),
(414,-166,cs),
(393,-166,o),
(374,-157,o),
(350,-137,c),
(345,-159,l),
(362,-174,o),
(388,-191,o),
(416,-191,cs),
(469,-191,o),
(484,-161,o),
(484,-127,cs),
(484,0,l)
);
},
{
ref = n;
}
);
width = 535;
},
{
layerId = "3ED9E848-BE83-4CAC-8EFF-D71BD2B4F667";
shapes = (
{
closed = 1;
nodes = (
(377,0,l),
(377,-47,ls),
(377,-81,o),
(361,-86,o),
(350,-86,cs),
(329,-86,o),
(301,-77,o),
(276,-57,c),
(277,-159,l),
(303,-174,o),
(338,-191,o),
(393,-191,cs),
(465,-191,o),
(549,-147,o),
(549,-47,cs),
(549,0,l)
);
},
{
ref = n;
}
);
width = 572;
}
);
unicode = 331;
},
{
glyphname = o;
kernLeft = a;
kernRight = o;
lastChange = "2023-10-27 15:22:10 +0000";
layers = (
{
anchors = (
{
name = bottom;
pos = (273,0);
},
{
name = ogonek;
pos = (301,0);
},
{
name = top;
pos = (273,472);
}
);
layerId = "F5467FAD-1970-4982-B3D3-939C01050498";
shapes = (
{
closed = 1;
nodes = (
(418,-13,o),
(516,92,o),
(516,233,cs),
(516,374,o),
(417,483,o),
(273,483,cs),
(127,483,o),
(28,374,o),
(28,233,cs),
(28,92,o),
(126,-13,o),
(273,-13,cs)
);
},
{
closed = 1;
nodes = (
(151,13,o),
(75,107,o),
(75,233,cs),
(75,360,o),
(151,456,o),
(272,456,cs),
(392,456,o),
(468,360,o),
(468,233,cs),
(468,107,o),
(392,13,o),
(272,13,cs)
);
}
);
width = 544;
},
{
anchors = (
{
name = bottom;
pos = (285,0);
},
{
name = ogonek;
pos = (301,0);
},
{
name = top;
pos = (285,472);
}
);
layerId = "6DD95C5A-998B-41AB-BDFB-84A73C209871";
shapes = (
{
closed = 1;
nodes = (
(437,-11,o),
(539,102,o),
(539,233,cs),
(539,365,o),
(437,481,o),
(285,481,cs),
(133,481,o),
(30,365,o),
(30,233,cs),
(30,102,o),
(133,-11,o),
(285,-11,cs)
);
},
{
closed = 1;
nodes = (
(217,88,o),
(165,135,o),
(165,233,cs),
(165,332,o),
(217,379,o),
(285,379,cs),
(353,379,o),
(405,332,o),
(405,233,cs),
(405,135,o),
(353,88,o),
(285,88,cs)
);
}
);
width = 551;
},
{
anchors = (
{
name = bottom;
pos = (271,0);
},
{
name = ogonek;
pos = (301,0);
},
{
name = top;
pos = (271,472);
}
);
layerId = "1FDC7037-1F88-4969-8535-0F79C1EF19DB";
shapes = (
{
closed = 1;
nodes = (
(415,-13,o),
(512,91,o),
(512,233,cs),
(512,376,o),
(414,483,o),
(271,483,cs),
(126,483,o),
(28,376,o),
(28,233,cs),
(28,91,o),
(125,-13,o),
(271,-13,cs)
);
},
{
closed = 1;
nodes = (
(141,1,o),
(61,102,o),
(61,233,cs),
(61,365,o),
(141,469,o),
(270,469,cs),
(399,469,o),
(478,365,o),
(478,233,cs),
(478,102,o),
(399,1,o),
(270,1,cs)
);
}
);
width = 543;
},
{
anchors = (
{
name = bottom;
pos = (288,0);
},
{
name = ogonek;
pos = (301,0);
},
{
name = top;
pos = (288,472);
}
);
layerId = "3ED9E848-BE83-4CAC-8EFF-D71BD2B4F667";
shapes = (
{
closed = 1;
nodes = (
(441,-11,o),
(545,105,o),
(545,233,cs),
(545,363,o),
(441,481,o),
(288,481,cs),
(135,481,o),
(31,363,o),
(31,233,cs),
(31,105,o),
(135,-11,o),
(288,-11,cs)
);
},
{
closed = 1;
nodes = (
(234,106,o),
(187,141,o),
(187,233,cs),
(187,325,o),
(234,360,o),
(288,360,cs),
(342,360,o),
(389,325,o),
(389,233,cs),
(389,141,o),
(342,106,o),
(288,106,cs)
);
}
);
width = 553;
}
);
note = o;
unicode = 111;
},
{
glyphname = oslash;
lastChange = "2023-10-27 15:22:10 +0000";
layers = (
{
anchors = (
{
name = top;
pos = (155,472);
}
);
layerId = "F5467FAD-1970-4982-B3D3-939C01050498";
shapes = (
{
closed = 1;
nodes = (
(136,-155,l),
(169,-155,l),
(408,655,l),
(375,655,l)
);
},
{
ref = o;
}
);
width = 544;
},
{
anchors = (
{
name = top;
pos = (103,472);
}
);
layerId = "6DD95C5A-998B-41AB-BDFB-84A73C209871";
shapes = (
{
closed = 1;
nodes = (
(111,-145,l),
(224,-145,l),
(459,646,l),
(346,646,l)
);
},
{
ref = o;
}
);
width = 551;
},
{
anchors = (
{
name = top;
pos = (163,472);
}
);
layerId = "1FDC7037-1F88-4969-8535-0F79C1EF19DB";
shapes = (
{
closed = 1;
nodes = (
(140,-157,l),
(160,-157,l),
(400,657,l),
(380,657,l)
);
},
{
ref = o;
}
);
width = 543;
},
{
anchors = (
{
name = top;
pos = (90,472);
}
);
layerId = "3ED9E848-BE83-4CAC-8EFF-D71BD2B4F667";
shapes = (
{
closed = 1;
nodes = (
(106,-142,l),
(238,-142,l),
(472,644,l),
(339,644,l)
);
},
{
ref = o;
}
);
width = 553;
}
);
note = oslash;
unicode = 248;
},
{
glyphname = oe;
kernLeft = a;
kernRight = ae;
lastChange = "2023-10-27 15:22:10 +0000";
layers = (
{
background = {
shapes = (
{
closed = 1;
nodes = (
(374,-13,o),
(454,39,o),
(491,118,c),
(533,29,o),
(622,-13,o),
(720,-13,cs),
(818,-13,o),
(887,18,o),
(933,74,c),
(894,91,l),
(862,45,o),
(817,4,o),
(720,4,cs),
(616,4,o),
(520,83,o),
(516,233,c),
(516,235,o),
(516,236,o),
(516,237,c),
(932,237,l),
(934,250,o),
(935,263,o),
(935,276,cs),
(935,403,o),
(851,484,o),
(714,484,cs),
(616,484,o),
(529,438,o),
(489,352,c),
(450,431,o),
(372,483,o),
(273,483,cs),
(127,483,o),
(28,374,o),
(28,233,cs),
(28,92,o),
(126,-13,o),
(273,-13,cs)
);
},
{
closed = 1;
nodes = (
(151,-2,o),
(76,107,o),
(76,233,cs),
(76,360,o),
(151,470,o),
(273,470,cs),
(383,470,o),
(455,378,o),
(467,264,c),
(466,256,o),
(466,249,o),
(466,241,cs),
(466,230,o),
(467,220,o),
(467,209,c),
(458,93,o),
(386,-2,o),
(273,-2,cs)
);
},
{
closed = 1;
nodes = (
(522,376,o),
(597,470,o),
(714,470,cs),
(833,470,o),
(889,389,o),
(889,308,cs),
(889,291,o),
(886,273,o),
(881,257,c),
(516,257,l)
);
}
);
};
layerId = "F5467FAD-1970-4982-B3D3-939C01050498";
shapes = (
{
ref = o;
},
{
alignment = -1;
pos = (444,0);
ref = e;
}
);
width = 979;
},
{
background = {
shapes = (
{
closed = 1;
nodes = (
(359,-11,o),
(422,16,o),
(467,59,c),
(512,12,o),
(580,-11,o),
(660,-11,cs),
(766,-11,o),
(863,33,o),
(896,120,c),
(780,175,l),
(763,124,o),
(729,90,o),
(670,90,cs),
(586,90,o),
(550,134,o),
(542,203,c),
(882,203,l),
(887,228,o),
(890,252,o),
(890,274,cs),
(890,403,o),
(799,482,o),
(651,482,cs),
(574,482,o),
(509,456,o),
(465,410,c),
(421,454,o),
(358,481,o),
(285,481,cs),
(133,481,o),
(30,365,o),
(30,233,cs),
(30,102,o),
(133,-11,o),
(285,-11,cs)
);
},
{
closed = 1;
nodes = (
(217,88,o),
(165,135,o),
(165,233,cs),
(165,332,o),
(217,379,o),
(285,379,cs),
(346,379,o),
(394,341,o),
(404,261,c),
(403,255,o),
(403,248,o),
(403,240,cs),
(403,230,o),
(403,220,o),
(405,209,c),
(396,127,o),
(347,88,o),
(285,88,cs)
);
},
{
closed = 1;
nodes = (
(562,354,o),
(610,383,o),
(654,383,cs),
(712,383,o),
(746,354,o),
(746,307,cs),
(746,302,o),
(746,296,o),
(745,290,c),
(546,290,l)
);
}
);
};
layerId = "6DD95C5A-998B-41AB-BDFB-84A73C209871";
shapes = (
{
ref = o;
},
{
alignment = -1;
pos = (378,0);
ref = e;
}
);
width = 937;
},
{
layerId = "1FDC7037-1F88-4969-8535-0F79C1EF19DB";
shapes = (
{
alignment = -1;
ref = o;
},
{
alignment = -1;
pos = (455,0);
ref = e;
}
);
width = 985;
},
{
layerId = "3ED9E848-BE83-4CAC-8EFF-D71BD2B4F667";
shapes = (
{
alignment = -1;
ref = o;
},
{
alignment = -1;
pos = (362,0);
ref = e;
}
);
width = 927;
}
);
metricLeft = o;
metricRight = e;
note = oe;
unicode = 339;
},
{
glyphname = p;
kernLeft = p;
kernRight = p;
lastChange = "2023-10-27 15:22:10 +0000";
layers = (
{
layerId = "F5467FAD-1970-4982-B3D3-939C01050498";
shapes = (
{
closed = 1;
nodes = (
(47,-189,l),
(90,-189,l),
(90,96,l),
(74,234,l),
(90,360,l),
(90,472,l),
(48,472,l)
);
},
{
closed = 1;
nodes = (
(136,483,o),
(74,344,o),
(74,234,cs),
(74,123,o),
(141,-12,o),
(287,-12,cs),
(430,-12,o),
(521,91,o),
(521,234,cs),
(521,377,o),
(430,483,o),
(287,483,cs)
);
},
{
closed = 1;
nodes = (
(402,455,o),
(479,356,o),
(479,234,cs),
(479,114,o),
(404,15,o),
(288,15,cs),
(174,15,o),
(78,100,o),
(78,234,cs),
(78,371,o),
(173,455,o),
(287,455,cs)
);
}
);
width = 550;
},
{
layerId = "6DD95C5A-998B-41AB-BDFB-84A73C209871";
shapes = (
{
closed = 1;
nodes = (
(33,-189,l),
(177,-189,l),
(177,9,l),
(158,234,l),
(177,447,l),
(177,472,l),
(34,472,l)
);
},
{
closed = 1;
nodes = (
(181,480,o),
(152,398,o),
(152,234,cs),
(152,71,o),
(190,-11,o),
(334,-11,cs),
(484,-11,o),
(583,100,o),
(583,234,cs),
(583,367,o),
(484,480,o),
(334,480,cs)
);
},
{
closed = 1;
nodes = (
(386,375,o),
(431,319,o),
(431,234,cs),
(431,150,o),
(386,92,o),
(307,92,cs),
(223,92,o),
(170,141,o),
(170,234,cs),
(170,327,o),
(223,375,o),
(307,375,cs)
);
}
);
width = 602;
},
{
associatedMasterId = "6DD95C5A-998B-41AB-BDFB-84A73C209871";
layerId = "98FC4237-0C9A-470F-B714-1BBC7CCDE98A";
name = "24 juil. 23  14:33";
shapes = (
{
closed = 1;
nodes = (
(177,-189,l),
(177,12,l),
(177,44,l),
(207,5,o),
(261,-14,o),
(324,-14,cs),
(474,-14,o),
(573,97,o),
(573,231,cs),
(573,364,o),
(475,477,o),
(324,477,cs),
(261,477,o),
(196,450,o),
(177,409,c),
(177,438,l),
(177,472,l),
(34,472,l),
(33,-189,l)
);
},
{
closed = 1;
nodes = (
(222,90,o),
(168,139,o),
(168,231,cs),
(168,324,o),
(222,372,o),
(306,372,cs),
(384,372,o),
(429,316,o),
(429,231,cs),
(429,147,o),
(384,90,o),
(306,90,cs)
);
}
);
width = 602;
},
{
associatedMasterId = "F5467FAD-1970-4982-B3D3-939C01050498";
layerId = "DACE8C0B-C6A5-45B8-B8AC-06B9D7DDFF7F";
name = "24 juil. 23  14:33";
shapes = (
{
closed = 1;
nodes = (
(90,-189,l),
(90,96,l),
(83,173,l),
(104,79,o),
(171,-12,o),
(290,-12,cs),
(434,-12,o),
(525,91,o),
(525,234,cs),
(525,377,o),
(434,483,o),
(290,483,cs),
(170,483,o),
(103,389,o),
(83,295,c),
(90,360,l),
(90,472,l),
(48,472,l),
(47,-189,l)
);
},
{
closed = 1;
nodes = (
(176,15,o),
(81,100,o),
(81,234,cs),
(81,371,o),
(176,455,o),
(290,455,cs),
(405,455,o),
(483,356,o),
(483,234,cs),
(483,114,o),
(406,15,o),
(290,15,cs)
);
}
);
width = 554;
},
{
layerId = "1FDC7037-1F88-4969-8535-0F79C1EF19DB";
shapes = (
{
closed = 1;
nodes = (
(49,-189,l),
(75,-189,l),
(75,110,l),
(61,234,l),
(75,346,l),
(75,472,l),
(50,472,l)
);
},
{
closed = 1;
nodes = (
(128,483,o),
(61,336,o),
(61,234,cs),
(61,131,o),
(133,-12,o),
(279,-12,cs),
(422,-12,o),
(512,91,o),
(512,234,cs),
(512,379,o),
(422,483,o),
(279,483,cs)
);
},
{
closed = 1;
nodes = (
(405,467,o),
(487,361,o),
(487,234,cs),
(487,108,o),
(406,3,o),
(285,3,cs),
(166,3,o),
(63,93,o),
(63,234,cs),
(63,377,o),
(164,467,o),
(283,467,cs)
);
}
);
width = 541;
},
{
layerId = "3ED9E848-BE83-4CAC-8EFF-D71BD2B4F667";
shapes = (
{
closed = 1;
nodes = (
(29,-189,l),
(199,-189,l),
(199,-12,l),
(179,234,l),
(199,469,l),
(199,472,l),
(30,472,l)
);
},
{
closed = 1;
nodes = (
(192,479,o),
(171,411,o),
(171,234,cs),
(171,58,o),
(202,-11,o),
(345,-11,cs),
(497,-11,o),
(598,102,o),
(598,234,cs),
(598,364,o),
(497,479,o),
(345,479,cs)
);
},
{
closed = 1;
nodes = (
(382,356,o),
(419,309,o),
(419,234,cs),
(419,158,o),
(381,111,o),
(312,111,cs),
(236,111,o),
(192,152,o),
(192,234,cs),
(192,317,o),
(236,356,o),
(312,356,cs)
);
}
);
width = 614;
}
);
note = p;
unicode = 112;
},
{
glyphname = thorn;
lastChange = "2023-10-27 15:22:10 +0000";
layers = (
{
layerId = "F5467FAD-1970-4982-B3D3-939C01050498";
shapes = (
{
closed = 1;
nodes = (
(76,-224,l),
(76,91,l),
(70,167,l),
(91,74,o),
(157,-18,o),
(277,-18,cs),
(421,-18,o),
(512,86,o),
(512,228,cs),
(512,372,o),
(421,477,o),
(277,477,cs),
(157,477,o),
(90,384,o),
(70,290,c),
(76,355,l),
(76,762,l),
(35,762,l),
(34,-224,l)
);
},
{
closed = 1;
nodes = (
(163,9,o),
(68,94,o),
(68,228,cs),
(68,365,o),
(163,449,o),
(277,449,cs),
(392,449,o),
(470,350,o),
(470,228,cs),
(470,108,o),
(393,9,o),
(277,9,cs)
);
}
);
width = 531;
},
{
layerId = "6DD95C5A-998B-41AB-BDFB-84A73C209871";
shapes = (
{
closed = 1;
nodes = (
(168,-180,l),
(168,-4,l),
(168,18,l),
(196,1,o),
(232,-9,o),
(277,-9,cs),
(427,-9,o),
(526,102,o),
(526,235,cs),
(526,369,o),
(428,482,o),
(277,482,cs),
(232,482,o),
(196,472,o),
(168,455,c),
(168,489,l),
(168,718,l),
(25,718,l),
(24,-180,l)
);
},
{
closed = 1;
nodes = (
(212,94,o),
(158,143,o),
(158,235,cs),
(158,328,o),
(212,377,o),
(277,377,cs),
(337,377,o),
(382,320,o),
(382,235,cs),
(382,152,o),
(337,94,o),
(277,94,cs)
);
}
);
width = 531;
},
{
layerId = "1FDC7037-1F88-4969-8535-0F79C1EF19DB";
shapes = (
{
closed = 1;
nodes = (
(61,-232,l),
(61,106,l),
(55,190,l),
(74,85,o),
(145,-19,o),
(277,-19,cs),
(420,-19,o),
(510,83,o),
(510,227,cs),
(510,372,o),
(420,476,o),
(277,476,cs),
(144,476,o),
(73,371,o),
(54,263,c),
(61,333,l),
(61,769,l),
(37,769,l),
(36,-232,l)
);
},
{
closed = 1;
nodes = (
(156,-4,o),
(54,87,o),
(54,227,cs),
(54,371,o),
(156,460,o),
(277,460,cs),
(401,460,o),
(484,355,o),
(484,227,cs),
(484,102,o),
(403,-4,o),
(277,-4,cs)
);
}
);
width = 531;
},
{
layerId = "3ED9E848-BE83-4CAC-8EFF-D71BD2B4F667";
shapes = (
{
closed = 1;
nodes = (
(190,-169,l),
(190,-27,l),
(191,-19,l),
(223,-17,o),
(251,-8,o),
(277,-8,cs),
(429,-8,o),
(530,106,o),
(530,237,cs),
(530,368,o),
(430,483,o),
(277,483,cs),
(251,483,o),
(223,493,o),
(192,495,c),
(190,522,l),
(190,706,l),
(22,706,l),
(21,-169,l)
);
},
{
closed = 1;
nodes = (
(224,115,o),
(181,156,o),
(181,237,cs),
(181,319,o),
(224,359,o),
(277,359,cs),
(323,359,o),
(360,312,o),
(360,237,cs),
(360,162,o),
(323,115,o),
(277,115,cs)
);
}
);
width = 531;
}
);
note = thorn;
unicode = 254;
},
{
glyphname = q;
kernLeft = a;
kernRight = aacute;
lastChange = "2023-10-27 15:22:10 +0000";
layers = (
{
layerId = "F5467FAD-1970-4982-B3D3-939C01050498";
shapes = (
{
closed = 1;
nodes = (
(460,472,l),
(460,360,l),
(475,234,l),
(460,96,l),
(460,-189,l),
(503,-189,l),
(502,472,l)
);
},
{
closed = 1;
nodes = (
(120,483,o),
(28,377,o),
(28,234,cs),
(28,91,o),
(120,-12,o),
(263,-12,cs),
(409,-12,o),
(476,123,o),
(476,234,cs),
(476,344,o),
(414,483,o),
(263,483,cs)
);
},
{
closed = 1;
nodes = (
(377,455,o),
(472,371,o),
(472,234,cs),
(472,100,o),
(376,15,o),
(262,15,cs),
(146,15,o),
(71,114,o),
(71,234,cs),
(71,356,o),
(148,455,o),
(263,455,cs)
);
}
);
width = 550;
},
{
layerId = "6DD95C5A-998B-41AB-BDFB-84A73C209871";
shapes = (
{
closed = 1;
nodes = (
(424,472,l),
(424,447,l),
(443,234,l),
(424,9,l),
(424,-189,l),
(569,-189,l),
(568,472,l)
);
},
{
closed = 1;
nodes = (
(118,480,o),
(19,367,o),
(19,234,cs),
(19,100,o),
(118,-11,o),
(268,-11,cs),
(412,-11,o),
(450,71,o),
(450,234,cs),
(450,398,o),
(421,480,o),
(268,480,cs)
);
},
{
closed = 1;
nodes = (
(378,375,o),
(432,327,o),
(432,234,cs),
(432,141,o),
(378,92,o),
(294,92,cs),
(216,92,o),
(171,150,o),
(171,234,cs),
(171,319,o),
(216,375,o),
(294,375,cs)
);
}
);
width = 602;
},
{
associatedMasterId = "6DD95C5A-998B-41AB-BDFB-84A73C209871";
layerId = "0C2631EF-B1CC-4266-849D-97E34A750FC9";
name = "24 juil. 23  14:33";
shapes = (
{
closed = 1;
nodes = (
(569,-189,l),
(568,472,l),
(424,472,l),
(424,437,l),
(424,409,l),
(405,450,o),
(340,477,o),
(277,477,cs),
(126,477,o),
(28,364,o),
(28,231,cs),
(28,97,o),
(127,-14,o),
(277,-14,cs),
(340,-14,o),
(395,5,o),
(424,44,c),
(424,14,l),
(424,-189,l)
);
},
{
closed = 1;
nodes = (
(218,90,o),
(173,147,o),
(173,231,cs),
(173,316,o),
(218,372,o),
(296,372,cs),
(380,372,o),
(434,324,o),
(434,231,cs),
(434,139,o),
(380,90,o),
(296,90,cs)
);
}
);
width = 602;
},
{
associatedMasterId = "F5467FAD-1970-4982-B3D3-939C01050498";
layerId = "90652EA9-EDFC-4C18-BA74-0C2524A4B062";
name = "24 juil. 23  14:33";
shapes = (
{
closed = 1;
nodes = (
(506,-189,l),
(505,472,l),
(464,472,l),
(464,360,l),
(471,295,l),
(451,389,o),
(384,483,o),
(263,483,cs),
(120,483,o),
(28,377,o),
(28,234,cs),
(28,91,o),
(120,-12,o),
(263,-12,cs),
(384,-12,o),
(450,79,o),
(471,173,c),
(464,96,l),
(464,-189,l)
);
},
{
closed = 1;
nodes = (
(147,15,o),
(71,114,o),
(71,234,cs),
(71,356,o),
(148,455,o),
(263,455,cs),
(377,455,o),
(472,371,o),
(472,234,cs),
(472,100,o),
(377,15,o),
(263,15,cs)
);
}
);
width = 554;
},
{
layerId = "1FDC7037-1F88-4969-8535-0F79C1EF19DB";
shapes = (
{
closed = 1;
nodes = (
(466,472,l),
(466,346,l),
(480,234,l),
(466,110,l),
(466,-189,l),
(492,-189,l),
(491,472,l)
);
},
{
closed = 1;
nodes = (
(120,483,o),
(30,379,o),
(30,234,cs),
(30,91,o),
(120,-12,o),
(262,-12,cs),
(409,-12,o),
(480,131,o),
(480,234,cs),
(480,336,o),
(413,483,o),
(262,483,cs)
);
},
{
closed = 1;
nodes = (
(377,467,o),
(478,377,o),
(478,234,cs),
(478,93,o),
(376,3,o),
(257,3,cs),
(135,3,o),
(55,108,o),
(55,234,cs),
(55,361,o),
(137,467,o),
(258,467,cs)
);
}
);
width = 541;
},
{
layerId = "3ED9E848-BE83-4CAC-8EFF-D71BD2B4F667";
shapes = (
{
closed = 1;
nodes = (
(416,472,l),
(416,469,l),
(436,234,l),
(416,-12,l),
(416,-189,l),
(585,-189,l),
(584,472,l)
);
},
{
closed = 1;
nodes = (
(118,479,o),
(17,364,o),
(17,234,cs),
(17,102,o),
(118,-11,o),
(269,-11,cs),
(413,-11,o),
(443,58,o),
(443,234,cs),
(443,411,o),
(422,479,o),
(269,479,cs)
);
},
{
closed = 1;
nodes = (
(378,356,o),
(422,317,o),
(422,234,cs),
(422,152,o),
(378,111,o),
(302,111,cs),
(233,111,o),
(195,158,o),
(195,234,cs),
(195,309,o),
(233,356,o),
(302,356,cs)
);
}
);
width = 614;
}
);
note = q;
unicode = 113;
},
{
glyphname = r;
kernLeft = m;
kernRight = r;
lastChange = "2023-10-27 15:22:10 +0000";
layers = (
{
anchors = (
{
name = bottom;
pos = (234,0);
},
{
name = top;
pos = (259,472);
}
);
layerId = "F5467FAD-1970-4982-B3D3-939C01050498";
shapes = (
{
closed = 1;
nodes = (
(89,0,l),
(89,256,l),
(102,389,o),
(186,450,o),
(270,450,cs),
(337,450,o),
(369,414,o),
(381,365,c),
(428,365,l),
(427,369,o),
(427,372,o),
(426,375,cs),
(416,435,o),
(381,478,o),
(283,477,cs),
(192,477,o),
(108,418,o),
(89,312,c),
(89,472,l),
(47,472,l),
(47,0,l)
);
}
);
width = 434;
},
{
anchors = (
{
name = bottom;
pos = (275,0);
},
{
name = top;
pos = (301,472);
}
);
layerId = "6DD95C5A-998B-41AB-BDFB-84A73C209871";
shapes = (
{
closed = 1;
nodes = (
(186,0,l),
(186,244,ls),
(186,339,o),
(238,376,o),
(290,376,cs),
(328,376,o),
(355,353,o),
(350,306,c),
(491,306,l),
(492,312,o),
(492,317,o),
(492,323,cs),
(492,402,o),
(433,481,o),
(328,481,cs),
(273,481,o),
(212,452,o),
(186,408,c),
(186,472,l),
(42,472,l),
(42,0,l)
);
}
);
width = 502;
},
{
anchors = (
{
name = bottom;
pos = (227,0);
},
{
name = top;
pos = (253,472);
}
);
layerId = "1FDC7037-1F88-4969-8535-0F79C1EF19DB";
shapes = (
{
closed = 1;
nodes = (
(74,0,l),
(74,257,l),
(89,397,o),
(177,461,o),
(267,461,cs),
(338,461,o),
(372,424,o),
(386,374,c),
(418,374,l),
(417,378,o),
(417,380,o),
(416,384,cs),
(404,440,o),
(372,478,o),
(276,477,cs),
(179,476,o),
(91,412,o),
(74,297,c),
(74,472,l),
(48,472,l),
(48,0,l)
);
}
);
width = 423;
},
{
anchors = (
{
name = bottom;
pos = (286,0);
},
{
name = top;
pos = (311,472);
}
);
layerId = "3ED9E848-BE83-4CAC-8EFF-D71BD2B4F667";
shapes = (
{
closed = 1;
nodes = (
(209,0,l),
(209,241,l),
(207,327,o),
(251,358,o),
(294,358,cs),
(326,358,o),
(351,338,o),
(342,292,c),
(507,292,l),
(508,298,o),
(508,304,o),
(508,309,cs),
(511,393,o),
(446,482,o),
(339,482,cs),
(293,482,o),
(238,460,o),
(209,432,c),
(209,472,l),
(41,472,l),
(41,0,l)
);
}
);
width = 519;
}
);
note = r;
unicode = 114;
},
{
glyphname = s;
kernLeft = s;
kernRight = s;
lastChange = "2023-10-27 15:22:10 +0000";
layers = (
{
anchors = (
{
name = bottom;
pos = (229,0);
},
{
name = top;
pos = (215,472);
}
);
layerId = "F5467FAD-1970-4982-B3D3-939C01050498";
shapes = (
{
closed = 1;
nodes = (
(121,484,o),
(52,432,o),
(52,363,cs),
(52,189,o),
(361,289,o),
(361,118,cs),
(361,75,o),
(327,13,o),
(225,13,cs),
(149,13,o),
(85,49,o),
(57,121,c),
(19,106,l),
(49,33,o),
(114,-13,o),
(225,-13,cs),
(359,-13,o),
(408,52,o),
(408,114,cs),
(408,312,o),
(99,213,o),
(99,363,cs),
(99,421,o),
(140,457,o),
(214,457,cs),
(287,457,o),
(341,417,o),
(368,351,c),
(404,371,l),
(376,443,o),
(307,484,o),
(214,484,cs)
);
}
);
width = 427;
},
{
anchors = (
{
name = bottom;
pos = (252,0);
},
{
name = top;
pos = (238,472);
}
);
layerId = "6DD95C5A-998B-41AB-BDFB-84A73C209871";
shapes = (
{
closed = 1;
nodes = (
(143,482,o),
(52,434,o),
(52,349,cs),
(52,146,o),
(330,231,o),
(330,139,cs),
(330,110,o),
(297,88,o),
(249,88,cs),
(183,88,o),
(157,150,o),
(145,191,c),
(19,141,l),
(49,32,o),
(134,-11,o),
(249,-11,cs),
(383,-11,o),
(470,49,o),
(470,144,cs),
(470,326,o),
(188,236,o),
(188,339,cs),
(188,367,o),
(210,383,o),
(247,383,cs),
(301,383,o),
(336,346,o),
(336,286,c),
(461,344,l),
(435,426,o),
(351,482,o),
(238,482,cs)
);
}
);
width = 488;
},
{
anchors = (
{
name = bottom;
pos = (234,0);
},
{
name = top;
pos = (220,472);
}
);
associatedMasterId = "6DD95C5A-998B-41AB-BDFB-84A73C209871";
layerId = "D619BE00-27DC-4BA7-9494-58223F4FA2F3";
name = "24 juil. 23  14:52";
shapes = (
{
closed = 1;
nodes = (
(356,-11,o),
(423,49,o),
(423,144,cs),
(423,246,o),
(296,279,o),
(239,296,cs),
(194,309,o),
(170,324,o),
(170,349,cs),
(170,376,o),
(192,389,o),
(220,389,cs),
(262,389,o),
(272,360,o),
(273,339,c),
(394,378,l),
(378,444,o),
(305,482,o),
(220,482,cs),
(125,482,o),
(43,424,o),
(43,349,cs),
(43,265,o),
(121,231,o),
(199,208,cs),
(259,190,o),
(293,179,o),
(293,146,cs),
(293,108,o),
(260,88,o),
(222,88,cs),
(147,88,o),
(123,157,o),
(123,202,c),
(14,126,l),
(35,45,o),
(125,-11,o),
(222,-11,cs)
);
}
);
width = 447;
},
{
anchors = (
{
name = bottom;
pos = (224,0);
},
{
name = top;
pos = (210,472);
}
);
associatedMasterId = "F5467FAD-1970-4982-B3D3-939C01050498";
layerId = "6BCDE198-901C-4CEB-AD18-42D9A29F4FA8";
name = "24 juil. 23  14:52";
shapes = (
{
closed = 1;
nodes = (
(345,-13,o),
(404,54,o),
(404,125,cs),
(404,214,o),
(288,240,o),
(214,260,cs),
(125,284,o),
(82,323,o),
(82,372,cs),
(82,427,o),
(135,468,o),
(209,468,cs),
(254,468,o),
(312,463,o),
(331,378,c),
(380,389,l),
(352,462,o),
(274,484,o),
(209,484,cs),
(116,484,o),
(47,438,o),
(47,372,cs),
(47,302,o),
(110,267,o),
(203,242,cs),
(291,218,o),
(366,197,o),
(366,127,cs),
(366,57,o),
(312,4,o),
(212,4,cs),
(124,4,o),
(63,56,o),
(44,148,c),
(7,123,l),
(37,41,o),
(100,-13,o),
(212,-13,cs)
);
}
);
width = 416;
},
{
anchors = (
{
name = bottom;
pos = (225,0);
},
{
name = top;
pos = (211,472);
}
);
layerId = "1FDC7037-1F88-4969-8535-0F79C1EF19DB";
shapes = (
{
closed = 1;
nodes = (
(117,484,o),
(52,432,o),
(52,365,cs),
(52,195,o),
(366,298,o),
(366,114,cs),
(366,70,o),
(332,1,o),
(222,1,cs),
(143,1,o),
(74,33,o),
(42,109,c),
(19,100,l),
(49,33,o),
(111,-13,o),
(222,-13,cs),
(356,-13,o),
(399,52,o),
(399,109,cs),
(399,310,o),
(85,209,o),
(85,367,cs),
(85,429,o),
(128,470,o),
(208,470,cs),
(285,470,o),
(342,428,o),
(372,361,c),
(394,374,l),
(367,446,o),
(301,484,o),
(210,484,cs)
);
}
);
width = 418;
},
{
anchors = (
{
name = bottom;
pos = (257,0);
},
{
name = top;
pos = (243,472);
}
);
layerId = "3ED9E848-BE83-4CAC-8EFF-D71BD2B4F667";
shapes = (
{
closed = 1;
nodes = (
(149,482,o),
(52,434,o),
(52,345,cs),
(52,136,o),
(323,217,o),
(323,143,cs),
(323,119,o),
(290,106,o),
(255,106,cs),
(191,106,o),
(175,174,o),
(167,208,c),
(19,150,l),
(49,32,o),
(139,-11,o),
(255,-11,cs),
(389,-11,o),
(485,48,o),
(485,152,cs),
(485,330,o),
(209,241,o),
(209,334,cs),
(209,354,o),
(227,365,o),
(256,365,cs),
(305,365,o),
(335,329,o),
(328,270,c),
(475,338,l),
(449,422,o),
(361,482,o),
(243,482,cs)
);
}
);
width = 504;
}
);
note = s;
unicode = 115;
},
{
glyphname = germandbls;
kernLeft = germandbls;
kernRight = germandbls;
lastChange = "2023-10-27 15:22:10 +0000";
layers = (
{
layerId = "F5467FAD-1970-4982-B3D3-939C01050498";
shapes = (
{
closed = 1;
nodes = (
(82,-15,l),
(82,501,ls),
(82,595,o),
(137,649,o),
(227,649,cs),
(323,649,o),
(378,595,o),
(378,520,cs),
(378,450,o),
(353,406,o),
(264,406,cs),
(248,406,l),
(248,382,l),
(286,382,ls),
(410,382,o),
(503,313,o),
(503,190,cs),
(503,68,o),
(411,16,o),
(280,16,cs),
(256,16,o),
(227,22,o),
(203,29,c),
(203,4,l),
(225,-6,o),
(260,-15,o),
(290,-15,cs),
(442,-15,o),
(545,50,o),
(545,190,cs),
(545,287,o),
(479,382,o),
(343,401,c),
(405,426,o),
(420,472,o),
(420,531,cs),
(420,613,o),
(336,675,o),
(227,675,cs),
(116,675,o),
(41,604,o),
(41,490,cs),
(41,-15,l)
);
}
);
width = 562;
},
{
layerId = "6DD95C5A-998B-41AB-BDFB-84A73C209871";
shapes = (
{
closed = 1;
nodes = (
(173,4,l),
(173,488,ls),
(173,530,o),
(194,550,o),
(239,550,cs),
(287,550,o),
(308,530,o),
(308,488,cs),
(308,444,o),
(287,422,o),
(236,422,cs),
(202,422,l),
(202,313,l),
(287,313,ls),
(363,313,o),
(412,285,o),
(412,214,cs),
(412,157,o),
(386,110,o),
(301,110,cs),
(273,110,o),
(216,124,o),
(199,136,c),
(199,25,l),
(214,16,o),
(258,4,o),
(300,4,cs),
(449,4,o),
(556,75,o),
(556,214,cs),
(556,306,o),
(507,371,o),
(422,402,c),
(442,429,o),
(452,458,o),
(452,496,cs),
(452,616,o),
(344,656,o),
(239,656,cs),
(129,656,o),
(29,597,o),
(29,475,cs),
(29,4,l)
);
}
);
width = 562;
},
{
layerId = "1FDC7037-1F88-4969-8535-0F79C1EF19DB";
shapes = (
{
closed = 1;
nodes = (
(68,-18,l),
(68,503,ls),
(68,605,o),
(127,665,o),
(225,665,cs),
(328,665,o),
(389,605,o),
(389,524,cs),
(389,451,o),
(363,404,o),
(269,404,cs),
(256,404,l),
(256,393,l),
(286,393,ls),
(418,393,o),
(517,318,o),
(517,186,cs),
(517,54,o),
(415,1,o),
(276,1,cs),
(253,1,o),
(229,6,o),
(204,12,c),
(204,0,l),
(227,-9,o),
(260,-18,o),
(289,-18,cs),
(441,-18,o),
(543,46,o),
(543,186,cs),
(543,284,o),
(474,384,o),
(331,401,c),
(400,426,o),
(415,474,o),
(415,537,cs),
(415,613,o),
(335,678,o),
(225,678,cs),
(114,678,o),
(42,605,o),
(42,493,cs),
(42,-18,l)
);
}
);
width = 562;
},
{
layerId = "3ED9E848-BE83-4CAC-8EFF-D71BD2B4F667";
shapes = (
{
closed = 1;
nodes = (
(195,8,l),
(195,485,ls),
(195,514,o),
(208,525,o),
(241,525,cs),
(278,525,o),
(291,514,o),
(291,480,cs),
(291,443,o),
(271,425,o),
(229,425,cs),
(190,425,l),
(190,296,l),
(287,296,ls),
(352,296,o),
(389,278,o),
(389,220,cs),
(389,178,o),
(379,134,o),
(306,134,cs),
(276,134,o),
(213,150,o),
(198,162,c),
(198,29,l),
(211,22,o),
(258,8,o),
(303,8,cs),
(451,8,o),
(559,82,o),
(559,220,cs),
(559,310,o),
(514,368,o),
(440,402,c),
(452,430,o),
(459,455,o),
(459,488,cs),
(459,617,o),
(346,652,o),
(241,652,cs),
(132,652,o),
(26,595,o),
(26,472,cs),
(26,8,l)
);
}
);
width = 562;
}
);
note = germandbls;
unicode = 223;
},
{
glyphname = t;
kernLeft = t;
kernRight = t;
lastChange = "2023-10-27 15:22:10 +0000";
layers = (
{
anchors = (
{
name = bottom;
pos = (249,0);
},
{
name = top;
pos = (215,660);
}
);
layerId = "F5467FAD-1970-4982-B3D3-939C01050498";
shapes = (
{
closed = 1;
nodes = (
(309,-11,o),
(357,15,o),
(386,56,c),
(353,72,l),
(333,33,o),
(290,15,o),
(247,15,cs),
(181,15,o),
(156,56,o),
(156,136,cs),
(156,440,l),
(323,440,l),
(323,473,l),
(156,473,l),
(156,660,l),
(114,660,l),
(114,473,l),
(15,473,l),
(15,440,l),
(114,440,l),
(114,133,ls),
(114,40,o),
(152,-11,o),
(247,-11,cs)
);
}
);
width = 433;
},
{
anchors = (
{
name = bottom;
pos = (262,0);
},
{
name = top;
pos = (301,660);
}
);
layerId = "6DD95C5A-998B-41AB-BDFB-84A73C209871";
shapes = (
{
closed = 1;
nodes = (
(381,-8,o),
(433,51,o),
(458,102,c),
(349,165,l),
(339,119,o),
(316,91,o),
(284,91,cs),
(257,91,o),
(240,112,o),
(240,155,cs),
(240,366,l),
(377,366,l),
(377,475,l),
(240,475,l),
(240,660,l),
(96,660,l),
(96,475,l),
(14,475,l),
(14,366,l),
(96,366,l),
(96,153,ls),
(96,69,o),
(141,-8,o),
(284,-8,cs)
);
}
);
width = 463;
},
{
anchors = (
{
name = bottom;
pos = (247,0);
},
{
name = top;
pos = (211,660);
}
);
layerId = "1FDC7037-1F88-4969-8535-0F79C1EF19DB";
shapes = (
{
closed = 1;
nodes = (
(298,-12,o),
(345,9,o),
(374,48,c),
(354,57,l),
(332,19,o),
(287,3,o),
(241,3,cs),
(169,3,o),
(142,46,o),
(142,133,cs),
(142,453,l),
(314,453,l),
(314,473,l),
(142,473,l),
(142,660,l),
(117,660,l),
(117,473,l),
(15,473,l),
(15,453,l),
(117,453,l),
(117,130,ls),
(117,35,o),
(154,-12,o),
(241,-12,cs)
);
}
);
width = 428;
},
{
anchors = (
{
name = bottom;
pos = (265,0);
},
{
name = top;
pos = (301,660);
}
);
layerId = "3ED9E848-BE83-4CAC-8EFF-D71BD2B4F667";
shapes = (
{
closed = 1;
nodes = (
(399,-7,o),
(452,59,o),
(476,113,c),
(348,188,l),
(339,140,o),
(323,110,o),
(293,110,cs),
(276,110,o),
(260,126,o),
(260,159,cs),
(260,348,l),
(390,348,l),
(390,475,l),
(260,475,l),
(260,660,l),
(91,660,l),
(91,475,l),
(14,475,l),
(14,348,l),
(91,348,l),
(91,157,ls),
(91,76,o),
(139,-7,o),
(293,-7,cs)
);
}
);
width = 471;
}
);
note = t;
unicode = 116;
},
{
glyphname = tbar;
lastChange = "2023-10-27 15:22:10 +0000";
layers = (
{
layerId = "F5467FAD-1970-4982-B3D3-939C01050498";
shapes = (
{
closed = 1;
nodes = (
(306,341,l),
(25,341,l),
(25,302,l),
(306,302,l)
);
},
{
ref = t;
}
);
width = 433;
},
{
layerId = "6DD95C5A-998B-41AB-BDFB-84A73C209871";
shapes = (
{
closed = 1;
nodes = (
(352,323,l),
(38,323,l),
(38,234,l),
(352,234,l)
);
},
{
ref = t;
}
);
width = 463;
},
{
layerId = "1FDC7037-1F88-4969-8535-0F79C1EF19DB";
shapes = (
{
closed = 1;
nodes = (
(299,344,l),
(23,344,l),
(23,313,l),
(299,313,l)
);
},
{
ref = t;
}
);
width = 428;
},
{
layerId = "3ED9E848-BE83-4CAC-8EFF-D71BD2B4F667";
shapes = (
{
closed = 1;
nodes = (
(363,319,l),
(41,319,l),
(41,217,l),
(363,217,l)
);
},
{
ref = t;
}
);
width = 471;
}
);
unicode = 359;
},
{
glyphname = u;
kernLeft = m;
kernRight = a;
lastChange = "2023-10-27 15:22:10 +0000";
layers = (
{
anchors = (
{
name = bottom;
pos = (276,0);
},
{
name = ogonek;
pos = (449,1);
},
{
name = top;
pos = (276,472);
}
);
layerId = "F5467FAD-1970-4982-B3D3-939C01050498";
shapes = (
{
closed = 1;
nodes = (
(331,-7,o),
(423,42,o),
(449,138,c),
(449,1,l),
(490,1,l),
(490,472,l),
(449,472,l),
(449,211,l),
(435,52,o),
(330,17,o),
(249,17,cs),
(131,17,o),
(89,97,o),
(89,186,cs),
(89,472,l),
(47,472,l),
(47,186,ls),
(47,87,o),
(84,-7,o),
(237,-7,cs)
);
}
);
width = 538;
},
{
anchors = (
{
name = bottom;
pos = (276,0);
},
{
name = ogonek;
pos = (376,0);
},
{
name = top;
pos = (276,472);
}
);
layerId = "6DD95C5A-998B-41AB-BDFB-84A73C209871";
shapes = (
{
closed = 1;
nodes = (
(310,-7,o),
(350,14,o),
(376,48,c),
(376,0,l),
(520,0,l),
(520,472,l),
(376,472,l),
(376,239,ls),
(376,119,o),
(316,95,o),
(264,95,cs),
(206,95,o),
(186,131,o),
(186,194,cs),
(186,472,l),
(42,472,l),
(42,194,ls),
(42,103,o),
(82,-7,o),
(254,-7,cs)
);
}
);
width = 567;
},
{
anchors = (
{
name = bottom;
pos = (276,0);
},
{
name = ogonek;
pos = (460,1);
},
{
name = top;
pos = (276,472);
}
);
layerId = "1FDC7037-1F88-4969-8535-0F79C1EF19DB";
shapes = (
{
closed = 1;
nodes = (
(335,-7,o),
(436,47,o),
(460,152,c),
(460,1,l),
(486,1,l),
(486,472,l),
(460,472,l),
(460,207,l),
(444,41,o),
(332,5,o),
(246,5,cs),
(119,5,o),
(74,91,o),
(74,185,cs),
(74,472,l),
(48,472,l),
(48,185,ls),
(48,84,o),
(84,-7,o),
(234,-7,cs)
);
}
);
width = 533;
},
{
anchors = (
{
name = bottom;
pos = (276,0);
},
{
name = ogonek;
pos = (358,0);
},
{
name = top;
pos = (276,472);
}
);
layerId = "3ED9E848-BE83-4CAC-8EFF-D71BD2B4F667";
shapes = (
{
closed = 1;
nodes = (
(305,-7,o),
(332,8,o),
(358,25,c),
(358,0,l),
(527,0,l),
(527,472,l),
(358,472,l),
(358,244,l),
(362,135,o),
(312,114,o),
(268,114,cs),
(223,114,o),
(209,140,o),
(209,196,cs),
(209,472,l),
(41,472,l),
(41,196,ls),
(41,107,o),
(82,-7,o),
(257,-7,cs)
);
}
);
width = 574;
}
);
note = u;
unicode = 117;
},
{
glyphname = v;
kernLeft = v;
kernRight = v;
lastChange = "2023-10-27 15:22:10 +0000";
layers = (
{
layerId = "F5467FAD-1970-4982-B3D3-939C01050498";
shapes = (
{
closed = 1;
nodes = (
(243,0,l),
(442,472,l),
(405,472,l),
(220,33,l),
(233,33,l),
(48,472,l),
(10,472,l),
(209,0,l)
);
}
);
width = 472;
},
{
layerId = "6DD95C5A-998B-41AB-BDFB-84A73C209871";
shapes = (
{
closed = 1;
nodes = (
(336,0,l),
(525,472,l),
(383,472,l),
(245,120,l),
(295,120,l),
(157,472,l),
(14,472,l),
(204,0,l)
);
}
);
width = 539;
},
{
layerId = "1FDC7037-1F88-4969-8535-0F79C1EF19DB";
shapes = (
{
closed = 1;
nodes = (
(228,0,l),
(429,472,l),
(408,472,l),
(216,19,l),
(223,19,l),
(31,472,l),
(9,472,l),
(210,0,l)
);
}
);
width = 461;
},
{
layerId = "3ED9E848-BE83-4CAC-8EFF-D71BD2B4F667";
shapes = (
{
closed = 1;
nodes = (
(358,0,l),
(546,472,l),
(377,472,l),
(252,141,l),
(310,141,l),
(183,472,l),
(15,472,l),
(202,0,l)
);
}
);
width = 556;
}
);
note = v;
unicode = 118;
},
{
glyphname = w;
kernLeft = w;
kernRight = w;
lastChange = "2023-10-27 15:22:10 +0000";
layers = (
{
anchors = (
{
name = bottom;
pos = (305,0);
},
{
name = top;
pos = (298,472);
}
);
layerId = "F5467FAD-1970-4982-B3D3-939C01050498";
shapes = (
{
closed = 1;
nodes = (
(185,0,l),
(305,442,l),
(291,442,l),
(411,0,l),
(452,0,l),
(587,472,l),
(549,472,l),
(428,35,l),
(434,35,l),
(313,472,l),
(283,472,l),
(162,35,l),
(168,35,l),
(47,472,l),
(9,472,l),
(144,0,l)
);
}
);
width = 609;
},
{
anchors = (
{
name = bottom;
pos = (360,0);
},
{
name = top;
pos = (360,472);
}
);
layerId = "6DD95C5A-998B-41AB-BDFB-84A73C209871";
shapes = (
{
closed = 1;
nodes = (
(306,0,l),
(370,327,l),
(351,327,l),
(414,0,l),
(571,0,l),
(706,472,l),
(563,472,l),
(482,121,l),
(505,121,l),
(423,472,l),
(297,472,l),
(216,122,l),
(239,122,l),
(157,472,l),
(14,472,l),
(148,0,l)
);
}
);
width = 720;
},
{
anchors = (
{
name = bottom;
pos = (296,0);
},
{
name = top;
pos = (288,472);
}
);
layerId = "1FDC7037-1F88-4969-8535-0F79C1EF19DB";
shapes = (
{
closed = 1;
nodes = (
(165,0,l),
(294,461,l),
(282,461,l),
(411,0,l),
(433,0,l),
(568,472,l),
(547,472,l),
(420,21,l),
(422,21,l),
(295,472,l),
(281,472,l),
(154,21,l),
(157,21,l),
(29,472,l),
(8,472,l),
(143,0,l)
);
}
);
width = 591;
},
{
anchors = (
{
name = bottom;
pos = (373,0);
},
{
name = top;
pos = (375,472);
}
);
layerId = "3ED9E848-BE83-4CAC-8EFF-D71BD2B4F667";
shapes = (
{
closed = 1;
nodes = (
(337,0,l),
(386,299,l),
(365,299,l),
(415,0,l),
(601,0,l),
(736,472,l),
(567,472,l),
(495,141,l),
(521,141,l),
(451,472,l),
(301,472,l),
(229,143,l),
(256,143,l),
(185,472,l),
(15,472,l),
(149,0,l)
);
}
);
width = 748;
}
);
note = w;
unicode = 119;
},
{
glyphname = x;
kernLeft = x;
kernRight = x;
lastChange = "2023-10-27 15:22:10 +0000";
layers = (
{
layerId = "F5467FAD-1970-4982-B3D3-939C01050498";
shapes = (
{
closed = 1;
nodes = (
(68,472,l),
(15,472,l),
(434,0,l),
(487,0,l)
);
},
{
closed = 1;
nodes = (
(269,220,l),
(492,472,l),
(439,472,l),
(243,251,l)
);
},
{
closed = 1;
nodes = (
(232,251,l),
(9,0,l),
(62,0,l),
(257,220,l)
);
}
);
width = 502;
},
{
layerId = "6DD95C5A-998B-41AB-BDFB-84A73C209871";
shapes = (
{
closed = 1;
nodes = (
(198,472,l),
(28,472,l),
(391,0,l),
(561,0,l)
);
},
{
closed = 1;
nodes = (
(353,176,l),
(580,472,l),
(410,472,l),
(268,287,l)
);
},
{
closed = 1;
nodes = (
(230,287,l),
(9,0,l),
(179,0,l),
(315,176,l)
);
}
);
width = 589;
},
{
layerId = "1FDC7037-1F88-4969-8535-0F79C1EF19DB";
shapes = (
{
closed = 1;
nodes = (
(47,472,l),
(13,472,l),
(440,0,l),
(474,0,l)
);
},
{
closed = 1;
nodes = (
(256,226,l),
(478,472,l),
(444,472,l),
(240,245,l)
);
},
{
closed = 1;
nodes = (
(232,245,l),
(9,0,l),
(43,0,l),
(248,226,l)
);
}
);
width = 488;
},
{
layerId = "3ED9E848-BE83-4CAC-8EFF-D71BD2B4F667";
shapes = (
{
closed = 1;
nodes = (
(230,472,l),
(31,472,l),
(381,0,l),
(579,0,l)
);
},
{
closed = 1;
nodes = (
(373,166,l),
(602,472,l),
(403,472,l),
(273,295,l)
);
},
{
closed = 1;
nodes = (
(230,295,l),
(9,0,l),
(208,0,l),
(329,166,l)
);
}
);
width = 611;
}
);
note = x;
unicode = 120;
},
{
glyphname = y;
kernLeft = y;
kernRight = y;
lastChange = "2023-10-27 15:22:10 +0000";
layers = (
{
anchors = (
{
name = top;
pos = (219,472);
}
);
layerId = "F5467FAD-1970-4982-B3D3-939C01050498";
shapes = (
{
closed = 1;
nodes = (
(167,-189,l),
(436,472,l),
(391,472,l),
(237,92,l),
(249,92,l),
(58,472,l),
(9,472,l),
(237,22,l),
(237,92,l),
(122,-189,l)
);
}
);
width = 445;
},
{
anchors = (
{
name = top;
pos = (306,472);
}
);
layerId = "6DD95C5A-998B-41AB-BDFB-84A73C209871";
shapes = (
{
closed = 1;
nodes = (
(286,-189,l),
(554,472,l),
(407,472,l),
(294,193,l),
(301,194,l),
(167,472,l),
(9,472,l),
(256,-31,l),
(256,101,l),
(138,-189,l)
);
}
);
width = 564;
},
{
anchors = (
{
name = top;
pos = (205,472);
}
);
layerId = "1FDC7037-1F88-4969-8535-0F79C1EF19DB";
shapes = (
{
closed = 1;
nodes = (
(148,-189,l),
(417,472,l),
(389,472,l),
(227,76,l),
(240,76,l),
(40,472,l),
(9,472,l),
(234,30,l),
(234,91,l),
(119,-189,l)
);
}
);
width = 426;
},
{
anchors = (
{
name = top;
pos = (327,472);
}
);
layerId = "3ED9E848-BE83-4CAC-8EFF-D71BD2B4F667";
shapes = (
{
closed = 1;
nodes = (
(315,-189,l),
(584,472,l),
(411,472,l),
(308,218,l),
(314,220,l),
(194,472,l),
(9,472,l),
(260,-44,l),
(260,103,l),
(141,-189,l)
);
}
);
width = 593;
}
);
note = y;
unicode = 121;
},
{
glyphname = z;
kernLeft = z;
kernRight = z;
lastChange = "2023-10-27 15:22:10 +0000";
layers = (
{
anchors = (
{
name = bottom;
pos = (236,0);
},
{
name = top;
pos = (236,472);
}
);
layerId = "F5467FAD-1970-4982-B3D3-939C01050498";
shapes = (
{
closed = 1;
nodes = (
(446,0,l),
(446,33,l),
(67,33,l),
(462,438,l),
(462,472,l),
(47,472,l),
(47,438,l),
(403,438,l),
(9,33,l),
(9,0,l)
);
}
);
width = 472;
},
{
anchors = (
{
name = bottom;
pos = (246,0);
},
{
name = top;
pos = (246,472);
}
);
layerId = "6DD95C5A-998B-41AB-BDFB-84A73C209871";
shapes = (
{
closed = 1;
nodes = (
(472,0,l),
(472,108,l),
(209,108,l),
(465,372,l),
(465,472,l),
(33,472,l),
(33,363,l),
(265,363,l),
(19,99,l),
(19,0,l)
);
}
);
width = 491;
},
{
anchors = (
{
name = bottom;
pos = (234,0);
},
{
name = top;
pos = (234,472);
}
);
layerId = "1FDC7037-1F88-4969-8535-0F79C1EF19DB";
shapes = (
{
closed = 1;
nodes = (
(442,0,l),
(442,21,l),
(44,21,l),
(462,449,l),
(462,472,l),
(49,472,l),
(49,451,l),
(424,451,l),
(8,23,l),
(8,0,l)
);
}
);
width = 469;
},
{
anchors = (
{
name = bottom;
pos = (249,0);
},
{
name = top;
pos = (249,472);
}
);
layerId = "3ED9E848-BE83-4CAC-8EFF-D71BD2B4F667";
shapes = (
{
closed = 1;
nodes = (
(479,0,l),
(479,127,l),
(244,127,l),
(466,356,l),
(466,472,l),
(29,472,l),
(29,344,l),
(231,344,l),
(22,115,l),
(22,0,l)
);
}
);
width = 496;
}
);
note = z;
unicode = 122;
},
{
glyphname = a.ss01;
lastChange = "2023-10-27 15:22:10 +0000";
layers = (
{
anchors = (
{
name = bottom;
pos = (284,0);
},
{
name = ogonek;
pos = (463,0);
},
{
name = top;
pos = (258,472);
}
);
layerId = "F5467FAD-1970-4982-B3D3-939C01050498";
shapes = (
{
closed = 1;
nodes = (
(503,472,l),
(460,472,l),
(460,375,l),
(475,238,l),
(460,111,l),
(460,0,l),
(502,0,l)
);
},
{
closed = 1;
nodes = (
(414,-11,o),
(476,127,o),
(476,238,cs),
(476,349,o),
(409,484,o),
(263,484,cs),
(120,484,o),
(28,380,o),
(28,238,cs),
(28,94,o),
(120,-11,o),
(263,-11,cs)
);
},
{
closed = 1;
nodes = (
(148,17,o),
(71,116,o),
(71,238,cs),
(71,357,o),
(146,456,o),
(262,456,cs),
(376,456,o),
(472,372,o),
(472,238,cs),
(472,101,o),
(377,17,o),
(263,17,cs)
);
}
);
width = 550;
},
{
anchors = (
{
name = bottom;
pos = (307,0);
},
{
name = ogonek;
pos = (424,0);
},
{
name = top;
pos = (296,472);
}
);
layerId = "6DD95C5A-998B-41AB-BDFB-84A73C209871";
shapes = (
{
closed = 1;
nodes = (
(569,472,l),
(424,472,l),
(424,446,l),
(443,238,l),
(424,25,l),
(424,0,l),
(568,0,l)
);
},
{
closed = 1;
nodes = (
(421,-8,o),
(450,74,o),
(450,238,cs),
(450,401,o),
(412,483,o),
(268,483,cs),
(118,483,o),
(19,372,o),
(19,238,cs),
(19,105,o),
(118,-8,o),
(268,-8,cs)
);
},
{
closed = 1;
nodes = (
(219,96,o),
(173,153,o),
(173,238,cs),
(173,322,o),
(218,379,o),
(296,379,cs),
(384,379,o),
(434,325,o),
(434,238,cs),
(434,144,o),
(380,96,o),
(296,96,cs)
);
}
);
width = 602;
},
{
anchors = (
{
name = bottom;
pos = (280,0);
},
{
name = ogonek;
pos = (470,0);
},
{
name = top;
pos = (253,472);
}
);
layerId = "1FDC7037-1F88-4969-8535-0F79C1EF19DB";
shapes = (
{
closed = 1;
nodes = (
(492,472,l),
(466,472,l),
(466,364,l),
(480,238,l),
(466,125,l),
(466,0,l),
(491,0,l)
);
},
{
closed = 1;
nodes = (
(413,-11,o),
(480,136,o),
(480,238,cs),
(480,340,o),
(409,484,o),
(262,484,cs),
(120,484,o),
(30,381,o),
(30,238,cs),
(30,92,o),
(120,-11,o),
(262,-11,cs)
);
},
{
closed = 1;
nodes = (
(137,5,o),
(55,110,o),
(55,238,cs),
(55,363,o),
(135,469,o),
(256,469,cs),
(375,469,o),
(477,379,o),
(477,238,cs),
(477,94,o),
(377,5,o),
(257,5,cs)
);
}
);
width = 541;
},
{
anchors = (
{
name = bottom;
pos = (313,0);
},
{
name = ogonek;
pos = (415,0);
},
{
name = top;
pos = (306,472);
}
);
layerId = "3ED9E848-BE83-4CAC-8EFF-D71BD2B4F667";
shapes = (
{
closed = 1;
nodes = (
(585,472,l),
(416,472,l),
(416,463,l),
(436,238,l),
(416,3,l),
(416,0,l),
(584,0,l)
);
},
{
closed = 1;
nodes = (
(422,-8,o),
(443,60,o),
(443,238,cs),
(443,414,o),
(413,483,o),
(269,483,cs),
(118,483,o),
(17,370,o),
(17,238,cs),
(17,108,o),
(118,-8,o),
(269,-8,cs)
);
},
{
closed = 1;
nodes = (
(236,116,o),
(198,162,o),
(198,238,cs),
(198,313,o),
(236,360,o),
(305,360,cs),
(386,360,o),
(424,314,o),
(424,238,cs),
(424,155,o),
(381,116,o),
(305,116,cs)
);
}
);
width = 614;
}
);
},
{
glyphname = f.ss02;
lastChange = "2023-10-27 15:22:10 +0000";
layers = (
{
layerId = "F5467FAD-1970-4982-B3D3-939C01050498";
shapes = (
{
closed = 1;
nodes = (
(326,439,l),
(326,472,l),
(8,472,l),
(8,439,l)
);
},
{
closed = 1;
nodes = (
(140,717,o),
(117,599,o),
(117,538,cs),
(117,0,l),
(158,0,l),
(158,538,ls),
(158,648,o),
(202,690,o),
(290,690,cs),
(339,690,o),
(371,665,o),
(395,637,c),
(431,663,l),
(404,690,o),
(362,717,o),
(290,717,cs)
);
}
);
width = 399;
},
{
layerId = "6DD95C5A-998B-41AB-BDFB-84A73C209871";
shapes = (
{
closed = 1;
nodes = (
(379,363,l),
(379,472,l),
(7,472,l),
(7,363,l)
);
},
{
closed = 1;
nodes = (
(145,717,o),
(102,607,o),
(102,530,cs),
(102,0,l),
(245,0,l),
(245,530,ls),
(245,571,o),
(264,606,o),
(319,606,cs),
(364,606,o),
(375,562,o),
(381,539,c),
(486,619,l),
(468,644,o),
(410,717,o),
(300,717,cs)
);
}
);
width = 374;
},
{
layerId = "1FDC7037-1F88-4969-8535-0F79C1EF19DB";
shapes = (
{
closed = 1;
nodes = (
(318,452,l),
(318,472,l),
(8,472,l),
(8,452,l)
);
},
{
closed = 1;
nodes = (
(139,717,o),
(120,598,o),
(120,538,cs),
(120,0,l),
(144,0,l),
(144,538,ls),
(144,660,o),
(191,703,o),
(285,703,cs),
(335,703,o),
(370,681,o),
(397,653,c),
(422,670,l),
(393,698,o),
(355,717,o),
(288,717,cs)
);
}
);
width = 403;
},
{
layerId = "3ED9E848-BE83-4CAC-8EFF-D71BD2B4F667";
shapes = (
{
closed = 1;
nodes = (
(392,344,l),
(392,472,l),
(7,472,l),
(7,344,l)
);
},
{
closed = 1;
nodes = (
(146,717,o),
(98,609,o),
(98,528,cs),
(98,0,l),
(267,0,l),
(267,528,ls),
(267,552,o),
(279,586,o),
(326,586,cs),
(371,586,o),
(376,537,o),
(377,515,c),
(499,607,l),
(484,633,o),
(422,717,o),
(303,717,cs)
);
}
);
width = 369;
}
);
},
{
glyphname = f_i;
lastChange = "2023-10-27 15:22:10 +0000";
layers = (
{
anchors = (
{
name = caret_1;
pos = (267,0);
}
);
layerId = "F5467FAD-1970-4982-B3D3-939C01050498";
shapes = (
{
closed = 1;
nodes = (
(457,0,l),
(457,472,l),
(179,472,l),
(103,499,o),
(92,540,o),
(92,576,cs),
(92,648,o),
(153,686,o),
(246,686,cs),
(328,686,o),
(380,636,o),
(402,613,c),
(457,611,l),
(457,664,l),
(411,664,l),
(378,686,o),
(327,712,o),
(246,712,cs),
(103,712,o),
(58,629,o),
(58,580,cs),
(58,536,o),
(84,491,o),
(132,472,c),
(8,472,l),
(8,439,l),
(108,439,l),
(108,1,l),
(149,1,l),
(149,439,l),
(416,439,l),
(416,0,l)
);
}
);
width = 533;
},
{
anchors = (
{
name = caret_1;
pos = (303,0);
}
);
layerId = "6DD95C5A-998B-41AB-BDFB-84A73C209871";
shapes = (
{
closed = 1;
nodes = (
(530,0,l),
(530,472,l),
(227,472,l),
(196,488,o),
(187,515,o),
(187,539,cs),
(187,581,o),
(222,598,o),
(252,598,cs),
(301,598,o),
(321,587,o),
(371,529,c),
(530,529,l),
(530,653,l),
(384,653,l),
(369,666,o),
(317,696,o),
(252,696,cs),
(115,696,o),
(61,607,o),
(61,542,cs),
(61,507,o),
(77,479,o),
(102,471,c),
(7,471,l),
(7,363,l),
(90,363,l),
(90,0,l),
(232,0,l),
(232,363,l),
(387,363,l),
(387,0,l)
);
}
);
width = 605;
},
{
anchors = (
{
name = caret_1;
pos = (261,0);
}
);
layerId = "1FDC7037-1F88-4969-8535-0F79C1EF19DB";
shapes = (
{
closed = 1;
nodes = (
(446,0,l),
(446,472,l),
(172,472,l),
(88,501,o),
(77,544,o),
(77,582,cs),
(77,658,o),
(141,700,o),
(245,700,cs),
(333,700,o),
(389,643,o),
(406,626,c),
(446,624,l),
(446,666,l),
(416,666,l),
(380,688,o),
(329,715,o),
(245,715,cs),
(101,715,o),
(58,633,o),
(58,586,cs),
(58,540,o),
(85,493,o),
(137,472,c),
(8,472,l),
(8,452,l),
(111,452,l),
(111,1,l),
(136,1,l),
(136,452,l),
(421,452,l),
(421,0,l)
);
}
);
width = 521;
},
{
anchors = (
{
name = caret_1;
pos = (312,0);
}
);
layerId = "3ED9E848-BE83-4CAC-8EFF-D71BD2B4F667";
shapes = (
{
closed = 1;
nodes = (
(548,0,l),
(548,472,l),
(240,472,l),
(219,486,o),
(210,508,o),
(210,530,cs),
(210,565,o),
(239,576,o),
(253,576,cs),
(294,576,o),
(306,574,o),
(363,508,c),
(548,508,l),
(548,651,l),
(377,651,l),
(367,661,o),
(314,692,o),
(253,692,cs),
(118,692,o),
(62,602,o),
(62,533,cs),
(62,501,o),
(75,476,o),
(94,471,c),
(7,471,l),
(7,344,l),
(85,344,l),
(85,0,l),
(253,0,l),
(253,344,l),
(379,344,l),
(379,0,l)
);
}
);
width = 623;
}
);
metricLeft = f;
metricRight = i;
},
{
glyphname = ordfeminine;
lastChange = "2023-10-27 15:22:10 +0000";
layers = (
{
layerId = "F5467FAD-1970-4982-B3D3-939C01050498";
shapes = (
{
closed = 1;
nodes = (
(215,350,o),
(262,390,o),
(280,442,c),
(280,359,l),
(309,359,l),
(309,561,ls),
(309,620,o),
(297,692,o),
(177,692,cs),
(116,692,o),
(65,662,o),
(51,626,cs),
(50,622,o),
(49,620,o),
(48,615,c),
(90,615,l),
(91,617,o),
(91,620,o),
(92,622,cs),
(102,650,o),
(126,681,o),
(177,681,cs),
(253,681,o),
(275,635,o),
(275,599,cs),
(275,555,o),
(224,539,o),
(164,532,cs),
(60,520,o),
(24,488,o),
(24,439,cs),
(24,387,o),
(73,350,o),
(151,350,cs)
);
},
{
closed = 1;
nodes = (
(75,360,o),
(57,410,o),
(57,443,cs),
(57,486,o),
(87,511,o),
(162,521,cs),
(216,527,o),
(259,541,o),
(280,567,c),
(280,488,ls),
(280,429,o),
(233,360,o),
(151,360,cs)
);
}
);
width = 352;
},
{
layerId = "6DD95C5A-998B-41AB-BDFB-84A73C209871";
shapes = (
{
closed = 1;
nodes = (
(194,351,o),
(223,370,o),
(241,397,c),
(241,359,l),
(340,359,l),
(340,554,ls),
(340,605,o),
(328,690,o),
(193,690,cs),
(116,690,o),
(49,646,o),
(49,593,cs),
(49,587,o),
(51,580,o),
(52,573,c),
(148,573,l),
(148,573,o),
(147,576,o),
(147,579,cs),
(147,592,o),
(154,624,o),
(200,624,cs),
(227,624,o),
(240,612,o),
(240,589,cs),
(240,564,o),
(212,556,o),
(169,553,cs),
(62,542,o),
(24,505,o),
(24,452,cs),
(24,395,o),
(62,351,o),
(147,351,cs)
);
},
{
closed = 1;
nodes = (
(135,412,o),
(120,435,o),
(120,455,cs),
(120,482,o),
(144,494,o),
(174,498,cs),
(199,501,o),
(221,506,o),
(241,515,c),
(241,508,ls),
(241,438,o),
(205,412,o),
(166,412,cs)
);
}
);
width = 383;
},
{
layerId = "1FDC7037-1F88-4969-8535-0F79C1EF19DB";
shapes = (
{
closed = 1;
nodes = (
(219,350,o),
(269,394,o),
(287,450,c),
(287,359,l),
(305,359,l),
(305,562,ls),
(305,621,o),
(292,692,o),
(174,692,cs),
(116,692,o),
(68,665,o),
(51,632,cs),
(50,628,o),
(49,626,o),
(47,621,c),
(80,621,l),
(81,623,o),
(83,626,o),
(84,629,cs),
(94,659,o),
(122,690,o),
(174,690,cs),
(256,690,o),
(281,638,o),
(281,601,cs),
(281,554,o),
(226,537,o),
(163,528,cs),
(60,516,o),
(24,486,o),
(24,438,cs),
(24,386,o),
(74,350,o),
(152,350,cs)
);
},
{
closed = 1;
nodes = (
(66,352,o),
(46,406,o),
(46,441,cs),
(46,487,o),
(77,514,o),
(160,524,cs),
(219,531,o),
(266,547,o),
(287,575,c),
(287,486,ls),
(287,428,o),
(238,352,o),
(148,352,cs)
);
}
);
width = 347;
},
{
layerId = "3ED9E848-BE83-4CAC-8EFF-D71BD2B4F667";
shapes = (
{
closed = 1;
nodes = (
(190,351,o),
(214,365,o),
(232,386,c),
(232,359,l),
(348,359,l),
(348,553,ls),
(348,602,o),
(336,690,o),
(197,690,cs),
(116,690,o),
(45,642,o),
(49,585,cs),
(49,578,o),
(51,571,o),
(53,563,c),
(162,563,l),
(162,563,o),
(160,566,o),
(160,569,cs),
(158,578,o),
(160,610,o),
(206,610,cs),
(221,610,o),
(232,606,o),
(232,587,cs),
(232,566,o),
(209,560,o),
(170,557,cs),
(62,548,o),
(24,509,o),
(24,455,cs),
(24,397,o),
(59,351,o),
(146,351,cs)
);
},
{
closed = 1;
nodes = (
(149,425,o),
(136,440,o),
(136,458,cs),
(136,481,o),
(158,490,o),
(177,492,cs),
(195,494,o),
(211,498,o),
(232,502,c),
(232,513,ls),
(232,439,o),
(198,425,o),
(170,425,cs)
);
}
);
width = 390;
}
);
note = ordfeminine;
unicode = 170;
},
{
glyphname = ordmasculine;
lastChange = "2023-10-27 15:22:10 +0000";
layers = (
{
layerId = "F5467FAD-1970-4982-B3D3-939C01050498";
shapes = (
{
closed = 1;
nodes = (
(294,346,o),
(361,420,o),
(361,516,cs),
(361,614,o),
(293,688,o),
(193,688,cs),
(93,688,o),
(25,614,o),
(25,516,cs),
(25,420,o),
(93,346,o),
(193,346,cs)
);
},
{
closed = 1;
nodes = (
(110,354,o),
(58,429,o),
(58,516,cs),
(58,604,o),
(110,680,o),
(193,680,cs),
(276,680,o),
(329,604,o),
(329,516,cs),
(329,429,o),
(276,354,o),
(193,354,cs)
);
}
);
width = 358;
},
{
layerId = "6DD95C5A-998B-41AB-BDFB-84A73C209871";
shapes = (
{
closed = 1;
nodes = (
(306,348,o),
(378,425,o),
(378,516,cs),
(378,607,o),
(306,687,o),
(203,687,cs),
(97,687,o),
(26,607,o),
(26,516,cs),
(26,425,o),
(97,348,o),
(203,348,cs)
);
},
{
closed = 1;
nodes = (
(156,416,o),
(120,449,o),
(120,516,cs),
(120,585,o),
(156,618,o),
(203,618,cs),
(249,618,o),
(285,585,o),
(285,516,cs),
(285,449,o),
(249,416,o),
(203,416,cs)
);
}
);
width = 358;
},
{
layerId = "1FDC7037-1F88-4969-8535-0F79C1EF19DB";
shapes = (
{
closed = 1;
nodes = (
(292,346,o),
(359,419,o),
(359,516,cs),
(359,615,o),
(291,689,o),
(192,689,cs),
(93,689,o),
(25,615,o),
(25,516,cs),
(25,419,o),
(92,346,o),
(192,346,cs)
);
},
{
closed = 1;
nodes = (
(103,344,o),
(48,426,o),
(48,516,cs),
(48,607,o),
(103,689,o),
(192,689,cs),
(281,689,o),
(336,607,o),
(336,516,cs),
(336,426,o),
(281,344,o),
(192,344,cs)
);
}
);
width = 358;
},
{
layerId = "3ED9E848-BE83-4CAC-8EFF-D71BD2B4F667";
shapes = (
{
closed = 1;
nodes = (
(310,348,o),
(382,427,o),
(382,516,cs),
(382,605,o),
(310,687,o),
(205,687,cs),
(98,687,o),
(27,605,o),
(27,516,cs),
(27,427,o),
(99,348,o),
(205,348,cs)
);
},
{
closed = 1;
nodes = (
(167,431,o),
(134,454,o),
(134,516,cs),
(134,580,o),
(167,602,o),
(205,602,cs),
(242,602,o),
(274,580,o),
(274,516,cs),
(274,454,o),
(242,431,o),
(205,431,cs)
);
}
);
width = 358;
}
);
note = ordmasculine;
unicode = 186;
},
{
glyphname = Delta;
lastChange = "2023-10-27 15:22:10 +0000";
layers = (
{
layerId = "F5467FAD-1970-4982-B3D3-939C01050498";
shapes = (
{
closed = 1;
nodes = (
(576,0,l),
(576,36,l),
(334,660,l),
(281,660,l),
(39,36,l),
(39,0,l)
);
},
{
closed = 1;
nodes = (
(307,623,l),
(536,36,l),
(79,36,l)
);
}
);
width = 615;
},
{
layerId = "6DD95C5A-998B-41AB-BDFB-84A73C209871";
shapes = (
{
closed = 1;
nodes = (
(615,0,l),
(615,124,l),
(388,660,l),
(227,660,l),
(0,124,l),
(0,0,l)
);
},
{
closed = 1;
nodes = (
(307,528,l),
(460,124,l),
(155,124,l)
);
}
);
width = 615;
},
{
layerId = "1FDC7037-1F88-4969-8535-0F79C1EF19DB";
shapes = (
{
closed = 1;
nodes = (
(570,0,l),
(570,22,l),
(325,660,l),
(290,660,l),
(45,22,l),
(45,0,l)
);
},
{
closed = 1;
nodes = (
(307,639,l),
(548,22,l),
(67,22,l)
);
}
);
width = 615;
},
{
layerId = "3ED9E848-BE83-4CAC-8EFF-D71BD2B4F667";
shapes = (
{
closed = 1;
nodes = (
(624,0,l),
(624,145,l),
(401,660,l),
(214,660,l),
(-9,145,l),
(-9,0,l)
);
},
{
closed = 1;
nodes = (
(307,505,l),
(441,145,l),
(174,145,l)
);
}
);
width = 615;
}
);
note = Delta;
unicode = 916;
},
{
glyphname = Omega;
lastChange = "2023-10-27 15:22:10 +0000";
layers = (
{
layerId = "F5467FAD-1970-4982-B3D3-939C01050498";
shapes = (
{
closed = 1;
nodes = (
(253,0,l),
(253,51,l),
(138,91,o),
(69,203,o),
(69,339,cs),
(69,503,o),
(185,636,o),
(357,636,cs),
(531,636,o),
(646,503,o),
(646,339,cs),
(646,203,o),
(576,90,o),
(461,51,c),
(461,0,l),
(700,0,l),
(700,41,l),
(519,41,l),
(628,70,o),
(687,226,o),
(687,339,cs),
(687,515,o),
(556,665,o),
(357,665,cs),
(158,665,o),
(29,515,o),
(29,339,cs),
(29,257,o),
(67,79,o),
(201,41,c),
(14,41,l),
(14,0,l)
);
}
);
width = 715;
},
{
layerId = "6DD95C5A-998B-41AB-BDFB-84A73C209871";
shapes = (
{
closed = 1;
nodes = (
(296,0,l),
(296,104,l),
(193,127,o),
(130,220,o),
(130,338,cs),
(130,470,o),
(221,572,o),
(357,572,cs),
(495,572,o),
(585,470,o),
(585,338,cs),
(585,220,o),
(521,126,o),
(418,104,c),
(418,0,l),
(699,0,l),
(699,104,l),
(590,104,l),
(657,164,o),
(705,251,o),
(705,338,cs),
(705,513,o),
(555,665,o),
(357,665,cs),
(159,665,o),
(9,513,o),
(9,338,cs),
(9,251,o),
(58,163,o),
(127,104,c),
(15,104,l),
(15,0,l)
);
}
);
width = 715;
},
{
layerId = "1FDC7037-1F88-4969-8535-0F79C1EF19DB";
shapes = (
{
closed = 1;
nodes = (
(246,0,l),
(246,42,l),
(129,85,o),
(59,200,o),
(59,339,cs),
(59,508,o),
(179,646,o),
(357,646,cs),
(537,646,o),
(655,508,o),
(655,339,cs),
(655,200,o),
(585,84,o),
(468,42,c),
(468,0,l),
(700,0,l),
(700,31,l),
(507,31,l),
(623,55,o),
(684,223,o),
(684,339,cs),
(684,515,o),
(556,665,o),
(357,665,cs),
(158,665,o),
(32,515,o),
(32,339,cs),
(32,258,o),
(69,66,o),
(212,31,c),
(14,31,l),
(14,0,l)
);
}
);
width = 715;
},
{
layerId = "3ED9E848-BE83-4CAC-8EFF-D71BD2B4F667";
shapes = (
{
closed = 1;
nodes = (
(306,0,l),
(306,117,l),
(207,137,o),
(145,223,o),
(145,338,cs),
(145,461,o),
(229,557,o),
(357,557,cs),
(487,557,o),
(570,461,o),
(570,338,cs),
(570,223,o),
(507,136,o),
(407,117,c),
(407,0,l),
(699,0,l),
(699,119,l),
(608,119,l),
(665,188,o),
(710,256,o),
(710,338,cs),
(710,513,o),
(555,665,o),
(357,665,cs),
(159,665,o),
(5,513,o),
(5,338,cs),
(5,249,o),
(56,184,o),
(109,119,c),
(15,119,l),
(15,0,l)
);
}
);
width = 715;
}
);
note = Omega;
unicode = 937;
},
{
glyphname = mu;
lastChange = "2023-10-27 15:22:10 +0000";
layers = (
{
layerId = "F5467FAD-1970-4982-B3D3-939C01050498";
shapes = (
{
closed = 1;
nodes = (
(90,-189,l),
(90,75,l),
(120,21,o),
(173,-7,o),
(242,-7,cs),
(325,-7,o),
(397,22,o),
(433,99,c),
(433,0,l),
(472,0,l),
(472,472,l),
(433,472,l),
(433,201,ls),
(433,68,o),
(320,20,o),
(242,20,cs),
(139,20,o),
(90,111,o),
(90,177,cs),
(90,472,l),
(50,472,l),
(50,-189,l)
);
}
);
width = 524;
},
{
layerId = "6DD95C5A-998B-41AB-BDFB-84A73C209871";
shapes = (
{
closed = 1;
nodes = (
(166,-189,l),
(166,-5,l),
(186,-8,o),
(208,-11,o),
(235,-11,cs),
(283,-11,o),
(325,-1,o),
(358,21,c),
(358,-6,l),
(504,-6,l),
(504,472,l),
(358,472,l),
(358,237,ls),
(356,115,o),
(297,91,o),
(245,91,cs),
(186,91,o),
(166,128,o),
(166,191,cs),
(166,472,l),
(21,472,l),
(21,-189,l)
);
}
);
width = 524;
},
{
layerId = "1FDC7037-1F88-4969-8535-0F79C1EF19DB";
shapes = (
{
closed = 1;
nodes = (
(77,-189,l),
(77,89,l),
(109,25,o),
(167,-6,o),
(243,-6,cs),
(332,-6,o),
(408,25,o),
(445,111,c),
(445,1,l),
(468,1,l),
(468,472,l),
(445,472,l),
(445,195,ls),
(445,60,o),
(323,8,o),
(242,8,cs),
(131,8,o),
(77,108,o),
(77,175,cs),
(77,472,l),
(55,472,l),
(55,-189,l)
);
}
);
width = 524;
},
{
layerId = "3ED9E848-BE83-4CAC-8EFF-D71BD2B4F667";
shapes = (
{
closed = 1;
nodes = (
(185,-189,l),
(185,-25,l),
(202,-16,o),
(218,-12,o),
(233,-12,cs),
(273,-12,o),
(307,-6,o),
(340,1,c),
(340,-7,l),
(511,-7,l),
(511,472,l),
(340,472,l),
(340,245,ls),
(337,126,o),
(290,108,o),
(246,108,cs),
(197,108,o),
(185,132,o),
(185,195,cs),
(185,472,l),
(13,472,l),
(13,-189,l)
);
}
);
width = 524;
}
);
note = mu;
unicode = 956;
},
{
glyphname = pi;
lastChange = "2023-10-27 15:22:10 +0000";
layers = (
{
layerId = "F5467FAD-1970-4982-B3D3-939C01050498";
shapes = (
{
closed = 1;
nodes = (
(164,0,l),
(164,437,l),
(402,437,l),
(402,0,l),
(449,0,l),
(449,437,l),
(547,437,l),
(547,472,l),
(22,472,l),
(22,437,l),
(117,437,l),
(117,0,l)
);
}
);
width = 566;
},
{
layerId = "6DD95C5A-998B-41AB-BDFB-84A73C209871";
shapes = (
{
closed = 1;
nodes = (
(234,-3,l),
(234,353,l),
(333,353,l),
(333,-3,l),
(484,-3,l),
(484,353,l),
(570,353,l),
(570,476,l),
(-1,476,l),
(-1,353,l),
(83,353,l),
(83,-3,l)
);
}
);
width = 566;
},
{
layerId = "1FDC7037-1F88-4969-8535-0F79C1EF19DB";
shapes = (
{
closed = 1;
nodes = (
(153,0,l),
(153,450,l),
(413,450,l),
(413,0,l),
(443,0,l),
(443,450,l),
(543,450,l),
(543,471,l),
(25,471,l),
(25,450,l),
(123,450,l),
(123,0,l)
);
}
);
width = 566;
},
{
layerId = "3ED9E848-BE83-4CAC-8EFF-D71BD2B4F667";
shapes = (
{
closed = 1;
nodes = (
(251,-4,l),
(251,332,l),
(316,332,l),
(316,-4,l),
(492,-4,l),
(492,332,l),
(575,332,l),
(575,477,l),
(-7,477,l),
(-7,332,l),
(74,332,l),
(74,-4,l)
);
}
);
width = 566;
}
);
note = pi;
unicode = 960;
},
{
glyphname = zero;
kernRight = zero;
lastChange = "2023-10-27 15:22:10 +0000";
layers = (
{
layerId = "F5467FAD-1970-4982-B3D3-939C01050498";
shapes = (
{
closed = 1;
nodes = (
(483,-12,o),
(581,122,o),
(581,328,cs),
(581,535,o),
(483,669,o),
(306,669,cs),
(131,669,o),
(34,535,o),
(34,328,cs),
(34,122,o),
(131,-12,o),
(306,-12,cs)
);
},
{
closed = 1;
nodes = (
(163,13,o),
(76,133,o),
(76,328,cs),
(76,523,o),
(163,643,o),
(306,643,cs),
(449,643,o),
(538,523,o),
(538,328,cs),
(538,133,o),
(449,13,o),
(306,13,cs)
);
}
);
width = 615;
},
{
layerId = "6DD95C5A-998B-41AB-BDFB-84A73C209871";
shapes = (
{
closed = 1;
nodes = (
(519,-11,o),
(621,132,o),
(621,328,cs),
(621,524,o),
(519,668,o),
(326,668,cs),
(135,668,o),
(33,524,o),
(33,328,cs),
(33,132,o),
(135,-11,o),
(326,-11,cs)
);
},
{
closed = 1;
nodes = (
(240,93,o),
(179,174,o),
(179,328,cs),
(179,482,o),
(240,563,o),
(326,563,cs),
(413,563,o),
(475,482,o),
(475,328,cs),
(475,174,o),
(413,93,o),
(326,93,cs)
);
}
);
width = 654;
},
{
layerId = "1FDC7037-1F88-4969-8535-0F79C1EF19DB";
shapes = (
{
closed = 1;
nodes = (
(477,-12,o),
(574,120,o),
(574,328,cs),
(574,537,o),
(477,669,o),
(304,669,cs),
(130,669,o),
(34,537,o),
(34,328,cs),
(34,120,o),
(130,-12,o),
(304,-12,cs)
);
},
{
closed = 1;
nodes = (
(151,0,o),
(60,126,o),
(60,328,cs),
(60,530,o),
(151,656,o),
(304,656,cs),
(455,656,o),
(549,530,o),
(549,328,cs),
(549,126,o),
(455,0,o),
(304,0,cs)
);
}
);
width = 608;
},
{
layerId = "3ED9E848-BE83-4CAC-8EFF-D71BD2B4F667";
shapes = (
{
closed = 1;
nodes = (
(527,-11,o),
(632,135,o),
(632,328,cs),
(632,521,o),
(527,668,o),
(331,668,cs),
(136,668,o),
(33,521,o),
(33,328,cs),
(33,135,o),
(136,-11,o),
(331,-11,cs)
);
},
{
closed = 1;
nodes = (
(259,113,o),
(205,185,o),
(205,328,cs),
(205,472,o),
(259,543,o),
(331,543,cs),
(405,543,o),
(460,472,o),
(460,328,cs),
(460,185,o),
(405,113,o),
(331,113,cs)
);
}
);
width = 664;
}
);
note = zero;
unicode = 48;
},
{
glyphname = one;
kernRight = one;
lastChange = "2023-10-27 15:22:10 +0000";
layers = (
{
layerId = "F5467FAD-1970-4982-B3D3-939C01050498";
shapes = (
{
closed = 1;
nodes = (
(266,0,l),
(266,660,l),
(221,660,l),
(221,648,ls),
(221,628,o),
(198,617,o),
(170,610,cs),
(136,603,o),
(93,602,o),
(71,603,c),
(71,585,l),
(226,585,l),
(226,0,l)
);
}
);
width = 356;
},
{
layerId = "6DD95C5A-998B-41AB-BDFB-84A73C209871";
shapes = (
{
closed = 1;
nodes = (
(309,0,l),
(309,660,l),
(164,660,l),
(164,643,ls),
(164,610,o),
(134,593,o),
(88,593,cs),
(71,593,o),
(50,595,o),
(27,601,c),
(27,506,l),
(164,506,l),
(164,0,l)
);
}
);
width = 356;
},
{
layerId = "1FDC7037-1F88-4969-8535-0F79C1EF19DB";
shapes = (
{
closed = 1;
nodes = (
(259,0,l),
(259,660,l),
(230,660,l),
(230,649,ls),
(230,631,o),
(208,620,o),
(183,613,cs),
(146,604,o),
(100,603,o),
(77,603,c),
(77,597,l),
(237,597,l),
(237,0,l)
);
}
);
width = 356;
},
{
layerId = "3ED9E848-BE83-4CAC-8EFF-D71BD2B4F667";
shapes = (
{
closed = 1;
nodes = (
(320,0,l),
(320,660,l),
(150,660,l),
(150,642,ls),
(150,605,o),
(118,587,o),
(68,588,cs),
(55,590,o),
(40,594,o),
(17,601,c),
(17,488,l),
(149,488,l),
(149,0,l)
);
}
);
width = 356;
}
);
note = one;
unicode = 49;
},
{
glyphname = two;
lastChange = "2023-10-27 15:22:10 +0000";
layers = (
{
layerId = "F5467FAD-1970-4982-B3D3-939C01050498";
shapes = (
{
closed = 1;
nodes = (
(466,0,l),
(466,38,l),
(89,38,l),
(229,229,o),
(455,299,o),
(455,495,cs),
(455,610,o),
(384,672,o),
(253,672,cs),
(163,672,o),
(78,630,o),
(57,524,c),
(101,529,l),
(114,598,o),
(175,646,o),
(253,646,cs),
(348,646,o),
(416,597,o),
(416,489,cs),
(416,312,o),
(179,232,o),
(41,32,c),
(41,0,l)
);
}
);
width = 506;
},
{
layerId = "6DD95C5A-998B-41AB-BDFB-84A73C209871";
shapes = (
{
closed = 1;
nodes = (
(505,0,l),
(505,116,l),
(210,116,l),
(268,190,o),
(487,259,o),
(487,465,cs),
(487,582,o),
(412,672,o),
(262,672,cs),
(132,672,o),
(23,593,o),
(41,457,c),
(186,472,l),
(174,528,o),
(203,570,o),
(262,570,cs),
(311,570,o),
(343,533,o),
(342,467,cs),
(339,286,o),
(78,197,o),
(22,94,c),
(21,0,l)
);
}
);
width = 525;
},
{
layerId = "1FDC7037-1F88-4969-8535-0F79C1EF19DB";
shapes = (
{
closed = 1;
nodes = (
(459,0,l),
(459,25,l),
(69,25,l),
(223,236,o),
(451,305,o),
(451,501,cs),
(451,615,o),
(379,672,o),
(251,672,cs),
(168,672,o),
(87,636,o),
(59,535,c),
(88,538,l),
(105,609,o),
(171,658,o),
(251,658,cs),
(354,658,o),
(427,607,o),
(428,493,cs),
(428,316,o),
(195,238,o),
(43,22,c),
(43,0,l)
);
}
);
width = 504;
},
{
layerId = "3ED9E848-BE83-4CAC-8EFF-D71BD2B4F667";
shapes = (
{
closed = 1;
nodes = (
(514,0,l),
(514,135,l),
(240,135,l),
(277,180,o),
(494,249,o),
(494,457,cs),
(494,575,o),
(420,672,o),
(264,672,cs),
(124,672,o),
(9,584,o),
(38,441,c),
(207,457,l),
(190,511,o),
(209,551,o),
(265,551,cs),
(302,551,o),
(325,517,o),
(324,461,cs),
(321,279,o),
(54,189,o),
(17,109,c),
(16,0,l)
);
}
);
width = 530;
}
);
note = two;
unicode = 50;
},
{
glyphname = three;
kernRight = three;
lastChange = "2023-10-27 15:22:10 +0000";
layers = (
{
layerId = "F5467FAD-1970-4982-B3D3-939C01050498";
shapes = (
{
closed = 1;
nodes = (
(364,-9,o),
(467,55,o),
(467,181,cs),
(467,356,o),
(331,406,o),
(210,384,c),
(215,376,l),
(454,633,l),
(454,660,l),
(67,660,l),
(67,633,l),
(411,633,l),
(188,388,l),
(204,362,l),
(219,366,o),
(242,367,o),
(259,367,cs),
(356,367,o),
(428,301,o),
(428,190,cs),
(428,77,o),
(343,17,o),
(249,17,cs),
(155,17,o),
(85,56,o),
(72,154,c),
(32,154,l),
(48,42,o),
(134,-9,o),
(249,-9,cs)
);
}
);
width = 506;
},
{
layerId = "6DD95C5A-998B-41AB-BDFB-84A73C209871";
shapes = (
{
closed = 1;
nodes = (
(410,-9,o),
(531,75,o),
(531,207,cs),
(531,348,o),
(433,411,o),
(321,400,c),
(328,390,l),
(510,568,l),
(510,660,l),
(70,660,l),
(70,558,l),
(335,558,l),
(170,381,l),
(231,307,l),
(256,318,o),
(274,321,o),
(294,321,cs),
(347,321,o),
(387,284,o),
(387,207,cs),
(387,129,o),
(339,92,o),
(285,92,cs),
(218,92,o),
(179,123,o),
(182,216,c),
(38,216,l),
(33,67,o),
(145,-9,o),
(285,-9,cs)
);
}
);
width = 569;
},
{
layerId = "1FDC7037-1F88-4969-8535-0F79C1EF19DB";
shapes = (
{
closed = 1;
nodes = (
(356,-9,o),
(456,51,o),
(456,177,cs),
(456,356,o),
(315,405,o),
(192,381,c),
(197,374,l),
(444,643,l),
(444,660,l),
(66,660,l),
(66,645,l),
(423,645,l),
(190,389,l),
(199,371,l),
(213,373,o),
(238,374,o),
(254,374,cs),
(356,374,o),
(435,304,o),
(435,188,cs),
(435,69,o),
(344,5,o),
(243,5,cs),
(144,5,o),
(70,45,o),
(54,143,c),
(31,143,l),
(51,39,o),
(132,-9,o),
(243,-9,cs)
);
}
);
width = 497;
},
{
layerId = "3ED9E848-BE83-4CAC-8EFF-D71BD2B4F667";
shapes = (
{
closed = 1;
nodes = (
(422,-9,o),
(547,80,o),
(547,214,cs),
(547,346,o),
(458,412,o),
(348,404,c),
(356,394,l),
(524,552,l),
(524,660,l),
(71,660,l),
(71,540,l),
(316,540,l),
(165,379,l),
(238,294,l),
(266,306,o),
(282,309,o),
(303,309,cs),
(345,309,o),
(376,280,o),
(376,211,cs),
(376,142,o),
(339,111,o),
(294,111,cs),
(234,111,o),
(203,139,o),
(209,231,c),
(40,231,l),
(29,73,o),
(148,-9,o),
(294,-9,cs)
);
}
);
width = 584;
}
);
note = three;
unicode = 51;
},
{
glyphname = four;
kernRight = four;
lastChange = "2023-10-27 15:22:10 +0000";
layers = (
{
layerId = "F5467FAD-1970-4982-B3D3-939C01050498";
shapes = (
{
closed = 1;
nodes = (
(398,0,l),
(398,228,l),
(516,228,l),
(516,257,l),
(398,257,l),
(398,660,l),
(361,660,l),
(32,253,l),
(32,229,l),
(358,228,l),
(358,0,l)
);
},
{
closed = 1;
nodes = (
(358,614,l),
(358,257,l),
(75,257,l)
);
}
);
width = 544;
},
{
layerId = "6DD95C5A-998B-41AB-BDFB-84A73C209871";
shapes = (
{
closed = 1;
nodes = (
(459,0,l),
(459,175,l),
(563,175,l),
(563,284,l),
(459,284,l),
(459,660,l),
(333,660,l),
(29,273,l),
(28,176,l),
(314,176,l),
(314,0,l)
);
},
{
closed = 1;
nodes = (
(314,456,l),
(314,284,l),
(183,284,l)
);
}
);
width = 594;
},
{
layerId = "1FDC7037-1F88-4969-8535-0F79C1EF19DB";
shapes = (
{
closed = 1;
nodes = (
(389,0,l),
(389,237,l),
(508,237,l),
(508,254,l),
(389,254,l),
(389,660,l),
(366,660,l),
(32,249,l),
(33,238,l),
(366,237,l),
(366,0,l)
);
},
{
closed = 1;
nodes = (
(366,639,l),
(366,254,l),
(58,254,l)
);
}
);
width = 537;
},
{
layerId = "3ED9E848-BE83-4CAC-8EFF-D71BD2B4F667";
shapes = (
{
closed = 1;
nodes = (
(474,0,l),
(474,162,l),
(574,162,l),
(574,290,l),
(474,290,l),
(474,660,l),
(326,660,l),
(28,278,l),
(27,163,l),
(303,163,l),
(303,0,l)
);
},
{
closed = 1;
nodes = (
(303,418,l),
(303,290,l),
(209,290,l)
);
}
);
width = 606;
}
);
note = four;
unicode = 52;
},
{
glyphname = five;
kernRight = five;
lastChange = "2023-10-27 15:22:10 +0000";
layers = (
{
layerId = "F5467FAD-1970-4982-B3D3-939C01050498";
shapes = (
{
closed = 1;
nodes = (
(401,-9,o),
(509,69,o),
(509,195,cs),
(509,331,o),
(406,405,o),
(290,405,cs),
(228,405,o),
(186,384,o),
(151,359,c),
(151,632,l),
(471,632,l),
(471,660,l),
(111,660,l),
(111,326,l),
(151,326,l),
(180,352,o),
(212,379,o),
(290,379,cs),
(383,379,o),
(471,322,o),
(471,195,cs),
(471,83,o),
(381,17,o),
(287,17,cs),
(203,17,o),
(136,63,o),
(120,154,c),
(72,154,l),
(90,50,o),
(183,-9,o),
(287,-9,cs)
);
}
);
width = 566;
},
{
layerId = "6DD95C5A-998B-41AB-BDFB-84A73C209871";
shapes = (
{
closed = 1;
nodes = (
(412,-9,o),
(538,80,o),
(538,211,cs),
(538,370,o),
(417,435,o),
(297,435,cs),
(269,435,o),
(246,431,o),
(223,422,c),
(223,543,l),
(504,543,l),
(504,660,l),
(97,660,l),
(97,290,l),
(215,290,l),
(234,321,o),
(262,331,o),
(287,331,cs),
(342,331,o),
(393,298,o),
(393,211,cs),
(393,134,o),
(341,92,o),
(287,92,cs),
(230,92,o),
(181,132,o),
(185,216,c),
(41,216,l),
(35,79,o),
(158,-9,o),
(287,-9,cs)
);
}
);
width = 566;
},
{
layerId = "1FDC7037-1F88-4969-8535-0F79C1EF19DB";
shapes = (
{
closed = 1;
nodes = (
(399,-9,o),
(505,67,o),
(505,192,cs),
(505,324,o),
(405,401,o),
(290,401,cs),
(222,401,o),
(176,376,o),
(140,350,c),
(140,646,l),
(465,646,l),
(465,660,l),
(113,660,l),
(113,332,l),
(141,332,l),
(172,356,o),
(205,387,o),
(291,387,cs),
(389,387,o),
(483,325,o),
(483,192,cs),
(483,74,o),
(388,5,o),
(287,5,cs),
(198,5,o),
(128,52,o),
(109,143,c),
(76,143,l),
(98,45,o),
(187,-9,o),
(287,-9,cs)
);
}
);
width = 566;
},
{
layerId = "3ED9E848-BE83-4CAC-8EFF-D71BD2B4F667";
shapes = (
{
closed = 1;
nodes = (
(415,-9,o),
(544,83,o),
(544,215,cs),
(544,379,o),
(420,442,o),
(299,442,cs),
(279,442,o),
(261,442,o),
(241,437,c),
(241,521,l),
(512,521,l),
(512,660,l),
(93,660,l),
(93,282,l),
(231,282,l),
(247,313,o),
(274,319,o),
(286,319,cs),
(332,319,o),
(374,292,o),
(374,215,cs),
(374,146,o),
(332,111,o),
(287,111,cs),
(237,111,o),
(192,149,o),
(201,231,c),
(34,231,l),
(22,87,o),
(153,-9,o),
(287,-9,cs)
);
}
);
width = 566;
}
);
note = five;
unicode = 53;
},
{
glyphname = six;
lastChange = "2023-10-27 15:22:10 +0000";
layers = (
{
layerId = "F5467FAD-1970-4982-B3D3-939C01050498";
shapes = (
{
closed = 1;
nodes = (
(372,-9,o),
(475,64,o),
(475,190,cs),
(475,317,o),
(372,391,o),
(256,391,cs),
(220,391,o),
(188,384,o),
(157,369,c),
(337,660,l),
(294,660,l),
(74,306,ls),
(54,273,o),
(39,237,o),
(39,191,cs),
(39,65,o),
(142,-9,o),
(257,-9,cs)
);
},
{
closed = 1;
nodes = (
(162,17,o),
(78,77,o),
(78,190,cs),
(78,304,o),
(163,364,o),
(257,364,cs),
(352,364,o),
(436,305,o),
(436,191,cs),
(436,78,o),
(351,17,o),
(256,17,cs)
);
}
);
width = 516;
},
{
layerId = "6DD95C5A-998B-41AB-BDFB-84A73C209871";
shapes = (
{
closed = 1;
nodes = (
(383,-9,o),
(504,75,o),
(504,207,cs),
(504,323,o),
(407,405,o),
(298,422,cs),
(290,422,o),
(283,423,o),
(275,423,c),
(422,660,l),
(256,660,l),
(62,347,ls),
(30,296,o),
(10,256,o),
(10,207,cs),
(10,76,o),
(132,-9,o),
(257,-9,cs)
);
},
{
closed = 1;
nodes = (
(202,93,o),
(156,129,o),
(156,207,cs),
(156,285,o),
(203,322,o),
(257,322,cs),
(312,322,o),
(358,286,o),
(358,207,cs),
(358,130,o),
(311,93,o),
(256,93,cs)
);
}
);
width = 516;
},
{
layerId = "1FDC7037-1F88-4969-8535-0F79C1EF19DB";
shapes = (
{
closed = 1;
nodes = (
(371,-9,o),
(471,62,o),
(471,188,cs),
(471,316,o),
(366,389,o),
(250,387,cs),
(207,387,o),
(173,377,o),
(138,360,c),
(323,660,l),
(300,660,l),
(76,300,ls),
(58,270,o),
(43,234,o),
(43,189,cs),
(43,63,o),
(144,-9,o),
(257,-9,cs)
);
},
{
closed = 1;
nodes = (
(156,5,o),
(66,69,o),
(66,188,cs),
(66,306,o),
(157,371,o),
(257,371,cs),
(358,371,o),
(448,307,o),
(448,189,cs),
(448,70,o),
(357,5,o),
(256,5,cs)
);
}
);
width = 516;
},
{
layerId = "3ED9E848-BE83-4CAC-8EFF-D71BD2B4F667";
shapes = (
{
closed = 1;
nodes = (
(386,-9,o),
(510,78,o),
(510,211,cs),
(510,325,o),
(416,407,o),
(308,429,cs),
(308,430,o),
(306,433,o),
(305,438,c),
(443,660,l),
(247,660,l),
(59,357,ls),
(25,302,o),
(4,260,o),
(4,211,cs),
(4,79,o),
(129,-9,o),
(257,-9,cs)
);
},
{
closed = 1;
nodes = (
(211,112,o),
(174,142,o),
(174,211,cs),
(174,280,o),
(212,311,o),
(257,311,cs),
(303,311,o),
(339,281,o),
(339,211,cs),
(339,143,o),
(302,112,o),
(256,112,cs)
);
}
);
width = 516;
}
);
note = six;
unicode = 54;
},
{
glyphname = seven;
kernRight = seven;
lastChange = "2023-10-27 15:22:10 +0000";
layers = (
{
layerId = "F5467FAD-1970-4982-B3D3-939C01050498";
shapes = (
{
closed = 1;
nodes = (
(112,0,l),
(422,660,l),
(58,660,l),
(58,632,l),
(376,632,l),
(69,0,l)
);
}
);
width = 475;
},
{
layerId = "6DD95C5A-998B-41AB-BDFB-84A73C209871";
shapes = (
{
closed = 1;
nodes = (
(175,0,l),
(488,660,l),
(26,660,l),
(26,543,l),
(277,543,l),
(13,0,l)
);
}
);
width = 475;
},
{
layerId = "1FDC7037-1F88-4969-8535-0F79C1EF19DB";
shapes = (
{
closed = 1;
nodes = (
(102,0,l),
(412,660,l),
(62,660,l),
(62,646,l),
(391,646,l),
(77,0,l)
);
}
);
width = 475;
},
{
layerId = "3ED9E848-BE83-4CAC-8EFF-D71BD2B4F667";
shapes = (
{
closed = 1;
nodes = (
(191,0,l),
(504,660,l),
(19,660,l),
(19,521,l),
(253,521,l),
(0,0,l)
);
}
);
width = 475;
}
);
note = seven;
unicode = 55;
},
{
glyphname = eight;
kernRight = eight;
lastChange = "2023-10-27 15:22:10 +0000";
layers = (
{
layerId = "F5467FAD-1970-4982-B3D3-939C01050498";
shapes = (
{
closed = 1;
nodes = (
(365,0,o),
(467,70,o),
(467,190,cs),
(467,286,o),
(401,352,o),
(315,373,c),
(376,393,o),
(425,440,o),
(425,513,cs),
(425,611,o),
(334,665,o),
(248,665,cs),
(162,665,o),
(72,612,o),
(72,514,cs),
(72,441,o),
(122,394,o),
(182,374,c),
(96,352,o),
(30,288,o),
(30,191,cs),
(30,71,o),
(134,0,o),
(249,0,cs)
);
},
{
closed = 1;
nodes = (
(155,19,o),
(70,80,o),
(70,190,cs),
(70,300,o),
(155,363,o),
(249,363,cs),
(343,363,o),
(427,301,o),
(427,191,cs),
(427,81,o),
(341,19,o),
(248,19,cs)
);
},
{
closed = 1;
nodes = (
(174,382,o),
(112,436,o),
(112,513,cs),
(112,607,o),
(190,646,o),
(249,646,cs),
(308,646,o),
(385,609,o),
(385,514,cs),
(385,436,o),
(323,382,o),
(248,382,cs)
);
}
);
width = 497;
},
{
layerId = "6DD95C5A-998B-41AB-BDFB-84A73C209871";
shapes = (
{
closed = 1;
nodes = (
(395,-3,o),
(517,78,o),
(517,207,cs),
(517,278,o),
(478,336,o),
(422,372,c),
(456,402,o),
(480,442,o),
(480,492,cs),
(480,604,o),
(365,669,o),
(267,669,cs),
(171,669,o),
(56,604,o),
(56,493,cs),
(56,443,o),
(79,403,o),
(114,373,c),
(58,337,o),
(19,280,o),
(19,208,cs),
(19,80,o),
(141,-3,o),
(269,-3,cs)
);
},
{
closed = 1;
nodes = (
(212,95,o),
(165,131,o),
(165,207,cs),
(165,282,o),
(212,319,o),
(269,319,cs),
(324,319,o),
(372,283,o),
(372,208,cs),
(372,131,o),
(323,95,o),
(267,95,cs)
);
},
{
closed = 1;
nodes = (
(232,417,o),
(202,444,o),
(202,492,cs),
(202,550,o),
(238,569,o),
(269,569,cs),
(299,569,o),
(334,551,o),
(334,493,cs),
(334,444,o),
(303,417,o),
(267,417,cs)
);
}
);
width = 536;
},
{
layerId = "1FDC7037-1F88-4969-8535-0F79C1EF19DB";
shapes = (
{
closed = 1;
nodes = (
(360,1,o),
(458,68,o),
(458,188,cs),
(458,288,o),
(388,354,o),
(298,373,c),
(363,391,o),
(417,440,o),
(417,517,cs),
(417,612,o),
(329,664,o),
(245,664,cs),
(161,664,o),
(74,613,o),
(74,518,cs),
(74,441,o),
(128,392,o),
(193,373,c),
(103,355,o),
(32,289,o),
(32,189,cs),
(32,69,o),
(133,1,o),
(246,1,cs)
);
},
{
closed = 1;
nodes = (
(145,7,o),
(55,72,o),
(55,188,cs),
(55,303,o),
(145,371,o),
(246,371,cs),
(346,371,o),
(436,304,o),
(436,189,cs),
(436,73,o),
(344,7,o),
(245,7,cs)
);
},
{
closed = 1;
nodes = (
(164,376,o),
(98,435,o),
(98,517,cs),
(98,617,o),
(182,658,o),
(246,658,cs),
(310,658,o),
(393,619,o),
(393,518,cs),
(393,435,o),
(325,376,o),
(245,376,cs)
);
}
);
width = 491;
},
{
layerId = "3ED9E848-BE83-4CAC-8EFF-D71BD2B4F667";
shapes = (
{
closed = 1;
nodes = (
(403,-4,o),
(529,81,o),
(529,211,cs),
(529,276,o),
(498,332,o),
(449,372,c),
(476,405,o),
(493,442,o),
(493,487,cs),
(493,602,o),
(372,669,o),
(273,669,cs),
(173,669,o),
(52,603,o),
(52,488,cs),
(52,444,o),
(69,405,o),
(97,373,c),
(48,334,o),
(16,278,o),
(16,212,cs),
(16,82,o),
(143,-4,o),
(273,-4,cs)
);
},
{
closed = 1;
nodes = (
(225,114,o),
(188,143,o),
(188,211,cs),
(188,278,o),
(227,307,o),
(273,307,cs),
(320,307,o),
(357,279,o),
(357,212,cs),
(357,143,o),
(319,114,o),
(273,114,cs)
);
},
{
closed = 1;
nodes = (
(246,425,o),
(224,446,o),
(224,487,cs),
(224,536,o),
(249,550,o),
(273,550,cs),
(297,550,o),
(322,537,o),
(322,488,cs),
(322,446,o),
(298,425,o),
(273,425,cs)
);
}
);
width = 545;
}
);
note = eight;
unicode = 56;
},
{
glyphname = nine;
kernRight = nine;
lastChange = "2023-10-27 15:22:10 +0000";
layers = (
{
layerId = "F5467FAD-1970-4982-B3D3-939C01050498";
shapes = (
{
closed = 1;
nodes = (
(214,0,l),
(316,168,o),
(474,378,o),
(474,480,cs),
(474,600,o),
(371,671,o),
(256,671,cs),
(141,671,o),
(38,601,o),
(38,481,cs),
(38,360,o),
(141,290,o),
(256,290,cs),
(313,290,o),
(356,309,o),
(378,325,c),
(171,0,l)
);
},
{
closed = 1;
nodes = (
(161,316,o),
(77,371,o),
(77,480,cs),
(77,589,o),
(162,645,o),
(256,645,cs),
(351,645,o),
(435,590,o),
(435,481,cs),
(435,370,o),
(348,316,o),
(254,316,cs)
);
}
);
width = 512;
},
{
layerId = "6DD95C5A-998B-41AB-BDFB-84A73C209871";
shapes = (
{
closed = 1;
nodes = (
(292,0,l),
(354,104,o),
(539,341,o),
(539,462,cs),
(539,588,o),
(418,671,o),
(292,671,cs),
(167,671,o),
(46,589,o),
(46,463,cs),
(46,345,o),
(150,266,o),
(265,255,cs),
(272,255,o),
(277,254,o),
(284,254,c),
(126,0,l)
);
},
{
closed = 1;
nodes = (
(238,353,o),
(191,388,o),
(191,462,cs),
(191,537,o),
(239,572,o),
(293,572,cs),
(348,572,o),
(394,537,o),
(394,463,cs),
(394,389,o),
(347,353,o),
(292,353,cs)
);
}
);
width = 566;
},
{
layerId = "1FDC7037-1F88-4969-8535-0F79C1EF19DB";
shapes = (
{
closed = 1;
nodes = (
(202,0,l),
(310,178,o),
(464,384,o),
(464,483,cs),
(464,602,o),
(363,671,o),
(250,671,cs),
(137,671,o),
(37,603,o),
(37,484,cs),
(37,363,o),
(141,293,o),
(256,295,cs),
(320,295,o),
(369,318,o),
(393,337,c),
(178,0,l)
);
},
{
closed = 1;
nodes = (
(149,310,o),
(59,368,o),
(59,483,cs),
(59,598,o),
(150,656,o),
(251,656,cs),
(351,656,o),
(441,599,o),
(441,484,cs),
(441,367,o),
(348,310,o),
(247,310,cs)
);
}
);
width = 504;
},
{
layerId = "3ED9E848-BE83-4CAC-8EFF-D71BD2B4F667";
shapes = (
{
closed = 1;
nodes = (
(311,0,l),
(363,88,o),
(555,332,o),
(555,457,cs),
(555,586,o),
(429,671,o),
(302,671,cs),
(174,671,o),
(48,587,o),
(48,458,cs),
(48,341,o),
(152,260,o),
(267,246,cs),
(261,246,o),
(257,240,o),
(260,237,c),
(115,0,l)
);
},
{
closed = 1;
nodes = (
(256,362,o),
(220,391,o),
(220,457,cs),
(220,523,o),
(257,554,o),
(303,554,cs),
(347,554,o),
(384,523,o),
(384,458,cs),
(384,393,o),
(347,362,o),
(302,362,cs)
);
}
);
width = 579;
}
);
note = nine;
unicode = 57;
},
{
glyphname = zero.zero;
lastChange = "2023-10-27 15:22:10 +0000";
layers = (
{
layerId = "F5467FAD-1970-4982-B3D3-939C01050498";
shapes = (
{
closed = 1;
nodes = (
(223,20,l),
(424,631,l),
(391,631,l),
(190,20,l)
);
},
{
ref = zero;
}
);
width = 615;
},
{
layerId = "6DD95C5A-998B-41AB-BDFB-84A73C209871";
shapes = (
{
closed = 1;
nodes = (
(302,61,l),
(466,595,l),
(353,595,l),
(189,61,l)
);
},
{
ref = zero;
}
);
width = 654;
},
{
layerId = "1FDC7037-1F88-4969-8535-0F79C1EF19DB";
shapes = (
{
closed = 1;
nodes = (
(211,13,l),
(418,637,l),
(398,637,l),
(190,13,l)
);
},
{
alignment = -1;
ref = zero;
}
);
width = 608;
},
{
layerId = "3ED9E848-BE83-4CAC-8EFF-D71BD2B4F667";
shapes = (
{
closed = 1;
nodes = (
(321,72,l),
(476,587,l),
(343,587,l),
(189,72,l)
);
},
{
alignment = -1;
ref = zero;
}
);
width = 664;
}
);
metricLeft = zero;
metricRight = zero;
},
{
glyphname = fraction;
lastChange = "2023-10-27 15:22:10 +0000";
layers = (
{
layerId = "F5467FAD-1970-4982-B3D3-939C01050498";
shapes = (
{
closed = 1;
nodes = (
(120,-2,l),
(668,708,l),
(632,708,l),
(84,-2,l)
);
}
);
width = 739;
},
{
layerId = "6DD95C5A-998B-41AB-BDFB-84A73C209871";
shapes = (
{
closed = 1;
nodes = (
(150,0,l),
(694,706,l),
(569,706,l),
(25,0,l)
);
}
);
width = 739;
},
{
layerId = "1FDC7037-1F88-4969-8535-0F79C1EF19DB";
shapes = (
{
closed = 1;
nodes = (
(115,-2,l),
(664,708,l),
(642,708,l),
(93,-2,l)
);
}
);
width = 739;
},
{
layerId = "3ED9E848-BE83-4CAC-8EFF-D71BD2B4F667";
shapes = (
{
closed = 1;
nodes = (
(157,0,l),
(701,706,l),
(554,706,l),
(10,0,l)
);
}
);
width = 739;
}
);
note = fraction;
unicode = 8260;
},
{
glyphname = zero.dnom.zero;
kernLeft = zero.dnom;
kernRight = zero.dnom;
lastChange = "2023-10-27 15:22:10 +0000";
layers = (
{
layerId = "F5467FAD-1970-4982-B3D3-939C01050498";
shapes = (
{
closed = 1;
nodes = (
(110,22,l),
(138,13,l),
(262,378,l),
(234,386,l)
);
},
{
ref = zero.dnom;
}
);
width = 372;
},
{
layerId = "6DD95C5A-998B-41AB-BDFB-84A73C209871";
shapes = (
{
closed = 1;
nodes = (
(101,50,l),
(190,20,l),
(295,349,l),
(206,378,l)
);
},
{
ref = zero.dnom;
}
);
width = 397;
},
{
layerId = "1FDC7037-1F88-4969-8535-0F79C1EF19DB";
shapes = (
{
closed = 1;
nodes = (
(112,17,l),
(129,12,l),
(256,383,l),
(239,387,l)
);
},
{
alignment = -1;
ref = zero.dnom;
}
);
width = 369;
},
{
layerId = "3ED9E848-BE83-4CAC-8EFF-D71BD2B4F667";
shapes = (
{
closed = 1;
nodes = (
(99,57,l),
(203,22,l),
(304,341,l),
(199,376,l)
);
},
{
alignment = -1;
ref = zero.dnom;
}
);
width = 403;
}
);
},
{
glyphname = .notdef;
lastChange = "2023-10-27 15:22:10 +0000";
layers = (
{
layerId = "F5467FAD-1970-4982-B3D3-939C01050498";
shapes = (
{
alignment = -1;
angle = 90;
pos = (570,-158);
ref = N;
scale = (0.5117,0.5117);
},
{
alignment = -1;
angle = 90;
pos = (569,130);
ref = B;
scale = (0.5117,0.5117);
},
{
alignment = -1;
angle = 90;
pos = (569,407);
ref = R;
scale = (0.5117,0.5117);
},
{
alignment = -1;
pos = (-102,0);
ref = braceleft;
},
{
alignment = -1;
pos = (501,0);
ref = braceright;
},
{
angle = 90;
pos = (567,653);
ref = period;
scale = (0.511,0.511);
}
);
width = 800;
},
{
layerId = "6DD95C5A-998B-41AB-BDFB-84A73C209871";
shapes = (
{
alignment = -1;
angle = 90;
pos = (610,-155);
ref = N;
scale = (0.4327,0.4327);
},
{
alignment = -1;
angle = 90;
pos = (609,123);
ref = B;
scale = (0.4327,0.4327);
},
{
alignment = -1;
angle = 90;
pos = (609,372);
ref = R;
scale = (0.4327,0.4327);
},
{
alignment = -1;
pos = (-102,0);
ref = braceleft;
},
{
alignment = -1;
pos = (568,0);
ref = braceright;
},
{
angle = 90;
pos = (608,646);
ref = period;
scale = (0.432,0.432);
}
);
width = 949;
},
{
associatedMasterId = "F5467FAD-1970-4982-B3D3-939C01050498";
layerId = "E0243716-C202-411D-B918-09A051B7F70A";
name = "24 juil. 23  11:45";
shapes = (
{
closed = 1;
nodes = (
(472,0,l),
(472,660,l),
(0,660,l),
(0,0,l)
);
},
{
closed = 1;
nodes = (
(236,288,l),
(396,47,l),
(75,47,l)
);
},
{
closed = 1;
nodes = (
(47,571,l),
(207,330,l),
(47,90,l)
);
},
{
closed = 1;
nodes = (
(264,330,l),
(424,571,l),
(424,90,l)
);
},
{
closed = 1;
nodes = (
(75,613,l),
(396,613,l),
(236,372,l)
);
}
);
width = 472;
},
{
associatedMasterId = "6DD95C5A-998B-41AB-BDFB-84A73C209871";
layerId = "AD70B707-6481-42C4-BB38-4583DDE8AC4E";
name = "24 juil. 23  11:45";
shapes = (
{
closed = 1;
nodes = (
(472,0,l),
(472,660,l),
(0,660,l),
(0,0,l)
);
},
{
closed = 1;
nodes = (
(236,288,l),
(396,47,l),
(75,47,l)
);
},
{
closed = 1;
nodes = (
(47,571,l),
(207,330,l),
(47,90,l)
);
},
{
closed = 1;
nodes = (
(264,330,l),
(424,571,l),
(424,90,l)
);
},
{
closed = 1;
nodes = (
(75,613,l),
(396,613,l),
(236,372,l)
);
}
);
width = 472;
},
{
layerId = "1FDC7037-1F88-4969-8535-0F79C1EF19DB";
shapes = (
{
alignment = -1;
angle = 90;
pos = (563,-159);
ref = N;
scale = (0.5243,0.5243);
},
{
alignment = -1;
angle = 90;
pos = (562,131);
ref = B;
scale = (0.5243,0.5243);
},
{
alignment = -1;
angle = 90;
pos = (562,413);
ref = R;
scale = (0.5243,0.5243);
},
{
alignment = -1;
pos = (-102,0);
ref = braceleft;
},
{
alignment = -1;
pos = (490,0);
ref = braceright;
},
{
alignment = -1;
angle = 90;
pos = (560,654);
ref = period;
scale = (0.5236,0.5236);
}
);
width = 776;
},
{
layerId = "3ED9E848-BE83-4CAC-8EFF-D71BD2B4F667";
shapes = (
{
alignment = -1;
angle = 90;
pos = (620,-154);
ref = N;
scale = (0.4133,0.4133);
},
{
alignment = -1;
angle = 90;
pos = (620,121);
ref = B;
scale = (0.4133,0.4133);
},
{
alignment = -1;
angle = 90;
pos = (620,363);
ref = R;
scale = (0.4133,0.4133);
},
{
alignment = -1;
pos = (-102,0);
ref = braceleft;
},
{
alignment = -1;
pos = (584,0);
ref = braceright;
},
{
alignment = -1;
angle = 90;
pos = (619,644);
ref = period;
scale = (0.4126,0.4126);
}
);
width = 985;
}
);
note = ".notdef";
},
{
glyphname = period;
kernLeft = comma;
kernRight = period;
lastChange = "2023-10-27 15:22:10 +0000";
layers = (
{
layerId = "F5467FAD-1970-4982-B3D3-939C01050498";
shapes = (
{
closed = 1;
nodes = (
(159,0,l),
(159,64,l),
(95,64,l),
(95,0,l)
);
}
);
width = 279;
},
{
layerId = "6DD95C5A-998B-41AB-BDFB-84A73C209871";
shapes = (
{
closed = 1;
nodes = (
(187,0,l),
(187,143,l),
(43,143,l),
(43,0,l)
);
}
);
width = 279;
},
{
layerId = "1FDC7037-1F88-4969-8535-0F79C1EF19DB";
shapes = (
{
closed = 1;
nodes = (
(155,0,l),
(155,52,l),
(104,52,l),
(104,0,l)
);
}
);
width = 279;
},
{
layerId = "3ED9E848-BE83-4CAC-8EFF-D71BD2B4F667";
shapes = (
{
closed = 1;
nodes = (
(193,0,l),
(193,163,l),
(30,163,l),
(30,0,l)
);
}
);
width = 279;
}
);
note = period;
unicode = 46;
},
